<?xml version="1.0" standalone="no"?>
<!DOCTYPE svg PUBLIC "-//W3C//DTD SVG 1.1//EN" "http://www.w3.org/Graphics/SVG/1.1/DTD/svg11.dtd" >
<svg>
<metadata>
Created by FontForge 20090622 at Wed Jun 24 18:20:41 2020
 By deploy user
Copyright (c) 2015 by Kostas Bartsokas. All rights reserved.
</metadata>
<defs>
<font id="AvertaDemo-ExtraBoldItalic" horiz-adv-x="1292" >
  <font-face 
    font-family="Averta Demo ExtraBold Italic"
    font-weight="800"
    font-style="italic"
    font-stretch="normal"
    units-per-em="2048"
    panose-1="0 0 9 0 0 0 0 0 0 0"
    ascent="1581"
    descent="-467"
    x-height="1002"
    cap-height="1455"
    bbox="-455 -838 2020 2035"
    underline-thickness="120"
    underline-position="-78"
    slope="-7"
    unicode-range="U+0020-U+2715"
  />
<missing-glyph horiz-adv-x="802" 
 />
    <glyph glyph-name=".notdef" horiz-adv-x="802" 
 />
    <glyph glyph-name=".null" horiz-adv-x="0" 
 />
    <glyph glyph-name="nonmarkingreturn" horiz-adv-x="682" 
 />
    <glyph glyph-name="space" unicode=" " horiz-adv-x="362" 
 />
    <glyph glyph-name="exclam" unicode="!" horiz-adv-x="589" 
d="M204 496l71 1012h327l-177 -1012h-221zM280 339q77 0 128 -50t51 -125q0 -79 -53 -131t-133 -52q-76 0 -127 50.5t-51 126.5q0 78 52.5 129.5t132.5 51.5z" />
    <glyph glyph-name="quotedbl" unicode="&#x22;" horiz-adv-x="861" 
d="M228 1455h305l-197 -548h-230zM631 1455h306l-198 -548h-230z" />
    <glyph glyph-name="numbersign" unicode="#" horiz-adv-x="1201" 
d="M909 1343h207l-89 -350h185l-29 -225h-219l-68 -267h205l-29 -225h-238l-95 -373h-209l96 373h-216l-96 -373h-209l98 373h-176l28 225h210l68 267h-196l27 225h232l89 350h208l-90 -350h216zM756 768h-215l-69 -267h217z" />
    <glyph glyph-name="dollar" unicode="$" horiz-adv-x="1065" 
d="M622 832l71.5 -41.5l69.5 -40.5l61.5 -38.5t57 -42t44.5 -45.5t36.5 -53.5t21 -61.5t8.5 -75q0 -183 -103.5 -298t-279.5 -143l-26 -205h-247l26 212q-102 23 -188.5 80t-145.5 150l226 198q45 -76 113 -116.5t136 -40.5q73 0 115.5 33t42.5 82q-1 37 -31.5 63t-125.5 81
l-20 12q-10 6 -30 17l-49.5 30l-47.5 29.5t-47.5 33l-41.5 35.5t-39 40.5t-30.5 44.5t-25 51.5t-14.5 57.5t-6 66q0 168 105.5 280.5t271.5 137.5l28 224h247l-30 -241q169 -52 260 -187l-224 -189q-50 67 -100.5 91.5t-104.5 24.5q-53 0 -87.5 -30t-33.5 -75
q1 -38 30.5 -71t106.5 -80z" />
    <glyph glyph-name="percent" unicode="%" horiz-adv-x="2018" 
d="M1523 1392l-761 -1444l-217 100l760 1444zM546 1468q107 0 193.5 -47t136 -134t49.5 -198q0 -92 -33.5 -173.5t-91 -139t-135.5 -90.5t-164 -33q-163 0 -269.5 107t-106.5 276q0 120 56 219.5t152.5 156t212.5 56.5zM536 1258q-75 0 -128.5 -62.5t-53.5 -154.5
q0 -82 44 -130t112 -48q77 0 131 61.5t54 156.5q0 79 -45 128t-114 49zM1568 796q108 0 194.5 -47t136 -134t49.5 -198q0 -93 -33.5 -174.5t-91 -138.5t-135.5 -90t-165 -33q-107 0 -192.5 47.5t-134.5 135.5t-49 200q0 120 56 219.5t152.5 156t212.5 56.5zM1559 586
q-75 0 -128.5 -62.5t-53.5 -154.5q0 -82 43.5 -130t111.5 -48q77 0 131.5 61.5t54.5 156.5q0 79 -45 128t-114 49z" />
    <glyph glyph-name="ampersand" unicode="&#x26;" horiz-adv-x="1464" 
d="M1485 936l-33 -274h-290q-24 -155 -81.5 -279.5t-147 -214.5t-215.5 -138.5t-280 -48.5q-175 0 -286 107t-111 284q0 138 75.5 259t209.5 185q-92 90 -92 220q0 124 58.5 224t162 157t231.5 57q84 0 151 -19.5t109 -49.5t73.5 -74t47.5 -85t27 -91l-255 -80
q-8 62 -41.5 100t-97.5 39q-72 0 -117 -48t-45 -124q0 -48 34 -77t91 -29h822zM489 256q75 0 142.5 34t116.5 92t83.5 129.5t50.5 150.5h-259q-61 0 -114.5 -23.5t-88 -61t-54.5 -83.5t-20 -91q0 -69 40 -108t103 -39z" />
    <glyph glyph-name="quotesingle" unicode="'" horiz-adv-x="457" 
d="M228 1455h305l-197 -548h-230z" />
    <glyph glyph-name="parenleft" unicode="(" horiz-adv-x="608" 
d="M362 361q0 282 78 567.5t221 513.5l-205 89q-178 -236 -274 -559t-96 -650q0 -383 134 -655l239 108q-97 271 -97 586z" />
    <glyph glyph-name="parenright" unicode=")" horiz-adv-x="609" 
d="M549 888q0 386 -135 653l-239 -109q97 -261 97 -584q0 -282 -77 -565.5t-220 -517.5l204 -89q181 244 275.5 562.5t94.5 649.5z" />
    <glyph glyph-name="asterisk" unicode="*" horiz-adv-x="741" 
d="M639 870l-125 107l-21 -199h-177l34 199l-149 -105l-75 155l158 88l-139 92l108 156l129 -107l17 199h177l-35 -199l152 104l75 -153l-160 -90l139 -90z" />
    <glyph glyph-name="plus" unicode="+" horiz-adv-x="1079" 
d="M972 437h-311l-43 -355h-262l44 355h-310l32 260h309l45 359h261l-44 -359h312z" />
    <glyph glyph-name="comma" unicode="," horiz-adv-x="479" 
d="M62 274h302l-205 -547h-219z" />
    <glyph glyph-name="hyphen" unicode="-" horiz-adv-x="728" 
d="M646 492h-567l34 281h568z" />
    <glyph glyph-name="period" unicode="." horiz-adv-x="538" 
d="M230 339q77 0 128 -50t51 -125q0 -79 -53 -131t-133 -52q-76 0 -127 50.5t-51 126.5q0 78 52.5 129.5t132.5 51.5z" />
    <glyph glyph-name="slash" unicode="/" horiz-adv-x="799" 
d="M958 1521l-910 -1749l-207 101l914 1749z" />
    <glyph glyph-name="zero" unicode="0" horiz-adv-x="1171" 
d="M692 1425q210 0 322.5 -144t112.5 -414q0 -113 -17 -221.5t-49 -207.5t-83 -182.5t-115.5 -144.5t-149.5 -95.5t-182 -34.5q-210 0 -323.5 142t-113.5 414q0 113 16.5 221.5t49 208t83 183t115.5 145t150.5 96t183.5 34.5zM672 1127q-54 0 -98 -41t-72 -105.5t-47 -148
t-27 -163.5t-8 -156q0 -111 33 -172.5t96 -61.5q54 0 98 40.5t72 104t47 145.5t27 161.5t8 155.5q0 241 -129 241z" />
    <glyph glyph-name="one" unicode="1" horiz-adv-x="811" 
d="M521 1406h256l-173 -1406h-322l123 995l-193 -141l-131 243z" />
    <glyph glyph-name="two" unicode="2" horiz-adv-x="985" 
d="M473 295v-7h414l-36 -288h-849l21 208l417 453q44 47 73.5 82.5t63.5 84.5t51.5 98t17.5 96q0 49 -26 79t-74 30q-50 0 -106.5 -37t-98.5 -103l-213 173q70 116 194 188.5t275 72.5q76 0 143 -24.5t118 -70t81 -114.5t30 -152q0 -77 -18.5 -148.5t-56 -138t-84 -126
t-112.5 -126.5z" />
    <glyph glyph-name="three" unicode="3" horiz-adv-x="993" 
d="M759 724q154 -86 154 -283q0 -104 -38 -191t-104 -145.5t-156 -91t-194 -32.5q-172 0 -285 91.5t-144 237.5l290 102q9 -74 44 -111t91 -37q78 0 125 60t47 152q0 53 -31.5 85.5t-95.5 32.5h-95l31 251h83q77 0 122 57t45 133q0 48 -28 77t-72 29q-103 0 -163 -121
l-242 146q58 120 176.5 189.5t260.5 69.5q171 0 272 -84.5t101 -240.5q0 -119 -50.5 -215.5t-142.5 -155.5z" />
    <glyph glyph-name="four" unicode="4" horiz-adv-x="1049" 
d="M836 489h162l-33 -266h-162l-27 -223h-310l27 223h-499l22 193l681 990h251zM353 460h201l55 423z" />
    <glyph glyph-name="five" unicode="5" horiz-adv-x="1005" 
d="M942 1119h-440l-39 -227q84 19 141 19q150 0 239.5 -99t89.5 -276q0 -122 -39 -226t-108.5 -176.5t-167.5 -113t-212 -40.5q-136 0 -244.5 57.5t-177.5 173.5l244 176q26 -57 69.5 -87.5t96.5 -30.5q101 0 159.5 71.5t58.5 175.5q0 72 -35 108.5t-92 36.5q-92 1 -190 -74
l-163 67l132 752h713z" />
    <glyph glyph-name="six" unicode="6" horiz-adv-x="1083" 
d="M701 905q63 0 118.5 -22.5t99.5 -65.5t69 -113t25 -158q0 -121 -36.5 -224.5t-103 -179t-166 -118.5t-220.5 -43q-89 0 -164.5 30t-130 87t-85 143.5t-30.5 194.5q0 175 57.5 341t160 301t251.5 234t324 143l51 -256q-329 -132 -455 -353l7 -5q114 64 228 64zM509 262
q83 0 140.5 72.5t57.5 172.5q0 146 -138 146q-46 0 -98 -26.5t-92 -71.5q-5 -53 -5 -101q0 -85 37.5 -138.5t97.5 -53.5z" />
    <glyph glyph-name="seven" unicode="7" horiz-adv-x="880" 
d="M141 1406h791l-23 -205l-547 -1234l-315 57l499 1097h-440z" />
    <glyph glyph-name="eight" unicode="8" horiz-adv-x="1052" 
d="M810 766q80 -33 129 -110t49 -188q0 -152 -69.5 -263t-190 -167t-277.5 -56q-184 0 -298 91.5t-114 249.5q0 138 72 256.5t193 175.5l1 5q-50 27 -83 88t-33 145q0 123 58 221t164 154t241 56q71 0 133.5 -19.5t110 -56.5t75 -96t27.5 -133q0 -109 -52 -208t-136 -142v-3
zM575 883q56 0 94.5 52t38.5 119q0 55 -25 86t-74 31q-56 0 -94 -51t-38 -118q0 -53 26.5 -86t71.5 -33zM487 247q74 0 127 63.5t53 152.5q0 67 -33 110t-96 43q-75 0 -125.5 -66t-50.5 -149q0 -71 33 -112.5t92 -41.5z" />
    <glyph glyph-name="nine" unicode="9" horiz-adv-x="1079" 
d="M649 1425q182 0 290.5 -122t108.5 -338q0 -187 -58.5 -357t-163.5 -302.5t-254.5 -226t-326.5 -130.5l-50 247q161 48 277.5 141t184.5 222q-106 -62 -224 -62q-67 0 -124.5 22.5t-101.5 65.5t-69.5 111.5t-25.5 154.5q0 123 40.5 230t111.5 182.5t170.5 118.5t214.5 43z
M417 902q0 -74 37 -113t110 -39q99 0 178 96q5 55 5 101q0 96 -36 145.5t-96 49.5q-85 0 -141.5 -68t-56.5 -172z" />
    <glyph glyph-name="colon" unicode=":" horiz-adv-x="551" 
d="M330 1023q77 0 128 -50t51 -125q0 -79 -53 -131t-133 -52q-76 0 -127 50.5t-51 126.5q0 78 52.5 129.5t132.5 51.5zM243 339q77 0 128 -50t51 -125q0 -79 -53 -131t-133 -52q-76 0 -127 50.5t-51 126.5q0 78 52.5 129.5t132.5 51.5z" />
    <glyph glyph-name="semicolon" unicode=";" horiz-adv-x="503" 
d="M289 1023q77 0 128 -50t51 -125q0 -79 -53 -131t-133 -52q-76 0 -127 50.5t-51 126.5q0 78 52.5 129.5t132.5 51.5zM70 274h302l-205 -547h-219z" />
    <glyph glyph-name="less" unicode="&#x3c;" horiz-adv-x="1084" 
d="M945 322l-33 -279l-824 406l24 214l925 415l-32 -286l-522 -233z" />
    <glyph glyph-name="equal" unicode="=" horiz-adv-x="1112" 
d="M1044 673h-882l32 260h883zM979 201h-882l32 260h883z" />
    <glyph glyph-name="greater" unicode="&#x3e;" horiz-adv-x="1086" 
d="M94 322l523 237l-463 233l33 286l824 -415l-24 -214l-925 -406z" />
    <glyph glyph-name="question" unicode="?" horiz-adv-x="875" 
d="M298 1147q79 95 163 95q49 0 75.5 -31t26.5 -87q0 -66 -33.5 -120.5t-100.5 -124.5l-62.5 -67.5t-49 -57.5t-41.5 -59t-24.5 -55t-14.5 -63l-8 -88h271l19 89q10 48 47.5 92.5t113.5 114.5q48 44 84 85.5t67.5 92.5t48.5 109t17 120q0 81 -28.5 145.5t-78.5 105.5
t-116 62.5t-142 21.5q-128 0 -241.5 -53t-178.5 -140zM350 339q77 0 128 -50t51 -125q0 -79 -53 -131t-133 -52q-76 0 -127 50.5t-51 126.5q0 78 52.5 129.5t132.5 51.5z" />
    <glyph glyph-name="at" unicode="@" horiz-adv-x="1811" 
d="M1370 958l-69 -571q-7 -58 9.5 -86t66.5 -28q48 0 86 33.5t60 85t33 106.5t11 106q0 96 -22 181t-68 156.5t-113 123t-162 80.5t-210 29q-107 0 -201.5 -24t-166.5 -65t-131 -97.5t-99.5 -121t-68.5 -135.5t-40.5 -140t-12.5 -136q0 -130 42.5 -239t117.5 -184.5
t181 -117.5t230 -42q106 0 214.5 32.5t201.5 89.5l99 -145q-112 -78 -246 -121t-269 -43q-168 0 -310.5 56.5t-243 157t-157 244.5t-56.5 314q0 83 16 169t51 175t86.5 170t127 152.5t166.5 123.5t212 82.5t257 30.5q144 0 266.5 -38t213 -106t154.5 -162t96 -208t32 -241
q0 -45 -7 -92t-24.5 -99t-42.5 -100t-64.5 -91.5t-88.5 -75t-116 -50.5t-144 -19q-44 0 -83.5 7.5t-75 23.5t-60 44.5t-33.5 66.5h-6q-102 -120 -270 -120q-57 0 -106.5 22t-88 64t-60.5 109t-22 151q0 113 33 212t89 167.5t132 108t161 39.5q134 0 204 -75h6l7 60h276z
M843 355q79 0 141.5 80.5t79.5 206.5l4 31q-59 46 -136 46q-55 0 -98.5 -36t-66 -91.5t-22.5 -116.5q0 -57 28.5 -88.5t69.5 -31.5z" />
    <glyph glyph-name="A" unicode="A" 
d="M879 0l-43 269h-434l-109 -269h-345l656 1455h316l299 -1455h-340zM515 547h277l-77 483h-5z" />
    <glyph glyph-name="B" unicode="B" horiz-adv-x="1199" 
d="M925 777q205 -67 205 -288q0 -142 -57 -252.5t-165.5 -173.5t-251.5 -63h-583l178 1455h511q198 0 292 -74.5t94 -223.5q0 -115 -58.5 -219.5t-163.5 -156.5zM631 868q80 0 133 56.5t53 139.5q0 103 -136 103h-144l-37 -299h131zM576 286q97 0 159.5 61t62.5 149
q0 118 -154 118h-174l-41 -328h147z" />
    <glyph glyph-name="C" unicode="C" horiz-adv-x="1334" 
d="M1244 232q-103 -119 -244 -185t-311 -66q-127 0 -233.5 39t-186.5 114.5t-125 196.5t-45 275q0 140 36 271t104 238.5t160 188.5t210.5 125.5t248.5 44.5q331 0 517 -305l-262 -196q-101 186 -269 186q-70 0 -134 -31.5t-111.5 -85t-83 -122.5t-53.5 -148t-18 -157
q0 -155 70.5 -237.5t195.5 -82.5q88 0 166.5 40t136.5 111z" />
    <glyph glyph-name="D" unicode="D" horiz-adv-x="1356" 
d="M523 0h-450l178 1455h460q148 0 262.5 -42.5t188.5 -122t111.5 -190.5t37.5 -251q0 -188 -54.5 -344.5t-154.5 -268.5t-248.5 -174t-330.5 -62zM561 292q99 0 177.5 43t129 118.5t77 175t26.5 215.5q0 154 -73.5 236t-223.5 82h-137l-107 -870h131z" />
    <glyph glyph-name="E" unicode="E" horiz-adv-x="1112" 
d="M1009 292l-36 -292h-901l178 1455h863l-35 -293h-543l-37 -297h427l-35 -288h-427l-35 -285h581z" />
    <glyph glyph-name="F" unicode="F" horiz-adv-x="1089" 
d="M537 1162l-42 -343h470l-37 -293h-469l-64 -526h-322l178 1455h893l-35 -293h-572z" />
    <glyph glyph-name="G" unicode="G" horiz-adv-x="1383" 
d="M1315 810l-76 -653q-99 -79 -245.5 -127.5t-298.5 -48.5q-102 0 -191 23.5t-164 72.5t-128.5 120.5t-83.5 171.5t-30 221q0 145 35.5 278.5t103 243t160 191t213 126.5t255.5 45q155 0 287.5 -68t209.5 -196l-253 -192q-44 66 -111 106.5t-152 40.5q-88 0 -164.5 -46.5
t-128 -124t-80.5 -177.5t-29 -208q0 -158 72 -241.5t200 -83.5q116 0 226 70l26 182h-241l34 274h554z" />
    <glyph glyph-name="H" unicode="H" horiz-adv-x="1363" 
d="M1345 1455l-179 -1455h-331l69 553h-432l-68 -553h-331l178 1455h332l-76 -610h432l75 610h331z" />
    <glyph glyph-name="I" unicode="I" horiz-adv-x="621" 
d="M415 0h-332l178 1455h333z" />
    <glyph glyph-name="J" unicode="J" horiz-adv-x="942" 
d="M199 401q22 -48 55.5 -77t74.5 -29q32 0 56.5 11.5t47.5 39.5t40 81.5t27 132.5l110 895h328l-110 -896q-18 -143 -53.5 -248.5t-94.5 -180.5t-145 -112t-201 -37q-108 0 -202 51.5t-148 148.5z" />
    <glyph glyph-name="K" unicode="K" horiz-adv-x="1252" 
d="M1350 1455l-548 -632l384 -823h-391l-233 541h-5l-107 -124l-50 -417h-327l178 1455h328l-66 -536h5l420 536h412z" />
    <glyph glyph-name="L" unicode="L" horiz-adv-x="1058" 
d="M975 292l-36 -292h-866l178 1455h330l-142 -1163h536z" />
    <glyph glyph-name="M" unicode="M" horiz-adv-x="1626" 
d="M1273 1455h335l-178 -1455h-326l97 791h-3l-306 -521h-211l-181 531h-4l-98 -801h-325l178 1455h331l251 -765h5z" />
    <glyph glyph-name="N" unicode="N" horiz-adv-x="1403" 
d="M1059 1455h327l-179 -1455h-338l-360 860h-3l-106 -860h-327l178 1455h329l366 -883h5z" />
    <glyph glyph-name="O" unicode="O" horiz-adv-x="1504" 
d="M869 1474q132 0 241.5 -41.5t187 -119.5t120.5 -193.5t43 -258.5q0 -144 -33 -275.5t-98.5 -241.5t-157 -191t-216 -126.5t-267.5 -45.5q-133 0 -242.5 41.5t-186.5 119.5t-119.5 195t-42.5 262q0 138 34.5 268t102 239.5t160 192t215 129t259.5 46.5zM714 287
q117 0 210 75t144 201.5t51 277.5q0 163 -76.5 245t-205.5 82q-84 0 -158.5 -46.5t-126.5 -122.5t-82.5 -175.5t-30.5 -204.5q0 -164 75.5 -248t199.5 -84z" />
    <glyph glyph-name="P" unicode="P" horiz-adv-x="1159" 
d="M759 1455q107 0 187 -29.5t128.5 -84.5t72 -127t23.5 -162q0 -173 -66.5 -302t-198.5 -201.5t-315 -72.5h-137l-58 -476h-322l178 1455h508zM605 764q102 0 163 69.5t61 181.5q0 74 -43 112t-109 38h-140l-49 -401h117z" />
    <glyph glyph-name="Q" unicode="Q" horiz-adv-x="1521" 
d="M1462 861q0 -161 -41 -306t-119 -260l118 -128l-189 -214l-129 144q-177 -116 -413 -116q-133 0 -242 41.5t-186 119.5t-119.5 195t-42.5 262q0 138 34.5 268t102 239.5t160 191.5t215 128.5t259.5 46.5q132 0 241.5 -41.5t187 -119t120.5 -193t43 -258.5zM715 287
q92 0 173 49l-98 110l185 202l89 -96q56 132 56 289q0 163 -76.5 244.5t-205.5 81.5q-84 0 -158.5 -46.5t-126.5 -122t-82.5 -175t-30.5 -204.5q0 -164 75.5 -248t199.5 -84z" />
    <glyph glyph-name="R" unicode="R" horiz-adv-x="1230" 
d="M888 535l-1 -4l243 -531h-365l-200 476h-112l-58 -476h-322l178 1455h520q106 0 186 -29.5t128.5 -84.5t72 -127t23.5 -162q0 -181 -75.5 -315.5t-217.5 -201.5zM537 1165l-49 -401h129q101 0 162 70.5t61 180.5q0 75 -43 112.5t-109 37.5h-151z" />
    <glyph glyph-name="S" unicode="S" horiz-adv-x="1108" 
d="M641 889l77 -44.5l75 -43t65.5 -41.5t61 -45.5t48.5 -48.5t39 -58t22.5 -66.5t9.5 -79.5q0 -151 -68 -261t-186 -165t-272 -55q-97 0 -188.5 26.5t-176 86t-140.5 147.5l234 206q49 -84 123.5 -128.5t149.5 -44.5q83 0 132.5 40t49.5 98q0 18 -7.5 34.5t-17 28.5
t-34.5 29.5t-44 29l-62 36.5l-33 19l-31 18l-54.5 32l-51.5 32t-51 35.5l-45 38t-42 43.5t-33.5 47.5t-27.5 55t-15.5 61t-6.5 70.5q0 102 39 187.5t106.5 143t158 89.5t193.5 32q132 0 252.5 -57.5t193.5 -165.5l-232 -197q-54 74 -110.5 101.5t-116.5 27.5
q-63 0 -103.5 -35.5t-38.5 -88.5q1 -44 35.5 -81t122.5 -89z" />
    <glyph glyph-name="T" unicode="T" horiz-adv-x="1094" 
d="M1131 1162h-340l-142 -1162h-328l143 1162h-339l35 293h1006z" />
    <glyph glyph-name="U" unicode="U" horiz-adv-x="1329" 
d="M1224 601q-20 -168 -69 -287.5t-127.5 -192.5t-181.5 -106.5t-239 -33.5q-245 0 -363.5 134.5t-118.5 382.5q0 64 10 152l100 805h327l-99 -803q-8 -69 -8 -122q0 -242 176 -242q76 0 128.5 29t88 101t50.5 191l104 846h327z" />
    <glyph glyph-name="V" unicode="V" horiz-adv-x="1281" 
d="M1023 1455h362l-657 -1455h-289l-302 1455h351l149 -959h5z" />
    <glyph glyph-name="W" unicode="W" horiz-adv-x="1900" 
d="M1640 1455h350l-587 -1455h-301l-94 918h-5l-326 -918h-300l-230 1455h341l104 -890h5l297 890h347l78 -888h4z" />
    <glyph glyph-name="X" unicode="X" horiz-adv-x="1324" 
d="M1397 1455l-490 -730l324 -725h-376l-193 475h-4l-310 -475h-384l509 738l-309 717h368l183 -463h7l287 463h388z" />
    <glyph glyph-name="Y" unicode="Y" horiz-adv-x="1181" 
d="M921 1455h382l-530 -820l-80 -635h-332l80 635l-325 820h365l159 -500h6z" />
    <glyph glyph-name="Z" unicode="Z" horiz-adv-x="1158" 
d="M1161 1205l-701 -905l-1 -8h587l-36 -292h-987l29 256l687 900l1 6h-557l36 293h970z" />
    <glyph glyph-name="bracketleft" unicode="[" horiz-adv-x="693" 
d="M477 1280l-167 -1360h233l-28 -226h-492l222 1811h493l-28 -225h-233z" />
    <glyph glyph-name="backslash" unicode="\" horiz-adv-x="809" 
d="M93 1521l226 100l487 -1749l-228 -100z" />
    <glyph glyph-name="bracketright" unicode="]" horiz-adv-x="692" 
d="M407 1280h-233l27 225h493l-222 -1811h-493l28 226h233z" />
    <glyph glyph-name="asciicircum" unicode="^" horiz-adv-x="868" 
d="M146 1023l297 432h207l196 -432h-236l-79 245l-152 -245h-233z" />
    <glyph glyph-name="underscore" unicode="_" horiz-adv-x="963" 
d="M888 -259h-999l25 204h999z" />
    <glyph glyph-name="grave" unicode="`" horiz-adv-x="901" 
d="M573 1396l165 -304h-282l-190 306z" />
    <glyph glyph-name="a" unicode="a" horiz-adv-x="1124" 
d="M775 1002h308l-123 -1002h-308l21 164h-5q-56 -86 -129.5 -134.5t-160.5 -48.5q-105 0 -180 55t-110.5 146t-35.5 209q0 131 37.5 248.5t100.5 201t150.5 132t183.5 48.5q152 0 237 -90h6zM476 253q41 0 83.5 28t79.5 79.5t65 132t40 177.5v3q-69 74 -166 74
q-49 0 -91 -31t-69 -80t-42 -107t-15 -114q0 -74 31.5 -118t83.5 -44z" />
    <glyph glyph-name="b" unicode="b" horiz-adv-x="1138" 
d="M759 1021q104 0 178.5 -56t110.5 -148.5t36 -212.5q0 -137 -37 -250.5t-109 -197.5t-184.5 -130t-256.5 -46q-247 0 -437 105l175 1423h307l-79 -654h5q120 167 291 167zM491 254q89 0 155 47t97.5 122t31.5 165q0 68 -32 113t-84 45q-90 0 -167.5 -108.5t-101.5 -296.5
l-9 -74q59 -13 110 -13z" />
    <glyph glyph-name="c" unicode="c" horiz-adv-x="974" 
d="M478 -19q-198 0 -311 113t-113 323q0 96 24 186t72 165.5t113.5 132t154 88.5t188.5 32q120 0 214 -44.5t149 -128.5l-235 -175q-47 74 -146 74q-63 0 -115 -44.5t-80.5 -117t-28.5 -155.5q0 -50 12.5 -86t33.5 -54.5t43 -26.5t46 -8q93 0 174 97l239 -150
q-160 -221 -434 -221z" />
    <glyph glyph-name="d" unicode="d" horiz-adv-x="1113" 
d="M839 1508h308l-185 -1508h-308l21 164h-5q-56 -86 -130.5 -134.5t-162.5 -48.5q-105 0 -180 55t-110.5 146t-35.5 209q0 131 37.5 248.5t100.5 201t150.5 132t183.5 48.5q153 0 241 -93h5zM475 253q89 0 168 113t103 304l1 5q-66 72 -170 72q-49 0 -91 -31t-69 -80
t-42 -107t-15 -114q0 -74 31.5 -118t83.5 -44z" />
    <glyph glyph-name="e" unicode="e" horiz-adv-x="966" 
d="M496 235q105 0 183 101l228 -134q-80 -111 -185 -165.5t-250 -54.5q-197 0 -308.5 112.5t-111.5 314.5q0 97 24 188t71 167.5t112.5 134t154 90t189.5 32.5q64 0 123.5 -17.5t108.5 -51.5t78.5 -90t29.5 -126q0 -67 -31 -124t-84 -99t-127 -76t-154.5 -55.5t-172.5 -35.5
l-13 -18q19 -46 56 -69.5t79 -23.5zM580 764q-70 0 -130.5 -57t-87.5 -157l13 -9q274 50 274 166q0 25 -18.5 41t-50.5 16z" />
    <glyph glyph-name="f" unicode="f" horiz-adv-x="669" 
d="M718 1225q-53 37 -104 37q-43 0 -66 -32.5t-34 -125.5l-13 -102h160l-31 -249h-160l-92 -753h-308l92 753h-84l30 249h85l21 167q21 176 108 267t235 91q141 0 238 -78z" />
    <glyph glyph-name="g" unicode="g" horiz-adv-x="1118" 
d="M770 1002h308l-107 -873q-16 -130 -56 -228.5t-94 -159.5t-126.5 -99t-145.5 -52t-160 -14q-206 0 -364 97l96 240q124 -77 256 -77q49 0 85.5 7.5t72 28t60 56.5t43.5 94.5t29 140.5l4 29h-5q-55 -83 -128.5 -131.5t-159.5 -48.5q-79 0 -142 31t-102.5 85t-60.5 124
t-21 150q0 127 37.5 242t100.5 197.5t150.5 131t183.5 48.5q150 0 234 -87h4zM476 285q84 0 160.5 104t101.5 273l2 15q-68 70 -162 70q-49 0 -91 -30.5t-69 -78t-42 -102t-15 -104.5q0 -71 31 -109t84 -38z" />
    <glyph glyph-name="h" unicode="h" horiz-adv-x="1113" 
d="M800 1020q144 0 201.5 -99.5t29.5 -307.5l-81 -613h-306l73 543q15 103 2 152.5t-62 49.5q-35 0 -73.5 -24t-74.5 -68t-65 -116t-42 -160l-46 -377h-306l185 1508h306l-80 -649h7q135 161 332 161z" />
    <glyph glyph-name="i" unicode="i" horiz-adv-x="541" 
d="M375 1486q81 0 132.5 -49.5t51.5 -125.5q0 -79 -53.5 -131t-137.5 -52q-81 0 -132.5 50.5t-51.5 126.5q0 79 53.5 130t137.5 51zM178 1002h307l-123 -1002h-307z" />
    <glyph glyph-name="j" unicode="j" horiz-adv-x="505" 
d="M350 1496q81 0 132.5 -49.5t51.5 -125.5q0 -79 -53.5 -131t-137.5 -52q-81 0 -132.5 50.5t-51.5 126.5q0 79 53.5 130t137.5 51zM-146 -139q34 -26 79 -26q44 0 64.5 39t31.5 135l122 993h309l-128 -1037q-24 -205 -111.5 -296.5t-229.5 -91.5q-66 0 -115 11.5t-98 36.5z
" />
    <glyph glyph-name="k" unicode="k" horiz-adv-x="1044" 
d="M772 410q17 -53 35.5 -87t42.5 -52.5t48 -26t61 -10.5l-69 -250q-33 -3 -90 -3t-102.5 21t-79 61t-57.5 89.5t-46 117.5l-14 46h-2q-51 -29 -114 -58l-30 -258h-307l185 1508h307l-111 -911h5q116 79 179.5 177.5t94.5 227.5h318q-56 -292 -281 -506z" />
    <glyph glyph-name="l" unicode="l" horiz-adv-x="540" 
d="M244 1508h308l-185 -1508h-308z" />
    <glyph glyph-name="m" unicode="m" horiz-adv-x="1657" 
d="M1339 1020q150 0 206 -101.5t27 -317.5l-79 -601h-305l72 543q15 103 2.5 152.5t-59.5 49.5q-27 0 -61.5 -25t-68.5 -70.5t-62.5 -121t-40.5 -165.5l-48 -363h-305l72 543q16 103 4 152.5t-61 49.5q-27 0 -60.5 -24.5t-67.5 -69t-62.5 -118.5t-40.5 -162l-46 -371h-307
l123 1002h307l-16 -134h5q127 152 310 152q176 0 219 -155h5q130 155 338 155z" />
    <glyph glyph-name="n" unicode="n" horiz-adv-x="1111" 
d="M798 1020q144 0 201.5 -99.5t29.5 -307.5l-81 -613h-306l72 543q16 103 3 152.5t-62 49.5q-35 0 -74 -24t-75 -69t-64.5 -118.5t-40.5 -162.5l-46 -371h-307l123 1002h307l-18 -146h4q135 164 334 164z" />
    <glyph glyph-name="o" unicode="o" horiz-adv-x="1088" 
d="M607 1020q196 0 311.5 -112.5t115.5 -315.5q0 -99 -20.5 -188.5t-65 -167t-109 -134t-157.5 -89t-205 -32.5q-193 0 -308 114t-115 317q0 97 23 187t70 166.5t112 133.5t154.5 89t193.5 32zM582 746q-66 0 -117 -47.5t-76 -119t-25 -150.5q0 -88 40 -131t96 -43
q66 0 118 45.5t79 117t27 154.5q0 43 -9.5 76t-24 51t-35 29t-37.5 14.5t-36 3.5z" />
    <glyph glyph-name="p" unicode="p" horiz-adv-x="1133" 
d="M763 1021q101 0 174.5 -55.5t108.5 -147t35 -208.5q0 -131 -37.5 -248t-101 -200.5t-152.5 -132t-189 -48.5q-146 0 -235 71h-4l-56 -457h-308l173 1407h308l-20 -157h4q120 176 300 176zM534 255q57 0 103.5 30t75 78.5t44 107.5t15.5 120q0 67 -30 111.5t-81 44.5
q-90 0 -168.5 -107t-103.5 -291l-4 -32q46 -62 149 -62z" />
    <glyph glyph-name="q" unicode="q" horiz-adv-x="1126" 
d="M775 1002h308l-173 -1407h-308l71 572h-4q-56 -87 -130 -136.5t-162 -49.5q-105 0 -180 55t-110.5 146t-35.5 209q0 131 37.5 248.5t100.5 201t150.5 132t183.5 48.5q156 0 240 -94h3zM475 253q41 0 83.5 28t79.5 79.5t65 132t40 177.5v-5l1 7q-69 75 -167 75
q-49 0 -91 -31t-69 -80t-42 -107t-15 -114q0 -74 31.5 -118t83.5 -44z" />
    <glyph glyph-name="r" unicode="r" horiz-adv-x="714" 
d="M466 864q120 156 285 156l-43 -340q-115 41 -200 -44t-108 -270l-45 -366h-307l123 1002h307l-17 -138h5z" />
    <glyph glyph-name="s" unicode="s" horiz-adv-x="853" 
d="M161 332q44 -53 107 -86t121 -33q41 0 66 14.5t25 40.5q0 24 -25 41.5t-105 57.5q-16 9 -25 13q-123 62 -184 132.5t-61 173.5q0 98 50 175t134.5 118.5t186.5 41.5q105 0 200 -41t161 -120l-185 -176q-38 53 -84 76.5t-88 24.5q-33 1 -56.5 -16t-23.5 -45q0 -24 34 -49
t107 -61q52 -26 87.5 -47t71 -49.5t56 -58t33.5 -68t13 -84.5q1 -148 -106.5 -237t-289.5 -89q-112 0 -220 46t-172 126z" />
    <glyph glyph-name="t" unicode="t" horiz-adv-x="724" 
d="M563 290l50 -237q-129 -72 -270 -72q-60 0 -107 18t-81 55t-47.5 100t-3.5 147l54 452h-100l30 249h101l37 292l315 62l-44 -354h207l-30 -249h-208l-49 -411q-5 -41 7 -62t38 -21q39 0 101 31z" />
    <glyph glyph-name="u" unicode="u" horiz-adv-x="1086" 
d="M740 1002h307l-123 -1002h-307l18 148h-3q-118 -167 -298 -167q-58 0 -102 13t-79 42t-54 75t-26 113t5 155l75 623h306l-65 -531q-16 -122 -2 -168.5t67 -46.5q43 0 92 42t86.5 110.5t46.5 137.5z" />
    <glyph glyph-name="v" unicode="v" horiz-adv-x="1022" 
d="M385 -19q76 0 146 16.5t137 51.5t122.5 94t99.5 138.5t71.5 191t35.5 246.5q8 148 -16 283h-307q22 -152 12 -281q-9 -104 -30.5 -187.5t-48 -134t-58 -84t-59 -46.5t-51.5 -13q-48 0 -59.5 59t4.5 167l65 520h-305l-72 -583q-14 -97 -1 -177.5t48.5 -138.5t103 -90
t162.5 -32z" />
    <glyph glyph-name="w" unicode="w" horiz-adv-x="1466" 
d="M1426 1002q25 -145 13 -314q-8 -111 -31 -206t-56 -166.5t-76.5 -128.5t-91.5 -95t-103 -63.5t-110 -36.5t-112 -11q-196 0 -243 176h-5q-55 -90 -123 -133t-157 -43q-103 0 -168 54.5t-87 145.5t-7 212l75 609h305l-64 -523q-14 -106 -4.5 -164.5t47.5 -58.5
q48 0 100 81t71 228l53 437h296l-67 -544q-14 -109 -4.5 -155.5t46.5 -46.5q18 0 39.5 13t47.5 48t49 86t43 136.5t30 191.5q10 113 -13 271h307z" />
    <glyph glyph-name="x" unicode="x" horiz-adv-x="980" 
d="M1018 1002l-360 -496l241 -506h-329l-108 248h-6l-169 -248h-333l367 521l-234 481h338l91 -240h4l149 240h349z" />
    <glyph glyph-name="y" unicode="y" horiz-adv-x="1085" 
d="M739 1002h307l-107 -866q-68 -560 -567 -560q-203 0 -361 97l96 232q113 -77 250 -77q45 0 78.5 7t67 27.5t57.5 55t43.5 92t30.5 137.5h-4q-119 -166 -301 -166q-58 0 -102 13t-79 42t-54 75t-26 113t5 155l76 623h305l-64 -531q-16 -122 -2 -168.5t67 -46.5
q44 0 93.5 41.5t87 108.5t47.5 136z" />
    <glyph glyph-name="z" unicode="z" horiz-adv-x="908" 
d="M880 798l-453 -547v-6q222 -10 393 -61l-72 -241q-155 36 -329.5 46.5t-420.5 10.5l23 205l443 545l1 7h-339l30 245h747z" />
    <glyph glyph-name="braceleft" unicode="{" horiz-adv-x="678" 
d="M570 1505h168l-24 -198h-36q-30 0 -53.5 -14.5t-36 -37.5t-19 -43.5t-9.5 -40.5l-44 -351q-12 -93 -39.5 -144.5t-79.5 -77.5l-1 -6q18 -10 29 -18.5t22 -25t15 -39t4 -58.5t-6 -85l-41 -338q-5 -42 -3.5 -71.5t20 -45.5t58.5 -16h47l-25 -197h-158q-96 0 -155 77.5
t-44 198.5l44 358v4q7 31 6 58.5t-10.5 47.5t-41 32t-85.5 13l17 223q44 1 77 12.5t51 26.5t29.5 39.5t15.5 42.5t7 44l45 364q15 114 86 190t170 76z" />
    <glyph glyph-name="bar" unicode="|" horiz-adv-x="649" 
d="M326 1509h245l-214 -1744h-245z" />
    <glyph glyph-name="braceright" unicode="}" horiz-adv-x="679" 
d="M498 865q-3 -21 -4 -31t-0.5 -29.5t4.5 -29.5t13 -24t24 -21.5t39 -13t56 -6.5l-17 -223q-44 -1 -76.5 -10.5t-50.5 -23.5t-30 -38t-16 -43.5t-8 -50.5l-44 -358q-15 -120 -88 -192.5t-168 -72.5h-168l25 197h36q60 0 85 36t34 108l41 338q7 62 17 101t26 63t32 36t45 26
l1 6q-86 50 -65 221l43 352q17 125 -76 125h-46l24 198h158q67 0 116.5 -38t70.5 -101.5t12 -138.5z" />
    <glyph glyph-name="asciitilde" unicode="~" horiz-adv-x="1072" 
d="M84 476q52 122 131 196t174 74q14 0 28 -1.5t25 -3.5t25 -6.5l21.5 -7t21.5 -8.5l18.5 -8t17.5 -8.5l15 -7.5q42 -20 63.5 -27t45.5 -7q76 0 137 94l199 -80q-51 -126 -130.5 -204.5t-172.5 -78.5q-21 0 -40 2.5t-32.5 5t-29.5 8.5t-23.5 9.5l-22.5 11l-19 9.5
q-80 41 -118 41q-74 0 -135 -97z" />
    <glyph glyph-name="exclamdown" unicode="&#xa1;" horiz-adv-x="580" 
d="M324 662q-77 0 -128 50t-51 125q0 79 53 131t133 52q76 0 127 -50.5t51 -126.5q0 -78 -52.5 -129.5t-132.5 -51.5zM400 505l-71 -1012h-327l177 1012h221z" />
    <glyph glyph-name="cent" unicode="&#xa2;" horiz-adv-x="991" 
d="M514 365q50 0 91.5 22.5t85.5 74.5l239 -151q-126 -173 -318 -209l-23 -188h-236l23 189q-143 32 -223.5 141t-80.5 280q0 141 51 264.5t149.5 211.5t228.5 117l22 180h235l-21 -177q167 -34 250 -161l-235 -176q-48 74 -142 74q-64 0 -116.5 -44.5t-82 -118.5
t-29.5 -159q0 -47 12.5 -82t33 -53t42 -26.5t44.5 -8.5z" />
    <glyph glyph-name="sterling" unicode="&#xa3;" horiz-adv-x="1049" 
d="M878 1024q-33 52 -77 81t-81 29q-132 0 -159 -225l-8 -64h260l-26 -220h-257l-41 -334h487l-35 -291h-923l36 291h105l41 334h-91l26 220h91l11 90q13 107 44.5 191.5t74 139.5t97.5 91t112.5 51t122.5 15q114 0 211.5 -54t156.5 -150z" />
    <glyph glyph-name="currency" unicode="&#xa4;" horiz-adv-x="946" 
d="M854 843q0 -132 -70 -239l128 -163l-149 -138l-129 163q-81 -42 -176 -42q-90 0 -161 38l-156 -157l-124 137l160 161q-21 57 -21 125q0 145 74 260l-127 160l150 137l127 -158q80 41 169 41q92 0 165 -45l162 164l123 -139l-168 -169q23 -61 23 -136zM485 630
q70 0 116.5 55.5t46.5 131.5q0 66 -35 105.5t-90 39.5q-69 0 -115.5 -57.5t-46.5 -139.5q0 -61 33.5 -98t90.5 -37z" />
    <glyph glyph-name="yen" unicode="&#xa5;" horiz-adv-x="1128" 
d="M1247 1406l-338 -550h113l-16 -134h-179l-64 -104h230l-17 -135h-247l-61 -483h-334l61 483h-261l17 135h245l-38 104h-194l16 134h129l-201 550h373l131 -510l251 510h384z" />
    <glyph glyph-name="brokenbar" unicode="&#xa6;" horiz-adv-x="649" 
d="M326 1509h244l-88 -721h-245zM200 486h245l-88 -720h-245z" />
    <glyph glyph-name="section" unicode="&#xa7;" horiz-adv-x="1026" 
d="M665 902q11 -5 31 -16l48.5 -24l43.5 -23.5t41.5 -25.5l34.5 -26t31.5 -30l24 -33.5t19.5 -39.5t10.5 -45.5t4.5 -53.5q0 -98 -44.5 -173t-124.5 -123q71 -71 71 -196q0 -120 -56 -213t-155.5 -143.5t-226.5 -50.5q-126 0 -231.5 52t-176.5 152l190 197q46 -65 107.5 -98
t117.5 -33t85 30t29 70q0 41 -35 68.5t-142 82.5l-57 30t-52 31t-50.5 36.5t-41 42t-34 51.5t-20 61t-8.5 74q0 96 42.5 169.5t120.5 117.5q-74 80 -74 205q0 113 54 201t148.5 136t213.5 48q120 0 227.5 -48t167.5 -123l-184 -202q-109 96 -204 96q-52 0 -79 -24.5
t-27 -65.5q0 -37 31.5 -64.5t128.5 -76.5zM391 579q0 -42 30 -72.5t107 -66.5q24 -10 45 -21q41 14 61.5 45t20.5 71t-29.5 68t-121.5 70q-7 3 -18.5 8.5l-15.5 7.5q-38 -10 -58.5 -40.5t-20.5 -69.5z" />
    <glyph glyph-name="dieresis" unicode="&#xa8;" horiz-adv-x="987" 
d="M370 1439q81 0 132.5 -49.5t51.5 -125.5q0 -79 -53.5 -131t-137.5 -52q-81 0 -132.5 50.5t-51.5 126.5q0 79 53.5 130t137.5 51zM814 1439q81 0 132.5 -49.5t51.5 -125.5q0 -79 -53.5 -131t-137.5 -52q-81 0 -132.5 50.5t-51.5 126.5q0 79 53.5 130t137.5 51z" />
    <glyph glyph-name="copyright" unicode="&#xa9;" horiz-adv-x="1469" 
d="M735 1312q136 0 258 -53t208.5 -142t137.5 -211t51 -255q0 -132 -51.5 -253.5t-138.5 -211t-210 -143t-259 -53.5t-258 53t-208.5 142t-137.5 211t-51 255t51.5 254.5t138.5 211t210 142.5t259 53zM1193 651q0 127 -60 233.5t-165.5 169t-233.5 62.5q-129 0 -235.5 -63
t-166.5 -170.5t-60 -234.5t60 -233t165.5 -168t233.5 -62q97 0 183 37t147 100t96.5 149t35.5 180zM751 479q39 0 77.5 19t62.5 49l126 -110q-46 -55 -114 -89t-152 -34q-70 0 -131 21.5t-108 62t-74.5 105t-27.5 144.5q0 93 38.5 168t117 121t185.5 46q73 0 143 -31
t123 -96l-126 -107q-26 28 -62.5 48.5t-77.5 20.5q-68 0 -113.5 -45.5t-45.5 -124.5q0 -72 43 -120t116 -48z" />
    <glyph glyph-name="guillemotleft" unicode="&#xab;" horiz-adv-x="1003" 
d="M502 94h-282l-158 412l264 420h281l-262 -420zM924 95h-282l-158 412l264 419h281l-262 -419z" />
    <glyph glyph-name="logicalnot" unicode="&#xac;" horiz-adv-x="1019" 
d="M907 288h-261l41 335h-587l31 257h848z" />
    <glyph glyph-name="registered" unicode="&#xae;" horiz-adv-x="1480" 
d="M741 1318q137 0 260 -53.5t210 -143.5t138.5 -213t51.5 -257q0 -133 -51.5 -255.5t-139.5 -213t-212 -144t-261 -53.5q-136 0 -259 53.5t-211 143t-139.5 212.5t-51.5 257q0 133 52 256t140 213t212 144t261 54zM737 179q97 0 184 37.5t148.5 101t97.5 150.5t36 183
q0 129 -60.5 237t-167 171t-235.5 63q-99 0 -186.5 -37.5t-149 -101.5t-97 -151.5t-35.5 -183.5q0 -128 60.5 -235.5t167.5 -170.5t237 -63zM1001 753q0 -145 -117 -199l150 -230h-197l-127 205h-45v-205h-168v663h264q119 0 179.5 -64t60.5 -170zM666 834v-155h57
q46 0 73 20.5t27 57.5q0 33 -26 55t-73 22h-58z" />
    <glyph glyph-name="macron" unicode="&#xaf;" horiz-adv-x="804" 
d="M219 1378h584l-29 -236h-584z" />
    <glyph glyph-name="degree" unicode="&#xb0;" horiz-adv-x="729" 
d="M482 1472q109 0 176 -67.5t67 -181.5q0 -86 -38 -159t-110.5 -118t-164.5 -45q-114 0 -177.5 64t-63.5 170q0 140 88.5 238.5t222.5 98.5zM462 1299q-48 0 -80 -39.5t-32 -99.5q0 -39 22 -62t61 -23q47 0 79 38t32 92q0 42 -22.5 68t-59.5 26z" />
    <glyph glyph-name="plusminus" unicode="&#xb1;" horiz-adv-x="1103" 
d="M1026 731h-311l-43 -355h-262l44 355h-310l32 260h309l45 359h261l-44 -359h312zM935 1h-882l32 260h883z" />
    <glyph glyph-name="acute" unicode="&#xb4;" horiz-adv-x="897" 
d="M543 1396l311 2l-265 -306h-286z" />
    <glyph glyph-name="uni00B5" unicode="&#xb5;" horiz-adv-x="1156" 
d="M1066 245l36 -209q-85 -55 -195 -55q-193 0 -221 172h-5q-95 -172 -236 -172q-75 0 -121 48l-7 -5q19 -146 5 -257l-21 -172h-304l173 1407h305l-71 -574q-14 -172 86 -172q60 0 112.5 58.5t72.5 177.5l62 510h308l-81 -664q-7 -57 2.5 -77t43.5 -20q22 0 56 4z" />
    <glyph glyph-name="paragraph" unicode="&#xb6;" horiz-adv-x="948" 
d="M613 1387h305l-171 -1387h-360l71 577q-160 8 -257.5 95.5t-97.5 238.5q0 96 34 181.5t97.5 151.5t161.5 104.5t217 38.5z" />
    <glyph glyph-name="periodcentered" unicode="&#xb7;" horiz-adv-x="561" 
d="M320 677q77 0 128 -50t51 -125q0 -79 -53 -131t-133 -52q-76 0 -127 50.5t-51 126.5q0 78 52.5 129.5t132.5 51.5z" />
    <glyph glyph-name="cedilla" unicode="&#xb8;" horiz-adv-x="586" 
d="M229 -63q156 -6 156 -136q0 -92 -69.5 -143.5t-187.5 -51.5q-58 0 -119 13l6 125q33 -12 85 -12q47 0 74.5 18t27.5 50q0 26 -32 38t-101 12l3 77l52 85h159l-55 -74z" />
    <glyph glyph-name="guillemotright" unicode="&#xbb;" horiz-adv-x="1009" 
d="M-24 94l262 412l-162 420h283l162 -420l-260 -412h-285zM406 94l262 412l-162 420h283l162 -420l-260 -412h-285z" />
    <glyph glyph-name="onequarter" unicode="&#xbc;" horiz-adv-x="1537" 
d="M1062 1492l217 -100l-760 -1444l-218 100zM471 612h-228l69 547l-103 -71l-95 176l283 192h178zM1406 321h94l-24 -196h-94l-15 -125h-230l16 125h-284l15 138l405 580h181zM1098 300h114l31 229z" />
    <glyph glyph-name="onehalf" unicode="&#xbd;" horiz-adv-x="1611" 
d="M1062 1492l217 -100l-760 -1444l-218 100zM471 612h-228l69 547l-103 -71l-95 176l283 192h178zM1333 212l-1 -4h218l-26 -208h-546l14 153l249 261q57 60 87 103t30 83q0 21 -12 32.5t-32 11.5q-52 0 -104 -71l-161 130q48 69 124.5 112.5t171.5 43.5q110 0 179 -61
t69 -163q0 -94 -38.5 -164t-122.5 -157z" />
    <glyph glyph-name="threequarters" unicode="&#xbe;" horiz-adv-x="1582" 
d="M1102 1492l217 -100l-760 -1444l-218 100zM649 873q0 -126 -86.5 -202t-218.5 -76q-112 0 -189.5 60.5t-96.5 151.5l208 71q7 -82 65 -82q37 0 60 30.5t23 74.5q0 54 -66 54h-49l21 168h53q31 0 54 30.5t23 66.5q0 22 -11.5 34.5t-29.5 12.5q-24 0 -45.5 -18.5
t-33.5 -54.5l-181 112q33 70 109.5 117t165.5 47q111 0 178.5 -55t67.5 -155q0 -68 -30.5 -123t-85.5 -91l-1 -4q96 -54 96 -169zM1452 321h94l-24 -196h-94l-15 -125h-230l16 125h-284l15 138l405 580h181zM1144 300h114l31 229z" />
    <glyph glyph-name="questiondown" unicode="&#xbf;" horiz-adv-x="841" 
d="M543 662q-77 0 -128 50t-51 125q0 79 53 131t133 52q76 0 127 -50.5t51 -126.5q0 -78 -52.5 -129.5t-132.5 -51.5zM595 -146q-79 -95 -163 -95q-49 0 -75.5 31t-26.5 87q0 66 33.5 120.5t100.5 124.5l62.5 67.5t49 57.5t41.5 59t24.5 55t14.5 63l8 88h-271l-19 -89
q-10 -48 -47.5 -93t-113.5 -114q-48 -44 -84 -85.5t-67.5 -92.5t-48.5 -109t-17 -120q0 -81 28.5 -145.5t78.5 -105.5t116 -62.5t142 -21.5q128 0 241.5 53t178.5 140z" />
    <glyph glyph-name="Agrave" unicode="&#xc0;" 
d="M915 1600h-282l-190 306l307 -2zM879 0l-43 269h-434l-109 -269h-345l656 1455h316l299 -1455h-340zM515 547h277l-77 483h-5z" />
    <glyph glyph-name="Aacute" unicode="&#xc1;" 
d="M1209 1906l-265 -306h-286l240 304zM879 0l-43 269h-434l-109 -269h-345l656 1455h316l299 -1455h-340zM515 547h277l-77 483h-5z" />
    <glyph glyph-name="Acircumflex" unicode="&#xc2;" 
d="M806 1748l-85 -153h-272l235 311h269l172 -311h-266l-48 153h-5zM879 0l-43 269h-434l-109 -269h-345l656 1455h316l299 -1455h-340zM515 547h277l-77 483h-5z" />
    <glyph glyph-name="Atilde" unicode="&#xc3;" 
d="M713 1685q-36 0 -67 -28.5t-54 -75.5l-172 86q46 113 114.5 179.5t150.5 66.5q17 0 32.5 -1.5t29 -6l23 -7.5t21.5 -10t17 -10.5l16.5 -11.5t13.5 -9q22 -15 33 -21.5t26 -12t28 -5.5q36 0 68 28t54 74l171 -70q-45 -121 -112.5 -192t-147.5 -71q-11 0 -22.5 1t-20 2.5
t-19 5l-17 5.5t-16.5 7.5t-14 7.5t-13.5 8.5t-12 8t-12 8t-10.5 7.5q-52 37 -88 37zM879 0l-43 269h-434l-109 -269h-345l656 1455h316l299 -1455h-340zM515 547h277l-77 483h-5z" />
    <glyph glyph-name="Adieresis" unicode="&#xc4;" 
d="M584 1589q-81 0 -132.5 50.5t-51.5 126.5q0 79 53.5 130t137.5 51q81 0 132.5 -49.5t51.5 -125.5q0 -79 -53.5 -131t-137.5 -52zM1028 1589q-81 0 -132.5 50.5t-51.5 126.5q0 79 53.5 130t137.5 51q81 0 132.5 -49.5t51.5 -125.5q0 -79 -53.5 -131t-137.5 -52zM604 1455
h316l299 -1455h-340l-43 269h-434l-109 -269h-345zM515 547h277l-77 483h-5z" />
    <glyph glyph-name="Aring" unicode="&#xc5;" 
d="M810 1556q-91 0 -152.5 61.5t-61.5 152.5q0 93 63 155t158 62q91 0 152.5 -60t61.5 -150q0 -94 -63.5 -157.5t-157.5 -63.5zM815 1847q-33 0 -54.5 -22t-21.5 -54t21 -52.5t53 -20.5t54 22t22 54q0 30 -21.5 51.5t-52.5 21.5zM879 0l-43 269h-434l-109 -269h-345
l656 1455h316l299 -1455h-340zM515 547h277l-77 483h-5z" />
    <glyph glyph-name="AE" unicode="&#xc6;" horiz-adv-x="1765" 
d="M1731 1162h-548l-36 -297h439l-36 -285h-438l-36 -288h586l-36 -292h-903l33 269h-331l-141 -269h-350l799 1455h1034zM570 547h221l66 542h-4z" />
    <glyph glyph-name="Ccedilla" unicode="&#xc7;" horiz-adv-x="1334" 
d="M710 295q88 0 166.5 40t136.5 111l231 -214q-96 -112 -227 -177.5t-288 -72.5l-33 -44l1 -1q156 -6 156 -136q0 -92 -69.5 -143.5t-187.5 -51.5q-58 0 -119 13l6 125q33 -12 85 -12q47 0 74.5 18.5t27.5 49.5q0 26 -32 38t-101 12l3 77l36 59l-1 3q-105 16 -191.5 62
t-150.5 121.5t-99 186t-35 247.5q0 140 36 271t104 238.5t160 188.5t210.5 125.5t248.5 44.5q331 0 517 -305l-262 -196q-101 186 -269 186q-70 0 -134 -31.5t-111.5 -85t-83 -122.5t-53.5 -148t-18 -157q0 -155 70.5 -237.5t195.5 -82.5z" />
    <glyph glyph-name="Egrave" unicode="&#xc8;" horiz-adv-x="1112" 
d="M759 1901l165 -304h-282l-190 306zM1009 292l-36 -292h-901l178 1455h863l-35 -293h-543l-37 -297h427l-35 -288h-427l-35 -285h581z" />
    <glyph glyph-name="Eacute" unicode="&#xc9;" horiz-adv-x="1112" 
d="M730 1901l311 2l-265 -306h-286zM1009 292l-36 -292h-901l178 1455h863l-35 -293h-543l-37 -297h427l-35 -288h-427l-35 -285h581z" />
    <glyph glyph-name="Ecircumflex" unicode="&#xca;" horiz-adv-x="1112" 
d="M726 1745l-85 -153h-272l235 311h269l172 -311h-266l-48 153h-5zM1078 1162h-543l-37 -297h427l-35 -288h-427l-35 -285h581l-36 -292h-901l178 1455h863z" />
    <glyph glyph-name="Edieresis" unicode="&#xcb;" horiz-adv-x="1112" 
d="M511 1944q81 0 132.5 -49.5t51.5 -125.5q0 -79 -53.5 -131t-137.5 -52q-81 0 -132.5 50.5t-51.5 126.5q0 79 53.5 130t137.5 51zM955 1944q81 0 132.5 -49.5t51.5 -125.5q0 -79 -53.5 -131t-137.5 -52q-81 0 -132.5 50.5t-51.5 126.5q0 79 53.5 130t137.5 51zM1009 292
l-36 -292h-901l178 1455h863l-35 -293h-543l-37 -297h427l-35 -288h-427l-35 -285h581z" />
    <glyph glyph-name="Igrave" unicode="&#xcc;" horiz-adv-x="621" 
d="M411 1902l165 -304h-282l-190 306zM415 0h-332l178 1455h333z" />
    <glyph glyph-name="Iacute" unicode="&#xcd;" horiz-adv-x="621" 
d="M541 1902l311 2l-265 -306h-286zM415 0h-332l178 1455h333z" />
    <glyph glyph-name="Icircumflex" unicode="&#xce;" horiz-adv-x="621" 
d="M458 1745l-85 -153h-272l235 311h269l172 -311h-266l-48 153h-5zM83 0l178 1455h333l-179 -1455h-332z" />
    <glyph glyph-name="Idieresis" unicode="&#xcf;" horiz-adv-x="621" 
d="M243 1944q81 0 132.5 -49.5t51.5 -125.5q0 -79 -53.5 -131t-137.5 -52q-81 0 -132.5 50.5t-51.5 126.5q0 79 53.5 130t137.5 51zM687 1944q81 0 132.5 -49.5t51.5 -125.5q0 -79 -53.5 -131t-137.5 -52q-81 0 -132.5 50.5t-51.5 126.5q0 79 53.5 130t137.5 51zM415 0h-332
l178 1455h333z" />
    <glyph glyph-name="Eth" unicode="&#xd0;" horiz-adv-x="1351" 
d="M714 1455q148 0 262.5 -42.5t188.5 -122t111.5 -190.5t37.5 -251q0 -188 -54.5 -344.5t-154.5 -268.5t-248.5 -174t-330.5 -62h-450l70 576h-93l34 275h93l74 604h460zM564 292q99 0 177.5 43t129 118.5t77 175t26.5 215.5q0 154 -73.5 236t-223.5 82h-137l-38 -311h153
l-35 -275h-152l-35 -284h131z" />
    <glyph glyph-name="Ntilde" unicode="&#xd1;" horiz-adv-x="1403" 
d="M771 1684q-36 0 -67 -28.5t-54 -75.5l-172 86q46 113 114.5 179.5t150.5 66.5q17 0 32.5 -1.5t29 -6l23 -7.5t21.5 -10t17 -10.5l16.5 -11.5t13.5 -9q22 -15 33 -21.5t26 -12t28 -5.5q36 0 68 28t54 74l171 -70q-45 -121 -112.5 -192t-147.5 -71q-11 0 -22.5 1t-20 2.5
t-19 5l-17 5.5t-16.5 7.5t-14 7.5t-13.5 8.5t-12 8t-12 8t-10.5 7.5q-52 37 -88 37zM1059 1455h327l-179 -1455h-338l-360 860h-3l-106 -860h-327l178 1455h329l366 -883h5z" />
    <glyph glyph-name="Ograve" unicode="&#xd2;" horiz-adv-x="1504" 
d="M899 1903l165 -304h-282l-190 306zM869 1474q132 0 241.5 -41.5t187 -119.5t120.5 -193.5t43 -258.5q0 -144 -33 -275.5t-98.5 -241.5t-157 -191t-216 -126.5t-267.5 -45.5q-133 0 -242.5 41.5t-186.5 119.5t-119.5 195t-42.5 262q0 138 34.5 268t102 239.5t160 192
t215 129t259.5 46.5zM714 287q117 0 210 75t144 201.5t51 277.5q0 163 -76.5 245t-205.5 82q-83 0 -158 -46.5t-127 -122.5t-82.5 -175.5t-30.5 -204.5q0 -164 75.5 -248t199.5 -84z" />
    <glyph glyph-name="Oacute" unicode="&#xd3;" horiz-adv-x="1504" 
d="M989 1903l311 2l-265 -306h-286zM869 1474q132 0 241.5 -41.5t187 -119.5t120.5 -193.5t43 -258.5q0 -144 -33 -275.5t-98.5 -241.5t-157 -191t-216 -126.5t-267.5 -45.5q-133 0 -242.5 41.5t-186.5 119.5t-119.5 195t-42.5 262q0 138 34.5 268t102 239.5t160 192
t215 129t259.5 46.5zM714 287q117 0 210 75t144 201.5t51 277.5q0 163 -76.5 245t-205.5 82q-84 0 -158.5 -46.5t-126.5 -122.5t-82.5 -175.5t-30.5 -204.5q0 -164 75.5 -248t199.5 -84z" />
    <glyph glyph-name="Ocircumflex" unicode="&#xd4;" horiz-adv-x="1504" 
d="M960 1747l-85 -153h-272l235 311h269l172 -311h-266l-48 153h-5zM869 1474q132 0 241.5 -41.5t187 -119.5t120.5 -193.5t43 -258.5q0 -144 -33 -275.5t-98.5 -241.5t-157 -191t-216 -126.5t-267.5 -45.5q-133 0 -242.5 41.5t-186.5 119.5t-119.5 195t-42.5 262
q0 138 34.5 268t102 239.5t160 192t215 129t259.5 46.5zM714 287q117 0 210 75t144 201.5t51 277.5q0 163 -76.5 245t-205.5 82q-83 0 -158 -46.5t-127 -122.5t-82.5 -175.5t-30.5 -204.5q0 -164 75.5 -248t199.5 -84z" />
    <glyph glyph-name="Otilde" unicode="&#xd5;" horiz-adv-x="1504" 
d="M574 1666q46 113 114.5 179.5t150.5 66.5q17 0 32.5 -1.5t29 -6l23 -7.5t21.5 -10t17 -10.5l16.5 -11.5t13.5 -9q22 -15 33 -21.5t26 -12t28 -5.5q36 0 68 28t54 74l171 -70q-45 -121 -112.5 -192t-147.5 -71q-11 0 -22.5 1t-20 2.5t-19 5l-17 5.5t-16.5 7.5t-14 7.5
t-13.5 8.5t-12 8t-12 8t-10.5 7.5q-52 37 -88 37t-67 -28.5t-54 -75.5zM869 1474q132 0 241.5 -41.5t187 -119.5t120.5 -193.5t43 -258.5q0 -144 -33 -275.5t-98.5 -241.5t-157 -191t-215.5 -126.5t-268 -45.5q-133 0 -242.5 41.5t-186.5 119.5t-119.5 195t-42.5 262
q0 138 34.5 268t102 239.5t160 192t215 129t259.5 46.5zM714 287q117 0 210.5 75t144 201.5t50.5 277.5q0 163 -76.5 245t-205.5 82q-83 0 -158 -46.5t-127 -122.5t-82.5 -175.5t-30.5 -204.5q0 -164 75.5 -248t199.5 -84z" />
    <glyph glyph-name="Odieresis" unicode="&#xd6;" horiz-adv-x="1504" 
d="M745 1946q81 0 132.5 -49.5t51.5 -125.5q0 -79 -53.5 -131t-137.5 -52q-81 0 -132.5 50.5t-51.5 126.5q0 79 53.5 130t137.5 51zM1189 1946q81 0 132.5 -49.5t51.5 -125.5q0 -79 -53.5 -131t-137.5 -52q-81 0 -132.5 50.5t-51.5 126.5q0 79 53.5 130t137.5 51zM869 1474
q132 0 241.5 -41.5t187 -119.5t120.5 -193.5t43 -258.5q0 -144 -33 -275.5t-98.5 -241.5t-157 -191t-216 -126.5t-267.5 -45.5q-133 0 -242.5 41.5t-186.5 119.5t-119.5 195t-42.5 262q0 138 34.5 268t102 239.5t160 192t215 129t259.5 46.5zM714 287q117 0 210 75
t144 201.5t51 277.5q0 163 -76.5 245t-205.5 82q-84 0 -158.5 -46.5t-126.5 -122.5t-82.5 -175.5t-30.5 -204.5q0 -164 75.5 -248t199.5 -84z" />
    <glyph glyph-name="multiply" unicode="&#xd7;" horiz-adv-x="997" 
d="M693 113l-204 271l-270 -270l-165 184l271 271l-204 271l202 182l202 -271l270 273l166 -184l-271 -273l203 -273z" />
    <glyph glyph-name="Oslash" unicode="&#xd8;" horiz-adv-x="1507" 
d="M1522 1390l-154 -163q96 -150 96 -366q0 -144 -33 -275.5t-98.5 -241.5t-157 -191t-216 -126.5t-267.5 -45.5q-232 0 -384 121l-163 -173l-127 128l171 182q-88 147 -88 360q0 138 34.5 268t102 239.5t160 192t215 129t259.5 46.5q224 0 376 -115l146 155zM442 619
q0 -57 9 -103l565 597q-70 55 -176 55q-84 0 -158.5 -46.5t-126.5 -122.5t-82.5 -175.5t-30.5 -204.5zM1122 841q0 62 -12 112l-570 -605q70 -61 177 -61q117 0 210 75t144 201.5t51 277.5z" />
    <glyph glyph-name="Ugrave" unicode="&#xd9;" horiz-adv-x="1329" 
d="M751 1903l165 -304h-282l-190 306zM1224 601q-20 -168 -69 -287.5t-127.5 -192.5t-181.5 -106.5t-239 -33.5q-245 0 -363.5 134.5t-118.5 382.5q0 64 10 152l100 805h327l-99 -803q-8 -69 -8 -122q0 -242 176 -242q76 0 128.5 29t88 101t50.5 191l104 846h327z" />
    <glyph glyph-name="Uacute" unicode="&#xda;" horiz-adv-x="1329" 
d="M880 1903l311 2l-265 -306h-286zM1224 601q-20 -168 -69 -287.5t-127.5 -192.5t-181.5 -106.5t-239 -33.5q-245 0 -363.5 134.5t-118.5 382.5q0 64 10 152l100 805h327l-99 -803q-8 -69 -8 -122q0 -242 176 -242q76 0 128.5 29t88 101t50.5 191l104 846h327z" />
    <glyph glyph-name="Ucircumflex" unicode="&#xdb;" horiz-adv-x="1329" 
d="M822 1747l-85 -153h-272l235 311h269l172 -311h-266l-48 153h-5zM1002 1455h327l-105 -854q-20 -168 -69 -287.5t-127.5 -192.5t-181.5 -106.5t-239 -33.5q-245 0 -363.5 134.5t-118.5 382.5q0 64 10 152l100 805h327l-99 -803q-8 -69 -8 -122q0 -242 176 -242
q76 0 128.5 29t88 101t50.5 191z" />
    <glyph glyph-name="Udieresis" unicode="&#xdc;" horiz-adv-x="1329" 
d="M607 1946q81 0 132.5 -49.5t51.5 -125.5q0 -79 -53.5 -131t-137.5 -52q-81 0 -132.5 50.5t-51.5 126.5q0 79 53.5 130t137.5 51zM1051 1946q81 0 132.5 -49.5t51.5 -125.5q0 -79 -53.5 -131t-137.5 -52q-81 0 -132.5 50.5t-51.5 126.5q0 79 53.5 130t137.5 51zM1224 601
q-20 -168 -69 -287.5t-127.5 -192.5t-181.5 -106.5t-239 -33.5q-245 0 -363.5 134.5t-118.5 382.5q0 64 10 152l100 805h327l-99 -803q-8 -69 -8 -122q0 -242 176 -242q76 0 128.5 29t88 101t50.5 191l104 846h327z" />
    <glyph glyph-name="Yacute" unicode="&#xdd;" horiz-adv-x="1181" 
d="M1129 1905l-265 -306h-286l240 304zM921 1455h382l-530 -820l-80 -635h-332l80 635l-325 820h365l159 -500h6z" />
    <glyph glyph-name="Thorn" unicode="&#xde;" horiz-adv-x="1205" 
d="M424 235l-29 -235h-322l178 1455h323l-30 -241h221q106 0 186.5 -30t130 -84.5t74 -127t24.5 -161.5q0 -128 -38.5 -234t-111.5 -182t-183 -118t-248 -42h-175zM616 523q101 0 162 70.5t61 180.5q0 75 -43 112.5t-109 37.5h-177l-50 -401h156z" />
    <glyph glyph-name="germandbls" unicode="&#xdf;" horiz-adv-x="1290" 
d="M1247 310q0 -79 -29.5 -142.5t-81 -103.5t-118.5 -61.5t-144 -21.5q-114 0 -216 45t-167 127l173 178q47 -57 98.5 -86t99.5 -29q38 0 64 16.5t26 45.5q0 10 -2.5 18t-10 16t-14 14t-21 14.5l-25 14.5l-31 17.5l-34.5 19.5q-51 29 -87.5 55t-71.5 62t-53.5 80t-18.5 95
q0 40 11 75.5t33.5 68.5t41.5 55t52.5 56t48.5 51q79 90 79 162q0 55 -41.5 84t-110.5 29q-91 0 -145 -53.5t-67 -159.5l-129 -1052h-308l133 1080q55 447 511 447q136 0 238 -38t161.5 -118.5t59.5 -195.5q0 -66 -22 -122.5t-55 -98t-89 -92.5q-5 -5 -17.5 -16l-17 -15
l-14.5 -13.5t-14 -14.5t-11 -13t-9.5 -13.5t-6.5 -13t-5 -14.5t-1 -15q0 -29 23 -53.5t78 -57.5l45.5 -27.5l44 -26.5l39 -25t37 -28l30 -29.5t26.5 -34.5t18.5 -39.5t13 -48t3.5 -54.5z" />
    <glyph glyph-name="agrave" unicode="&#xe0;" horiz-adv-x="1124" 
d="M840 1141h-282l-190 306l307 -2zM775 1002h308l-123 -1002h-308l21 164h-5q-56 -86 -129.5 -134.5t-160.5 -48.5q-105 0 -180 55t-110.5 146t-35.5 209q0 131 37.5 248.5t100.5 201t150.5 132t183.5 48.5q152 0 237 -90h6zM476 253q41 0 83.5 28t79.5 79.5t65 132
t40 177.5v3q-69 74 -166 74q-49 0 -91 -31t-69 -80t-42 -107t-15 -114q0 -74 31.5 -118t83.5 -44z" />
    <glyph glyph-name="aacute" unicode="&#xe1;" horiz-adv-x="1124" 
d="M1034 1447l-265 -306h-286l240 304zM775 1002h308l-123 -1002h-308l21 164h-5q-56 -86 -129.5 -134.5t-160.5 -48.5q-105 0 -180 55t-110.5 146t-35.5 209q0 131 37.5 248.5t100.5 201t150.5 132t183.5 48.5q152 0 237 -90h6zM476 253q88 0 166.5 113t101.5 304v3
q-69 74 -166 74q-49 0 -91 -31t-69 -79.5t-42 -107t-15 -114.5q0 -74 31.5 -118t83.5 -44z" />
    <glyph glyph-name="acircumflex" unicode="&#xe2;" horiz-adv-x="1124" 
d="M671 1287l-85 -153h-272l235 311h269l172 -311h-266l-48 153h-5zM775 1002h308l-123 -1002h-308l21 164h-5q-56 -86 -129.5 -134.5t-160.5 -48.5q-105 0 -180 55t-110.5 146t-35.5 209q0 131 37.5 248.5t100.5 201t150.5 132t183.5 48.5q152 0 237 -90h6zM476 253
q41 0 83.5 28t79.5 79.5t65 132t40 177.5v3q-69 74 -166 74q-49 0 -91 -31t-69 -80t-42 -107t-15 -114q0 -74 31.5 -118t83.5 -44z" />
    <glyph glyph-name="atilde" unicode="&#xe3;" horiz-adv-x="1124" 
d="M578 1224q-36 0 -67 -28.5t-54 -75.5l-172 86q46 113 114.5 179.5t150.5 66.5q17 0 32.5 -1.5t29 -6l23 -7.5t21.5 -10t17 -10.5l16.5 -11.5t13.5 -9q22 -15 33 -21.5t26 -12t28 -5.5q36 0 68 28t54 74l171 -70q-45 -121 -112.5 -192t-147.5 -71q-11 0 -22.5 1t-20 2.5
t-19 5l-17 5.5t-16.5 7.5t-14 7.5t-13.5 8.5t-12 8t-12 8t-10.5 7.5q-52 37 -88 37zM767 931l8 71h308l-123 -1002h-308l21 164h-5q-56 -86 -129.5 -134.5t-160.5 -48.5q-105 0 -180 55t-110.5 146t-35.5 209q0 131 37.5 248.5t100.5 201t150.5 132t183.5 48.5
q152 0 237 -90h6zM476 253q88 0 166.5 113t101.5 304v3q-69 74 -166 74q-49 0 -91 -31t-69 -79.5t-42 -107t-15 -114.5q0 -74 31.5 -118t83.5 -44z" />
    <glyph glyph-name="adieresis" unicode="&#xe4;" horiz-adv-x="1124" 
d="M449 1128q-81 0 -132.5 50.5t-51.5 126.5q0 79 53.5 130t137.5 51q81 0 132.5 -49.5t51.5 -125.5q0 -79 -53.5 -131t-137.5 -52zM893 1128q-81 0 -132.5 50.5t-51.5 126.5q0 79 53.5 130t137.5 51q81 0 132.5 -49.5t51.5 -125.5q0 -79 -53.5 -131t-137.5 -52zM767 931
l8 71h308l-123 -1002h-308l21 164h-5q-56 -86 -129.5 -134.5t-160.5 -48.5q-105 0 -180 55t-110.5 146t-35.5 209q0 131 37.5 248.5t100.5 201t150.5 132t183.5 48.5q152 0 237 -90h6zM476 253q41 0 83.5 28t79.5 79.5t65 132t40 177.5v3q-69 74 -166 74q-49 0 -91 -31
t-69 -80t-42 -107t-15 -114q0 -74 31.5 -118t83.5 -44z" />
    <glyph glyph-name="aring" unicode="&#xe5;" horiz-adv-x="1124" 
d="M675 1095q-91 0 -152.5 61.5t-61.5 152.5q0 93 63 155t158 62q91 0 152.5 -60t61.5 -150q0 -94 -63.5 -157.5t-157.5 -63.5zM680 1386q-33 0 -54.5 -22t-21.5 -54t21 -52.5t53 -20.5t54 22t22 54q0 30 -21.5 51.5t-52.5 21.5zM775 1002h308l-123 -1002h-308l21 164h-5
q-56 -86 -129.5 -134.5t-160.5 -48.5q-105 0 -180 55t-110.5 146t-35.5 209q0 131 37.5 248.5t100.5 201t150.5 132t183.5 48.5q152 0 237 -90h6zM476 253q41 0 83.5 28t79.5 79.5t65 132t40 177.5v3q-69 74 -166 74q-49 0 -91 -31t-69 -80t-42 -107t-15 -114
q0 -74 31.5 -118t83.5 -44z" />
    <glyph glyph-name="ae" unicode="&#xe6;" horiz-adv-x="1396" 
d="M967 235q37 0 81 22.5t82 76.5l226 -136q-148 -216 -416 -216q-118 0 -202 50t-129 144h-4q-111 -191 -291 -194q-129 -3 -209.5 93.5t-80.5 266.5q0 132 44 250.5t121 206.5t190 140t244 52q102 0 185 -39h8q109 68 248 68q64 0 122.5 -16t106.5 -47.5t76.5 -84.5
t28.5 -121q0 -66 -29.5 -124t-80.5 -102t-124 -81.5t-153.5 -64t-176.5 -47.5q18 -48 55 -72.5t78 -24.5zM1103 712q0 22 -17.5 37.5t-49.5 15.5q-61 0 -118.5 -63.5t-82.5 -166.5l10 -8q60 18 103 35.5t80 40t56 50t19 59.5zM403 243q30 0 57 25.5t48.5 70.5t38 98.5
t29.5 117.5q17 97 54 177h-16q-86 0 -151.5 -54t-98 -138.5t-31.5 -183.5q1 -54 19.5 -83.5t50.5 -29.5z" />
    <glyph glyph-name="ccedilla" unicode="&#xe7;" horiz-adv-x="974" 
d="M499 255q93 0 174 97l239 -150q-149 -207 -397 -220l-33 -44l1 -1q156 -6 156 -136q0 -92 -69.5 -143.5t-187.5 -51.5q-58 0 -119 13l6 125q33 -12 85 -12q47 0 74.5 18.5t27.5 49.5q0 26 -32 38t-101 12l3 77l37 61v4q-147 30 -228 139t-81 286q0 96 24 186t72 165.5
t113.5 132t154 88.5t188.5 32q120 0 214 -44.5t149 -128.5l-235 -175q-47 74 -146 74q-63 0 -115 -44.5t-80.5 -117t-28.5 -155.5q0 -95 40.5 -135t94.5 -40z" />
    <glyph glyph-name="egrave" unicode="&#xe8;" horiz-adv-x="966" 
d="M779 1141h-282l-190 306l307 -2zM496 235q105 0 183 101l228 -134q-80 -111 -185 -165.5t-250 -54.5q-197 0 -308.5 112.5t-111.5 314.5q0 97 24 188t71 167.5t112.5 134t154 90t189.5 32.5q64 0 123.5 -17.5t108.5 -51.5t78.5 -90t29.5 -126q0 -67 -31 -124t-84 -99
t-127 -76t-154.5 -55.5t-172.5 -35.5l-13 -18q19 -46 56 -69.5t79 -23.5zM580 764q-70 0 -130.5 -57t-87.5 -157l13 -9q274 50 274 166q0 25 -18.5 41t-50.5 16z" />
    <glyph glyph-name="eacute" unicode="&#xe9;" horiz-adv-x="966" 
d="M1007 1447l-265 -306h-286l240 304zM943 736q0 -67 -31 -124t-84 -99t-127 -76t-154.5 -55.5t-172.5 -35.5l-13 -18q19 -46 56 -69.5t79 -23.5q105 0 183 101l228 -134q-80 -111 -185 -165.5t-250 -54.5q-197 0 -308.5 112.5t-111.5 314.5q0 97 24 188t71 167.5
t112.5 134t154 90t189.5 32.5q64 0 123.5 -17.5t108.5 -51.5t78.5 -90t29.5 -126zM580 764q-70 0 -130.5 -57t-87.5 -157l13 -9q274 50 274 166q0 25 -18.5 41t-50.5 16z" />
    <glyph glyph-name="ecircumflex" unicode="&#xea;" horiz-adv-x="966" 
d="M636 1287l-85 -153h-272l235 311h269l172 -311h-266l-48 153h-5zM943 736q0 -67 -31 -124t-84 -99t-127 -76t-154.5 -55.5t-172.5 -35.5l-13 -18q19 -46 56 -69.5t79 -23.5q105 0 183 101l228 -134q-80 -111 -185 -165.5t-250 -54.5q-197 0 -308.5 112.5t-111.5 314.5
q0 97 24 188t71 167.5t112.5 134t154 90t189.5 32.5q64 0 123.5 -17.5t108.5 -51.5t78.5 -90t29.5 -126zM580 764q-70 0 -130.5 -57t-87.5 -157l13 -9q274 50 274 166q0 25 -18.5 41t-50.5 16z" />
    <glyph glyph-name="edieresis" unicode="&#xeb;" horiz-adv-x="966" 
d="M414 1128q-81 0 -132.5 50.5t-51.5 126.5q0 79 53.5 130t137.5 51q81 0 132.5 -49.5t51.5 -125.5q0 -79 -53.5 -131t-137.5 -52zM865 1486q81 0 132.5 -49.5t51.5 -125.5q0 -79 -53.5 -131t-137.5 -52q-81 0 -132.5 50.5t-51.5 126.5q0 79 53.5 130t137.5 51zM943 736
q0 -67 -31 -124t-84 -99t-127 -76t-154.5 -55.5t-172.5 -35.5l-13 -18q19 -46 56 -69.5t79 -23.5q105 0 183 101l228 -134q-80 -111 -185 -165.5t-250 -54.5q-197 0 -308.5 112.5t-111.5 314.5q0 97 24 188t71 167.5t112.5 134t154 90t189.5 32.5q64 0 123.5 -17.5
t108.5 -51.5t78.5 -90t29.5 -126zM580 764q-70 0 -130.5 -57t-87.5 -157l13 -9q274 50 274 166q0 25 -18.5 41t-50.5 16z" />
    <glyph glyph-name="igrave" unicode="&#xec;" horiz-adv-x="540" 
d="M401 1452l89 -304h-282l-115 306zM177 1002h307l-123 -1002h-307z" />
    <glyph glyph-name="iacute" unicode="&#xed;" horiz-adv-x="551" 
d="M458 1445l311 2l-265 -306h-286zM178 1002h307l-123 -1002h-307z" />
    <glyph glyph-name="icircumflex" unicode="&#xee;" horiz-adv-x="541" 
d="M372 1287l-85 -153h-272l235 311h269l172 -311h-266l-48 153h-5zM55 0l123 1002h307l-123 -1002h-307z" />
    <glyph glyph-name="idieresis" unicode="&#xef;" horiz-adv-x="541" 
d="M182 1484q73 0 121 -49.5t48 -123.5q0 -77 -50 -129t-125 -52q-73 0 -121 50t-48 125q0 77 50 128t125 51zM573 1484q72 0 120 -49.5t48 -123.5q0 -77 -50 -129t-125 -52q-73 0 -121 50t-48 125q0 77 50 128t126 51zM178 1002h307l-123 -1002h-307z" />
    <glyph glyph-name="eth" unicode="&#xf0;" horiz-adv-x="1082" 
d="M1030 642q0 -85 -8 -150q-12 -107 -53.5 -198.5t-109 -161.5t-167 -110t-219.5 -40q-190 0 -306 111.5t-116 303.5q0 103 36 201.5t98 174t153.5 121.5t194.5 46q91 0 164 -44h1q-44 129 -143 231l-123 -94l-113 148l87 67q-53 35 -120 70l142 200q106 -42 197 -100
l143 111l112 -156l-103 -78q253 -255 253 -653zM497 255q94 0 156 79.5t62 211.5q0 74 -40 110t-92 36q-96 0 -160 -82.5t-63 -195.5q0 -82 40 -120.5t97 -38.5z" />
    <glyph glyph-name="ntilde" unicode="&#xf1;" horiz-adv-x="1111" 
d="M591 1224q-36 0 -67 -28.5t-54 -75.5l-172 86q46 113 114.5 179.5t150.5 66.5q17 0 32.5 -1.5t29 -6l23 -7.5t21.5 -10t17 -10.5l16.5 -11.5t13.5 -9q22 -15 33 -21.5t26 -12t28 -5.5q36 0 68 28t54 74l171 -70q-45 -121 -112.5 -192t-147.5 -71q-11 0 -22.5 1t-20 2.5
t-19 5l-17 5.5t-16.5 7.5t-14 7.5t-13.5 8.5t-12 8t-12 8t-10.5 7.5q-52 37 -88 37zM798 1020q144 0 201.5 -99.5t29.5 -307.5l-81 -613h-306l72 543q16 103 3 152.5t-62 49.5q-35 0 -74 -24t-75 -69t-64.5 -118.5t-40.5 -162.5l-46 -371h-307l123 1002h307l-18 -146h4
q135 164 334 164z" />
    <glyph glyph-name="ograve" unicode="&#xf2;" horiz-adv-x="1088" 
d="M619 1445l165 -304h-282l-190 306zM607 1020q196 0 311.5 -112.5t115.5 -315.5q0 -99 -20.5 -188.5t-65 -167t-109 -134t-157.5 -89t-205 -32.5q-193 0 -308 114t-115 317q0 97 23 187t70 166.5t112 133.5t154.5 89t193.5 32zM582 746q-66 0 -117 -47.5t-76 -119
t-25 -150.5q0 -88 40 -131t96 -43q66 0 118 45.5t79 117t27 154.5q0 43 -9.5 76t-24 51t-35 29t-37.5 14.5t-36 3.5z" />
    <glyph glyph-name="oacute" unicode="&#xf3;" horiz-adv-x="1088" 
d="M733 1445l311 2l-265 -306h-286zM607 1020q196 0 311.5 -112.5t115.5 -315.5q0 -99 -20.5 -188.5t-65 -167t-109 -134t-157.5 -89t-205 -32.5q-193 0 -308 114t-115 317q0 97 23 187t70 166.5t112 133.5t154.5 89t193.5 32zM582 746q-66 0 -117 -47.5t-76 -119
t-25 -150.5q0 -88 40 -131t96 -43q66 0 118 45.5t79 117t27 154.5q0 43 -9.5 76t-24 51t-35 29t-37.5 14.5t-36 3.5z" />
    <glyph glyph-name="ocircumflex" unicode="&#xf4;" horiz-adv-x="1088" 
d="M656 1287l-85 -153h-272l235 311h269l172 -311h-266l-48 153h-5zM607 1020q196 0 311.5 -112.5t115.5 -315.5q0 -99 -20.5 -188.5t-65 -167t-109 -134t-157.5 -89t-205 -32.5q-193 0 -308 114t-115 317q0 97 23 187t70 166.5t112 133.5t154.5 89t193.5 32zM500 255
q66 0 118 45.5t79 117t27 154.5q0 43 -9.5 76t-24 51t-35 29t-37.5 14.5t-36 3.5q-66 0 -117 -47.5t-76 -119t-25 -150.5q0 -88 40 -131t96 -43z" />
    <glyph glyph-name="otilde" unicode="&#xf5;" horiz-adv-x="1088" 
d="M270 1206q46 113 114.5 179.5t150.5 66.5q17 0 32.5 -1.5t29 -6l23 -7.5t21.5 -10t17 -10.5l16.5 -11.5t13.5 -9q22 -15 33 -21.5t26 -12t28 -5.5q36 0 68 28t54 74l171 -70q-45 -121 -112.5 -192t-147.5 -71q-11 0 -22.5 1t-20 2.5t-19 5l-17 5.5t-16.5 7.5t-14 7.5
t-13.5 8.5t-12 8t-12 8t-10.5 7.5q-52 37 -88 37t-67 -28.5t-54 -75.5zM607 1020q196 0 311.5 -112.5t115.5 -315.5q0 -99 -20.5 -188.5t-65 -167t-109 -134t-157.5 -89t-205 -32.5q-193 0 -308 114t-115 317q0 97 23 187t70 166.5t112 133.5t154.5 89t193.5 32zM582 746
q-66 0 -117 -47.5t-76 -119t-25 -150.5q0 -88 40 -131t96 -43q66 0 118 45.5t79 117t27 154.5q0 43 -9.5 76t-24 51t-35 29t-37.5 14.5t-36 3.5z" />
    <glyph glyph-name="odieresis" unicode="&#xf6;" horiz-adv-x="1088" 
d="M441 1486q81 0 132.5 -49.5t51.5 -125.5q0 -79 -53.5 -131t-137.5 -52q-81 0 -132.5 50.5t-51.5 126.5q0 79 53.5 130t137.5 51zM885 1486q81 0 132.5 -49.5t51.5 -125.5q0 -79 -53.5 -131t-137.5 -52q-81 0 -132.5 50.5t-51.5 126.5q0 79 53.5 130t137.5 51zM607 1020
q196 0 311.5 -112.5t115.5 -315.5q0 -99 -20.5 -188.5t-65 -167t-109 -134t-157.5 -89t-205 -32.5q-193 0 -308 114t-115 317q0 97 23 187t70 166.5t112 133.5t154.5 89t193.5 32zM582 746q-66 0 -117 -47.5t-76 -119t-25 -150.5q0 -88 40 -131t96 -43q66 0 118 45.5t79 117
t27 154.5q0 43 -9.5 76t-24 51t-35 29t-37.5 14.5t-36 3.5z" />
    <glyph glyph-name="divide" unicode="&#xf7;" horiz-adv-x="1057" 
d="M598 1143q77 0 125 -46t48 -118q0 -74 -50 -122.5t-129 -48.5q-76 0 -124 47t-48 119q0 73 50 121t128 48zM985 437h-882l32 260h883zM509 311q77 0 125 -46t48 -118q0 -74 -50 -122.5t-129 -48.5q-76 0 -124 47t-48 119q0 73 50 121t128 48z" />
    <glyph glyph-name="oslash" unicode="&#xf8;" horiz-adv-x="1089" 
d="M1071 950l-101 -107q64 -103 64 -251q0 -99 -20.5 -188.5t-65 -167t-109 -134t-157.5 -89t-205 -32.5q-152 0 -258 72l-97 -102l-96 93l99 104q-71 107 -71 264q0 97 23 187t70 166.5t112 133.5t154.5 89t193.5 32q166 0 273 -80l96 101zM364 429q0 -20 1 -29l304 319
q-33 27 -87 27q-66 0 -117 -47.5t-76 -119t-25 -150.5zM724 572v13l-294 -310q30 -20 70 -20q66 0 118 45.5t79 117t27 154.5z" />
    <glyph glyph-name="ugrave" unicode="&#xf9;" horiz-adv-x="1086" 
d="M765 1142h-282l-190 306l307 -2zM740 1002h307l-123 -1002h-307l18 148h-3q-118 -167 -298 -167q-58 0 -102 13t-79 42t-54 75t-26 113t5 155l75 623h306l-65 -531q-16 -122 -2 -168.5t67 -46.5q43 0 92 42t86.5 110.5t46.5 137.5z" />
    <glyph glyph-name="uacute" unicode="&#xfa;" horiz-adv-x="1086" 
d="M1036 1446l-265 -306h-286l240 304zM740 1002h307l-123 -1002h-307l18 148h-3q-118 -167 -298 -167q-58 0 -102 13t-79 42t-54 75t-26 113t5 155l75 623h306l-65 -531q-16 -122 -2 -168.5t67 -46.5q43 0 92 42t86.5 110.5t46.5 137.5z" />
    <glyph glyph-name="ucircumflex" unicode="&#xfb;" horiz-adv-x="1086" 
d="M645 1287l-85 -153h-272l235 311h269l172 -311h-266l-48 153h-5zM740 1002h307l-123 -1002h-307l18 148h-3q-118 -167 -298 -167q-58 0 -102 13t-79 42t-54 75t-26 113t5 155l75 623h306l-65 -531q-16 -122 -2 -168.5t67 -46.5q43 0 92.5 42t86.5 110.5t46 137.5z" />
    <glyph glyph-name="udieresis" unicode="&#xfc;" horiz-adv-x="1086" 
d="M423 1128q-81 0 -132.5 50.5t-51.5 126.5q0 79 53.5 130t137.5 51q81 0 132.5 -49.5t51.5 -125.5q0 -79 -53.5 -131t-137.5 -52zM867 1128q-81 0 -132.5 50.5t-51.5 126.5q0 79 53.5 130t137.5 51q81 0 132.5 -49.5t51.5 -125.5q0 -79 -53.5 -131t-137.5 -52zM684 546
l56 456h307l-123 -1002h-307l18 148h-3q-118 -167 -298 -167q-58 0 -102 13t-79 42t-54 75t-26 113t5 155l75 623h306l-65 -531q-16 -122 -2 -168.5t67 -46.5q43 0 92 42t86.5 110.5t46.5 137.5z" />
    <glyph glyph-name="yacute" unicode="&#xfd;" horiz-adv-x="1085" 
d="M1010 1447l-265 -306h-286l240 304zM739 1002h307l-107 -866q-68 -560 -567 -560q-203 0 -361 97l96 232q113 -77 250 -77q45 0 78.5 7t67 27.5t57.5 55t43.5 92t30.5 137.5h-4q-119 -166 -301 -166q-58 0 -102 13t-79 42t-54 75t-26 113t5 155l76 623h305l-64 -531
q-16 -122 -2 -168.5t67 -46.5q44 0 93.5 41.5t87 108.5t47.5 136z" />
    <glyph glyph-name="thorn" unicode="&#xfe;" horiz-adv-x="1133" 
d="M763 1021q101 0 174.5 -55.5t108.5 -147t35 -208.5q0 -131 -37.5 -248t-101 -200.5t-152.5 -132t-189 -48.5q-145 0 -234 70h-5l-56 -456h-308l237 1913h308l-84 -661h5q119 174 299 174zM534 255q57 0 103.5 30t75 78.5t44 107.5t15.5 120q0 67 -30 111.5t-81 44.5
q-90 0 -168.5 -107t-103.5 -291l-4 -32q46 -62 149 -62z" />
    <glyph glyph-name="ydieresis" unicode="&#xff;" horiz-adv-x="1085" 
d="M412 1128q-81 0 -132.5 50.5t-51.5 126.5q0 79 53.5 130t137.5 51q81 0 132.5 -49.5t51.5 -125.5q0 -79 -53.5 -131t-137.5 -52zM856 1128q-81 0 -132.5 50.5t-51.5 126.5q0 79 53.5 130t137.5 51q81 0 132.5 -49.5t51.5 -125.5q0 -79 -53.5 -131t-137.5 -52zM683 542
l56 460h307l-107 -866q-68 -560 -567 -560q-203 0 -361 97l96 232q113 -77 250 -77q45 0 78.5 7t67 27.5t57.5 55t43.5 92t30.5 137.5h-4q-119 -166 -301 -166q-58 0 -102 13t-79 42t-54 75t-26 113t5 155l76 623h305l-64 -531q-16 -122 -2 -168.5t67 -46.5q44 0 93.5 41.5
t87 108.5t47.5 136z" />
    <glyph glyph-name="Amacron" unicode="&#x100;" 
d="M1117 1886l-29 -236h-584l29 236h584zM879 0l-43 269h-434l-109 -269h-345l656 1455h316l299 -1455h-340zM515 547h277l-77 483h-5z" />
    <glyph glyph-name="amacron" unicode="&#x101;" horiz-adv-x="1124" 
d="M982 1425l-29 -236h-584l29 236h584zM775 1002h308l-123 -1002h-308l21 164h-5q-56 -86 -129.5 -134.5t-160.5 -48.5q-105 0 -180 55t-110.5 146t-35.5 209q0 131 37.5 248.5t100.5 201t150.5 132t183.5 48.5q152 0 237 -90h6zM476 253q41 0 83.5 28t79.5 79.5t65 132
t40 177.5v3q-69 74 -166 74q-49 0 -91 -31t-69 -79.5t-42 -107t-15 -114.5q0 -74 31.5 -118t83.5 -44z" />
    <glyph glyph-name="Abreve" unicode="&#x102;" 
d="M797 1587q-139 0 -222 84.5t-74 231.5h222q-6 -55 13.5 -86.5t63.5 -31.5q48 0 83 33t46 85h222q-27 -141 -121 -228.5t-233 -87.5zM879 0l-43 269h-434l-109 -269h-345l656 1455h316l299 -1455h-340zM515 547h277l-77 483h-5z" />
    <glyph glyph-name="abreve" unicode="&#x103;" horiz-adv-x="1124" 
d="M662 1126q-139 0 -222 84.5t-74 231.5h222q-6 -55 13.5 -86.5t63.5 -31.5q48 0 83 33t46 85h222q-27 -141 -121 -228.5t-233 -87.5zM775 1002h308l-123 -1002h-308l21 164h-5q-56 -86 -129.5 -134.5t-160.5 -48.5q-105 0 -180 55t-110.5 146t-35.5 209q0 131 37.5 248.5
t100.5 201t150.5 132t183.5 48.5q152 0 237 -90h6zM476 253q41 0 83.5 28t79.5 79.5t65 132t40 177.5v3q-69 74 -166 74q-49 0 -91 -31t-69 -80t-42 -107t-15 -114q0 -74 31.5 -118t83.5 -44z" />
    <glyph glyph-name="Aogonek" unicode="&#x104;" 
d="M1174 0q-79 -7 -138.5 -61t-59.5 -114q0 -50 50 -50q37 0 69 14l4 -158q-58 -22 -152 -22q-97 0 -148 41.5t-51 119.5q0 63 36 125.5t95 106.5l-43 267h-434l-109 -269h-345l656 1455h316l299 -1455h-45zM515 547h277l-77 483h-5z" />
    <glyph glyph-name="aogonek" unicode="&#x105;" horiz-adv-x="1124" 
d="M775 1002h308l-123 -1002h-22q-79 -7 -138.5 -61t-59.5 -114q0 -50 50 -50q37 0 69 14l4 -158q-58 -22 -152 -22q-97 0 -148 41.5t-51 119.5q0 66 39.5 131t101.5 109l20 154h-5q-56 -86 -129.5 -134.5t-160.5 -48.5q-105 0 -180 55t-110.5 146t-35.5 209
q0 131 37.5 248.5t100.5 201t150.5 132t183.5 48.5q152 0 237 -90h6zM476 253q41 0 83.5 28t79.5 79.5t65 132t40 177.5v3q-69 74 -166 74q-49 0 -91 -31t-69 -80t-42 -107t-15 -114q0 -74 31.5 -118t83.5 -44z" />
    <glyph glyph-name="Cacute" unicode="&#x106;" horiz-adv-x="1334" 
d="M966 1903l311 2l-265 -306h-286zM1244 232q-103 -119 -244 -185t-311 -66q-127 0 -233.5 39t-186.5 114.5t-125 196.5t-45 275q0 140 36 271t104 238.5t160 188.5t210.5 125.5t248.5 44.5q331 0 517 -305l-262 -196q-101 186 -269 186q-70 0 -134 -31.5t-111.5 -85
t-83 -122.5t-53.5 -148t-18 -157q0 -155 70.5 -237.5t195.5 -82.5q88 0 166.5 40t136.5 111z" />
    <glyph glyph-name="cacute" unicode="&#x107;" horiz-adv-x="974" 
d="M705 1445l311 2l-265 -306h-286zM478 -19q-198 0 -311 113t-113 323q0 96 24 186t72 165.5t113.5 132t154 88.5t188.5 32q120 0 214 -44.5t149 -128.5l-235 -175q-47 74 -146 74q-63 0 -115 -44.5t-80.5 -117t-28.5 -155.5q0 -50 12.5 -86t33.5 -54.5t43 -26.5t46 -8
q93 0 174 97l239 -150q-160 -221 -434 -221z" />
    <glyph glyph-name="Ccircumflex" unicode="&#x108;" horiz-adv-x="1334" 
d="M937 1747l-85 -153h-272l235 311h269l172 -311h-266l-48 153h-5zM710 295q88 0 166.5 40t136.5 111l231 -214q-103 -119 -244 -185t-311 -66q-127 0 -233.5 39t-186.5 114.5t-125 196.5t-45 275q0 140 36 271t104 238.5t160.5 188.5t210.5 125.5t248 44.5q331 0 517 -305
l-262 -196q-101 186 -269 186q-70 0 -134 -31.5t-111.5 -85t-83 -122.5t-53.5 -148t-18 -157q0 -155 70.5 -237.5t195.5 -82.5z" />
    <glyph glyph-name="ccircumflex" unicode="&#x109;" horiz-adv-x="974" 
d="M654 1287l-85 -153h-272l235 311h269l172 -311h-266l-48 153h-5zM588 747q-63 -1 -115 -45t-80.5 -116.5t-28.5 -155.5q0 -50 12.5 -86t33.5 -54.5t43 -26.5t46 -8q93 0 174 97l239 -150q-160 -221 -434 -221q-198 0 -311 113t-113 323q0 96 24 186t72 165.5t113.5 132
t154 88.5t188.5 32q120 0 214 -44.5t149 -128.5l-235 -175q-47 74 -146 74z" />
    <glyph glyph-name="Cdotaccent" unicode="&#x10a;" horiz-adv-x="1334" 
d="M940 1946q81 0 132.5 -49.5t51.5 -125.5q0 -79 -53.5 -131t-137.5 -52q-81 0 -132.5 50.5t-51.5 126.5q0 79 53.5 130t137.5 51zM1244 232q-103 -119 -244 -185t-311 -66q-127 0 -233.5 39t-186.5 114.5t-125 196.5t-45 275q0 140 36 271t104 238.5t160 188.5
t210.5 125.5t248.5 44.5q331 0 517 -305l-262 -196q-101 186 -269 186q-70 0 -134 -31.5t-111.5 -85t-83 -122.5t-53.5 -148t-18 -157q0 -155 70.5 -237.5t195.5 -82.5q88 0 166.5 40t136.5 111z" />
    <glyph glyph-name="cdotaccent" unicode="&#x10b;" horiz-adv-x="974" 
d="M657 1486q81 0 132.5 -49.5t51.5 -125.5q0 -79 -53.5 -131t-137.5 -52q-81 0 -132.5 50.5t-51.5 126.5q0 79 53.5 130t137.5 51zM478 -19q-198 0 -311 113t-113 323q0 96 24 186t72 165.5t113.5 132t154 88.5t188.5 32q120 0 214 -44.5t149 -128.5l-235 -175
q-47 74 -146 74q-63 0 -115 -44.5t-80.5 -117t-28.5 -155.5q0 -50 12.5 -86t33.5 -54.5t43 -26.5t46 -8q93 0 174 97l239 -150q-160 -221 -434 -221z" />
    <glyph glyph-name="Ccaron" unicode="&#x10c;" horiz-adv-x="1334" 
d="M1058 1594h-269l-168 311h266l47 -153h4l87 153h272zM710 295q88 0 166.5 40t136.5 111l231 -214q-103 -119 -244 -185t-311 -66q-127 0 -233.5 39t-186.5 114.5t-125 196.5t-45 275q0 140 36 271t104 238.5t160 188.5t210.5 125.5t248.5 44.5q331 0 517 -305l-262 -196
q-101 186 -269 186q-70 0 -134 -31.5t-111.5 -85t-83 -122.5t-53.5 -148t-18 -157q0 -155 70.5 -237.5t195.5 -82.5z" />
    <glyph glyph-name="ccaron" unicode="&#x10d;" horiz-adv-x="974" 
d="M775 1134h-269l-168 311h266l47 -153h4l87 153h272zM588 747q-63 0 -115 -44.5t-80.5 -117t-28.5 -155.5q0 -50 12.5 -86t33.5 -54.5t43 -26.5t46 -8q93 0 174 97l239 -150q-160 -221 -434 -221q-198 0 -311 113t-113 323q0 96 24 186t72 165.5t113.5 132t154 88.5
t188.5 32q120 0 214 -44.5t149 -128.5l-235 -175q-47 74 -146 74z" />
    <glyph glyph-name="Dcaron" unicode="&#x10e;" horiz-adv-x="1355" 
d="M908 1592h-269l-168 311h266l47 -153h4l87 153h272zM715 1455q148 0 262.5 -42.5t188.5 -122t111.5 -190.5t37.5 -251q0 -188 -54.5 -344.5t-154.5 -268.5t-248.5 -174t-330.5 -62h-450l178 1455h460zM565 292q99 0 177.5 43t129 118.5t77 175t26.5 215.5
q0 154 -73.5 236t-223.5 82h-137l-107 -870h131z" />
    <glyph glyph-name="dcaron" unicode="&#x10f;" horiz-adv-x="1230" 
d="M1320 1621h291l-191 -439h-215zM769 928l70 580h308l-185 -1508h-308l21 164h-5q-56 -86 -130.5 -134.5t-162.5 -48.5q-105 0 -180 55t-110.5 146t-35.5 209q0 131 37.5 248.5t100.5 201t150.5 132t183.5 48.5q153 0 241 -93h5zM475 253q89 0 168 113t103 304l1 5
q-66 72 -170 72q-49 0 -91 -31t-69 -80t-42 -107t-15 -114q0 -74 31.5 -118t83.5 -44z" />
    <glyph glyph-name="Dcroat" unicode="&#x110;" horiz-adv-x="1351" 
d="M714 1455q148 0 262.5 -42.5t188.5 -122t111.5 -190.5t37.5 -251q0 -188 -54.5 -344.5t-154.5 -268.5t-248.5 -174t-330.5 -62h-450l70 576h-93l34 275h93l74 604h460zM564 292q99 0 177.5 43t129 118.5t77 175t26.5 215.5q0 154 -73.5 236t-223.5 82h-137l-38 -311h153
l-35 -275h-152l-35 -284h131z" />
    <glyph glyph-name="dcroat" unicode="&#x111;" horiz-adv-x="1095" 
d="M1208 1304l-22 -184h-87l-137 -1120h-308l21 164h-5q-56 -86 -130.5 -134.5t-162.5 -48.5q-105 0 -180 55t-110.5 146t-35.5 209q0 131 37.5 248.5t100.5 201t150.5 132t183.5 48.5q153 0 241 -93h5l23 192h-164l22 184h164l25 204h308l-25 -204h86zM475 253
q89 0 168 113t103 304l1 5q-66 72 -170 72q-49 0 -91 -31t-69 -80t-42 -107t-15 -114q0 -74 31.5 -118t83.5 -44z" />
    <glyph glyph-name="Emacron" unicode="&#x112;" horiz-adv-x="1112" 
d="M453 1883h584l-29 -236h-584zM1009 292l-36 -292h-901l178 1455h863l-35 -293h-543l-37 -297h427l-35 -288h-427l-35 -285h581z" />
    <glyph glyph-name="emacron" unicode="&#x113;" horiz-adv-x="966" 
d="M947 1425l-29 -236h-584l29 236h584zM943 736q0 -67 -31 -124t-84 -99t-127 -76t-154.5 -55.5t-172.5 -35.5l-13 -18q19 -46 56 -69.5t79 -23.5q105 0 183 101l228 -134q-80 -111 -185 -165.5t-250 -54.5q-197 0 -308.5 112.5t-111.5 314.5q0 97 24 188t71 167.5
t112.5 134t154 90t189.5 32.5q64 0 123.5 -17.5t108.5 -51.5t78.5 -90t29.5 -126zM580 764q-70 0 -130.5 -57t-87.5 -157l13 -9q274 50 274 166q0 25 -18.5 41t-50.5 16z" />
    <glyph glyph-name="Ebreve" unicode="&#x114;" horiz-adv-x="1112" 
d="M717 1584q-139 0 -222 84.5t-74 231.5h222q-6 -55 13.5 -86.5t63.5 -31.5q48 0 83 33t46 85h222q-27 -141 -121 -228.5t-233 -87.5zM1009 292l-36 -292h-901l178 1455h863l-35 -293h-543l-37 -297h427l-35 -288h-427l-35 -285h581z" />
    <glyph glyph-name="ebreve" unicode="&#x115;" horiz-adv-x="966" 
d="M627 1126q-139 0 -222 84.5t-74 231.5h222q-6 -55 13.5 -86.5t63.5 -31.5q48 0 83 33t46 85h222q-27 -141 -121 -228.5t-233 -87.5zM943 736q0 -67 -31 -124t-84 -99t-127 -76t-154.5 -55.5t-172.5 -35.5l-13 -18q19 -46 56 -69.5t79 -23.5q105 0 183 101l228 -134
q-80 -111 -185 -165.5t-250 -54.5q-197 0 -308.5 112.5t-111.5 314.5q0 97 24 188t71 167.5t112.5 134t154 90t189.5 32.5q64 0 123.5 -17.5t108.5 -51.5t78.5 -90t29.5 -126zM580 764q-70 0 -130.5 -57t-87.5 -157l13 -9q274 50 274 166q0 25 -18.5 41t-50.5 16z" />
    <glyph glyph-name="Edotaccent" unicode="&#x116;" horiz-adv-x="1112" 
d="M729 1944q81 0 132.5 -49.5t51.5 -125.5q0 -79 -53.5 -131t-137.5 -52q-81 0 -132.5 50.5t-51.5 126.5q0 79 53.5 130t137.5 51zM1009 292l-36 -292h-901l178 1455h863l-35 -293h-543l-37 -297h427l-35 -288h-427l-35 -285h581z" />
    <glyph glyph-name="edotaccent" unicode="&#x117;" horiz-adv-x="966" 
d="M632 1128q-81 0 -132.5 50.5t-51.5 126.5q0 79 53.5 130t137.5 51q81 0 132.5 -49.5t51.5 -125.5q0 -79 -53.5 -131t-137.5 -52zM496 235q105 0 183 101l228 -134q-80 -111 -185 -165.5t-250 -54.5q-197 0 -308.5 112.5t-111.5 314.5q0 97 24 188t71 167.5t112.5 134
t154 90t189.5 32.5q64 0 123.5 -17.5t108.5 -51.5t78.5 -90t29.5 -126q0 -67 -31 -124t-84 -99t-127 -76t-154.5 -55.5t-172.5 -35.5l-13 -18q19 -46 56 -69.5t79 -23.5zM580 764q-70 0 -130.5 -57t-87.5 -157l13 -9q274 50 274 166q0 25 -18.5 41t-50.5 16z" />
    <glyph glyph-name="Eogonek" unicode="&#x118;" horiz-adv-x="1112" 
d="M1078 1162h-543l-37 -297h427l-35 -288h-427l-35 -285h581l-36 -292h-3q-79 -7 -138.5 -61t-59.5 -114q0 -50 50 -50q37 0 69 14l4 -158q-58 -22 -152 -22q-97 0 -148 41.5t-51 119.5q0 62 34 122.5t90 104.5v3h-596l178 1455h863z" />
    <glyph glyph-name="eogonek" unicode="&#x119;" horiz-adv-x="966" 
d="M496 235q105 0 183 101l228 -134q-108 -149 -258 -195q-83 -31 -137 -80t-54 -103q0 -22 14 -35.5t40 -13.5q37 0 65 14l4 -158q-58 -22 -152 -22q-97 0 -148 41.5t-51 119.5q0 59 32 118t84 103l1 5q-141 32 -218 139t-77 274q0 97 24 188t71 167.5t112.5 134t154 90
t189.5 32.5q64 0 123.5 -17.5t108.5 -51.5t78.5 -90t29.5 -126q0 -67 -31 -124t-84 -99t-127 -76t-154.5 -55.5t-172.5 -35.5l-13 -18q19 -46 56 -69.5t79 -23.5zM580 764q-70 0 -130.5 -57t-87.5 -157l13 -9q274 50 274 166q0 25 -18.5 41t-50.5 16z" />
    <glyph glyph-name="Ecaron" unicode="&#x11a;" horiz-adv-x="1112" 
d="M847 1592h-269l-168 311h266l47 -153h4l87 153h272zM1078 1162h-543l-37 -297h427l-35 -288h-427l-35 -285h581l-36 -292h-901l178 1455h863z" />
    <glyph glyph-name="ecaron" unicode="&#x11b;" horiz-adv-x="966" 
d="M757 1134h-269l-168 311h266l47 -153h4l87 153h272zM943 736q0 -67 -31 -124t-84 -99t-127 -76t-154.5 -55.5t-172.5 -35.5l-13 -18q19 -46 56 -69.5t79 -23.5q105 0 183 101l228 -134q-80 -111 -185 -165.5t-250 -54.5q-197 0 -308.5 112.5t-111.5 314.5q0 97 24 188
t71 167.5t112.5 134t154 90t189.5 32.5q64 0 123.5 -17.5t108.5 -51.5t78.5 -90t29.5 -126zM580 764q-70 0 -130.5 -57t-87.5 -157l13 -9q274 50 274 166q0 25 -18.5 41t-50.5 16z" />
    <glyph glyph-name="Gcircumflex" unicode="&#x11c;" horiz-adv-x="1383" 
d="M905 1745l-85 -153h-272l235 311h269l172 -311h-266l-48 153h-5zM727 536l34 274h554l-76 -653q-99 -79 -245.5 -127.5t-298.5 -48.5q-102 0 -191 23.5t-164 72.5t-128.5 120.5t-83.5 171.5t-30 221q0 145 35.5 278.5t103 243t160 191t213 126.5t255.5 45
q155 0 287.5 -68t209.5 -196l-253 -192q-44 66 -111 106.5t-152 40.5q-88 0 -164.5 -46.5t-128 -124t-80.5 -177.5t-29 -208q0 -158 72 -241.5t200 -83.5q116 0 226 70l26 182h-241z" />
    <glyph glyph-name="gcircumflex" unicode="&#x11d;" horiz-adv-x="1118" 
d="M672 1287l-85 -153h-272l235 311h269l172 -311h-266l-48 153h-5zM770 1002h308l-107 -873q-16 -130 -56 -229t-94 -159.5t-126.5 -98.5t-145.5 -52t-160 -14q-206 0 -364 97l96 240q124 -77 256 -77q49 0 85.5 7.5t72 28t60 56.5t43.5 94.5t29 140.5l4 29h-5
q-55 -83 -128.5 -131.5t-159.5 -48.5q-79 0 -142 31t-102.5 85t-60.5 124t-21 150q0 127 37.5 242t100.5 197.5t150.5 131t183.5 48.5q150 0 234 -87h4zM476 285q84 0 160.5 104t101.5 273l2 15q-68 70 -162 70q-49 0 -91 -30.5t-69 -78t-42 -102t-15 -104.5q0 -71 31 -109
t84 -38z" />
    <glyph glyph-name="Gbreve" unicode="&#x11e;" horiz-adv-x="1383" 
d="M896 1584q-139 0 -222 84.5t-74 231.5h222q-6 -55 13.5 -86.5t63.5 -31.5q48 0 83 33t46 85h222q-27 -141 -121 -228.5t-233 -87.5zM1315 810l-76 -653q-99 -79 -245.5 -127.5t-298.5 -48.5q-102 0 -191 23.5t-164 72.5t-128.5 120.5t-83.5 171.5t-30 221
q0 145 35.5 278.5t103 243t160 191t213 126.5t255.5 45q155 0 287.5 -68t209.5 -196l-253 -192q-44 66 -111 106.5t-152 40.5q-88 0 -164.5 -46.5t-128 -124t-80.5 -177.5t-29 -208q0 -158 72 -241.5t200 -83.5q116 0 226 70l26 182h-241l34 274h554z" />
    <glyph glyph-name="gbreve" unicode="&#x11f;" horiz-adv-x="1118" 
d="M663 1126q-139 0 -222 84.5t-74 231.5h222q-6 -55 13.5 -86.5t63.5 -31.5q48 0 83 33t46 85h222q-27 -141 -121 -228.5t-233 -87.5zM770 1002h308l-107 -873q-16 -130 -56 -228.5t-94 -159.5t-126.5 -99t-145.5 -52t-160 -14q-206 0 -364 97l96 240q124 -77 256 -77
q49 0 85.5 7.5t72 28t60 56.5t43.5 94.5t29 140.5l4 29h-5q-55 -83 -128.5 -131.5t-159.5 -48.5q-79 0 -142 31t-102.5 85t-60.5 124t-21 150q0 127 37.5 242t100.5 197.5t150.5 131t183.5 48.5q150 0 234 -87h4zM476 285q84 0 160.5 104t101.5 273l2 15q-68 70 -162 70
q-49 0 -91 -30.5t-69 -78t-42 -102t-15 -104.5q0 -71 31 -109t84 -38z" />
    <glyph glyph-name="Gdotaccent" unicode="&#x120;" horiz-adv-x="1383" 
d="M908 1944q81 0 132.5 -49.5t51.5 -125.5q0 -79 -53.5 -131t-137.5 -52q-81 0 -132.5 50.5t-51.5 126.5q0 79 53.5 130t137.5 51zM1315 810l-76 -653q-99 -79 -245.5 -127.5t-298.5 -48.5q-102 0 -191.5 23.5t-164 72.5t-128 120.5t-83.5 171.5t-30 221q0 145 35.5 278.5
t103 243t160 191t213 126.5t255.5 45q155 0 287.5 -68t209.5 -196l-253 -192q-44 66 -111 106.5t-152 40.5q-88 0 -164.5 -46.5t-128 -124t-80.5 -178t-29 -207.5q0 -158 71.5 -241.5t200.5 -83.5q116 0 226 70l26 182h-241l34 274h554z" />
    <glyph glyph-name="gdotaccent" unicode="&#x121;" horiz-adv-x="1118" 
d="M668 1128q-81 0 -132.5 50.5t-51.5 126.5q0 79 53.5 130t137.5 51q81 0 132.5 -49.5t51.5 -125.5q0 -79 -53.5 -131t-137.5 -52zM770 1002h308l-107 -873q-16 -130 -56 -228.5t-94 -159.5t-126.5 -99t-145.5 -52t-160 -14q-206 0 -364 97l96 240q124 -77 256 -77
q49 0 85.5 7.5t72 28t60 56.5t43.5 94.5t29 140.5l4 29h-5q-55 -83 -128.5 -131.5t-159.5 -48.5q-79 0 -142 31t-102.5 85t-60.5 124t-21 150q0 127 37.5 242t100.5 197.5t150.5 131t183.5 48.5q150 0 234 -87h4zM476 285q84 0 160.5 104t101.5 273l2 15q-68 70 -162 70
q-49 0 -91 -30.5t-69 -78t-42 -102t-15 -104.5q0 -71 31 -109t84 -38z" />
    <glyph glyph-name="Gcommaaccent" unicode="&#x122;" horiz-adv-x="1383" 
d="M1315 810l-76 -653q-99 -79 -245.5 -127.5t-298.5 -48.5q-102 0 -191 23.5t-164 72.5t-128.5 120.5t-83.5 171.5t-30 221q0 145 35.5 278.5t103 243t160 191t213 126.5t255.5 45q155 0 287.5 -68t209.5 -196l-253 -192q-44 66 -111 106.5t-152 40.5q-88 0 -164.5 -46.5
t-128 -124t-80.5 -177.5t-29 -208q0 -158 72 -241.5t200 -83.5q116 0 226 70l26 182h-241l34 274h554zM795 -109q4 -17 4 -47q0 -138 -87 -215t-241 -82l-32 174q62 14 88 40.5t26 79.5q0 12 -4 50h246z" />
    <glyph glyph-name="gcommaaccent" unicode="&#x123;" horiz-adv-x="1118" 
d="M792 1158h-246q-4 17 -4 47q0 138 87 215t241 82l32 -174q-62 -14 -88 -40.5t-26 -79.5q0 -12 4 -50zM770 1002h308l-107 -873q-16 -130 -56 -228.5t-94 -159.5t-126.5 -99t-145.5 -52t-160 -14q-206 0 -364 97l96 240q124 -77 256 -77q49 0 85.5 7.5t72 28t60 56.5
t43.5 94.5t29 140.5l4 29h-5q-55 -83 -128.5 -131.5t-159.5 -48.5q-79 0 -142 31t-102.5 85t-60.5 124t-21 150q0 127 37.5 242t100.5 197.5t150.5 131t183.5 48.5q150 0 234 -87h4zM476 285q84 0 160.5 104t101.5 273l2 15q-69 70 -162 70q-49 0 -91 -30.5t-69 -78
t-42 -102t-15 -104.5q0 -71 31 -109t84 -38z" />
    <glyph glyph-name="Hcircumflex" unicode="&#x124;" horiz-adv-x="1363" 
d="M833 1747l-85 -153h-272l235 311h269l172 -311h-266l-48 153h-5zM1014 1455h331l-179 -1455h-331l69 553h-432l-68 -553h-331l178 1455h332l-76 -610h432z" />
    <glyph glyph-name="hcircumflex" unicode="&#x125;" horiz-adv-x="1113" 
d="M720 1771l-85 -153h-272l235 311h269l172 -311h-266l-48 153h-5zM800 1020q144 0 201.5 -99.5t29.5 -307.5l-81 -613h-306l73 543q15 103 2 152.5t-62 49.5q-35 0 -73.5 -24t-74.5 -68t-65 -116t-42 -160l-46 -377h-306l185 1508h306l-80 -649h7q135 161 332 161z" />
    <glyph glyph-name="Hbar" unicode="&#x126;" horiz-adv-x="1368" 
d="M1397 1241l-23 -185h-75l-130 -1056h-331l69 553h-432l-68 -553h-331l129 1056h-73l23 185h73l26 214h332l-27 -214h432l26 214h331l-26 -214h75zM942 845l26 211h-432l-26 -211h432z" />
    <glyph glyph-name="hbar" unicode="&#x127;" horiz-adv-x="1113" 
d="M800 1020q144 0 201.5 -99.5t29.5 -307.5l-81 -613h-306l73 543q15 103 2 152.5t-62 49.5q-35 0 -73.5 -24t-74.5 -68t-65 -116t-42 -160l-46 -377h-306l137 1120h-122l22 185h123l25 203h306l-25 -203h130l-23 -185h-130l-32 -261h7q135 161 332 161z" />
    <glyph glyph-name="Itilde" unicode="&#x128;" horiz-adv-x="621" 
d="M72 1664q47 113 115 179.5t150 66.5q17 0 32.5 -1.5t29 -6l23 -7.5t21.5 -10t17 -10.5l16.5 -11.5t13.5 -9q22 -15 33 -21.5t26 -12t28 -5.5q36 0 68 28t54 74l171 -70q-45 -121 -112.5 -192t-147.5 -71q-11 0 -22.5 1t-20 2.5t-19 5l-17 5.5t-16.5 7.5t-14 7.5
t-13.5 8.5t-12 8t-12 8t-10.5 7.5q-52 37 -88 37t-67 -28.5t-54 -75.5zM415 0h-332l178 1455h333z" />
    <glyph glyph-name="itilde" unicode="&#x129;" horiz-adv-x="541" 
d="M25 1206q44 113 108.5 179.5t142.5 66.5q16 0 30 -1.5t27 -6l21.5 -7.5t20.5 -10.5l16 -10t16 -11.5t13 -10q55 -38 82 -38q34 0 64 28t52 74l161 -70q-43 -121 -106.5 -192t-139.5 -71q-31 0 -60 10.5t-43.5 19.5t-37.5 26q-4 3 -6 5q-49 37 -85 37q-64 0 -113 -104z
M178 1002h307l-123 -1002h-307z" />
    <glyph glyph-name="Imacron" unicode="&#x12a;" horiz-adv-x="621" 
d="M185 1883h584l-29 -236h-584zM415 0h-332l178 1455h333z" />
    <glyph glyph-name="imacron" unicode="&#x12b;" horiz-adv-x="541" 
d="M99 1425h584l-29 -236h-584zM178 1002h307l-123 -1002h-307z" />
    <glyph glyph-name="Ibreve" unicode="&#x12c;" horiz-adv-x="621" 
d="M449 1584q-139 0 -222 84.5t-74 231.5h222q-6 -55 13.5 -86.5t63.5 -31.5q48 0 83 33t46 85h222q-27 -141 -121 -228.5t-233 -87.5zM415 0h-332l178 1455h333z" />
    <glyph glyph-name="ibreve" unicode="&#x12d;" horiz-adv-x="541" 
d="M368 1126q-123 0 -195.5 84.5t-65.5 231.5h203q-6 -54 11.5 -86t53.5 -32q40 0 68 33t33 85h205q-24 -141 -107 -228.5t-206 -87.5zM178 1002h307l-123 -1002h-307z" />
    <glyph glyph-name="Iogonek" unicode="&#x12e;" horiz-adv-x="621" 
d="M261 1455h333l-179 -1455h-35q-79 -7 -138.5 -61t-59.5 -114q0 -50 50 -50q37 0 69 14l4 -158q-58 -22 -152 -22q-97 0 -148 41.5t-51 119.5q0 63 35.5 125t93.5 106z" />
    <glyph glyph-name="iogonek" unicode="&#x12f;" horiz-adv-x="541" 
d="M375 1486q81 0 132.5 -49.5t51.5 -125.5q0 -79 -53.5 -131t-137.5 -52q-81 0 -132.5 50.5t-51.5 126.5q0 79 53.5 130t137.5 51zM56 10l122 992h307l-123 -1002h-21q-79 -7 -138.5 -61t-59.5 -114q0 -50 50 -50q37 0 69 14l4 -158q-58 -22 -152 -22q-97 0 -148 41.5
t-51 119.5q0 66 39.5 131t101.5 109z" />
    <glyph glyph-name="Idotaccent" unicode="&#x130;" horiz-adv-x="621" 
d="M461 1944q81 0 132.5 -49.5t51.5 -125.5q0 -79 -53.5 -131t-137.5 -52q-81 0 -132.5 50.5t-51.5 126.5q0 79 53.5 130t137.5 51zM415 0h-332l178 1455h333z" />
    <glyph glyph-name="dotlessi" unicode="&#x131;" horiz-adv-x="541" 
d="M178 1002h307l-123 -1002h-307z" />
    <glyph glyph-name="IJ" unicode="&#x132;" horiz-adv-x="1563" 
d="M415 0h-332l178 1455h333zM820 401q22 -48 55.5 -77t74.5 -29q32 0 56.5 11.5t47.5 39.5t40 81.5t27 132.5l110 895h328l-110 -896q-18 -143 -53.5 -248.5t-94.5 -180.5t-145 -112t-201 -37q-108 0 -202 51.5t-148 148.5z" />
    <glyph glyph-name="ij" unicode="&#x133;" horiz-adv-x="1046" 
d="M891 1496q81 0 132.5 -49.5t51.5 -125.5q0 -79 -53.5 -131t-137.5 -52q-81 0 -132.5 50.5t-51.5 126.5q0 79 53.5 130t137.5 51zM375 1486q81 0 132.5 -49.5t51.5 -125.5q0 -79 -53.5 -131t-137.5 -52q-81 0 -132.5 50.5t-51.5 126.5q0 79 53.5 130t137.5 51zM178 1002
h307l-123 -1002h-307zM395 -139q34 -26 79 -26q44 0 64.5 39t31.5 135l122 993h309l-128 -1037q-24 -205 -111.5 -296.5t-229.5 -91.5q-66 0 -115 11.5t-98 36.5z" />
    <glyph glyph-name="Jcircumflex" unicode="&#x134;" horiz-adv-x="942" 
d="M804 1747l-85 -153h-272l235 311h269l172 -311h-266l-48 153h-5zM500 560l110 895h328l-110 -896q-18 -143 -53.5 -248.5t-94.5 -180.5t-145 -112t-201 -37q-108 0 -202 51.5t-148 148.5l215 220q22 -48 55.5 -77t74.5 -29q32 0 56.5 11.5t47.5 39.5t40 81.5t27 132.5z
" />
    <glyph glyph-name="jcircumflex" unicode="&#x135;" horiz-adv-x="505" 
d="M347 1297l-85 -153h-272l235 311h269l172 -311h-266l-48 153h-5zM29 9l122 993h309l-128 -1037q-24 -205 -111.5 -296.5t-229.5 -91.5q-66 0 -115 11.5t-98 36.5l76 236q34 -26 79 -26q44 0 64.5 39t31.5 135z" />
    <glyph glyph-name="Kcommaaccent" unicode="&#x136;" horiz-adv-x="1252" 
d="M1350 1455l-548 -632l384 -823h-391l-233 541h-5l-107 -124l-50 -417h-327l178 1455h328l-66 -536h5l420 536h412zM443 -109h246q4 -17 4 -47q0 -138 -87 -215t-241 -82l-32 174q62 14 88 40.5t26 79.5q0 12 -4 50z" />
    <glyph glyph-name="kcommaaccent" unicode="&#x137;" horiz-adv-x="1044" 
d="M772 410q17 -53 35.5 -87t42.5 -52.5t48 -26t61 -10.5l-69 -250q-33 -3 -90 -3t-102.5 21t-79 61t-57.5 89.5t-46 117.5l-14 46h-2q-51 -29 -114 -58l-30 -258h-307l185 1508h307l-111 -911h5q116 79 179.5 177.5t94.5 227.5h318q-56 -292 -281 -506zM333 -109h246
q4 -17 4 -47q0 -138 -87 -215t-241 -82l-32 174q62 14 88 40.5t26 79.5q0 12 -4 50z" />
    <glyph glyph-name="kgreenlandic" unicode="&#x138;" horiz-adv-x="1044" 
d="M772 410q17 -53 35.5 -87t42.5 -52.5t48 -26t61 -10.5l-69 -250q-33 -3 -90 -3t-102.5 21t-79 61t-57.5 89.5t-46 117.5l-14 46h-2q-51 -29 -114 -58l-30 -258h-307l123 1002h307l-49 -404h6q115 79 178.5 177.5t94.5 226.5h318q-56 -292 -281 -506z" />
    <glyph glyph-name="Lacute" unicode="&#x139;" horiz-adv-x="1058" 
d="M763 1903l311 2l-265 -306h-286zM975 292l-36 -292h-866l178 1455h330l-142 -1163h536z" />
    <glyph glyph-name="lacute" unicode="&#x13a;" horiz-adv-x="540" 
d="M521 1930l311 2l-265 -306h-286zM244 1508h308l-185 -1508h-308z" />
    <glyph glyph-name="Lcommaaccent" unicode="&#x13b;" horiz-adv-x="1058" 
d="M975 292l-36 -292h-866l178 1455h330l-142 -1163h536zM611 -109q4 -17 4 -47q0 -138 -87 -215t-241 -82l-32 174q62 14 88 40.5t26 79.5q0 12 -4 50h246z" />
    <glyph glyph-name="lcommaaccent" unicode="&#x13c;" horiz-adv-x="540" 
d="M244 1508h308l-185 -1508h-308zM319 -109q4 -17 4 -47q0 -138 -87 -215t-241 -82l-32 174q62 14 88 40.5t26 79.5q0 12 -4 50h246z" />
    <glyph glyph-name="Lcaron" unicode="&#x13d;" horiz-adv-x="1091" 
d="M845 1621h290l-191 -439h-214zM975 292l-36 -292h-866l178 1455h330l-142 -1163h536z" />
    <glyph glyph-name="lcaron" unicode="&#x13e;" horiz-adv-x="633" 
d="M723 1621h290l-190 -439h-215zM244 1508h308l-185 -1508h-308z" />
    <glyph glyph-name="Ldot" unicode="&#x13f;" horiz-adv-x="1061" 
d="M975 292l-36 -292h-866l178 1455h330l-142 -1163h536zM864 881q77 0 128 -50t51 -125q0 -79 -53 -131t-133 -52q-76 0 -127 50.5t-51 126.5q0 78 52.5 129.5t132.5 51.5z" />
    <glyph glyph-name="ldot" unicode="&#x140;" horiz-adv-x="951" 
d="M244 1508h308l-185 -1508h-308zM776 726q77 0 128 -50t51 -125q0 -79 -53 -131t-133 -52q-76 0 -127 50.5t-51 126.5q0 78 52.5 129.5t132.5 51.5z" />
    <glyph glyph-name="Lslash" unicode="&#x141;" horiz-adv-x="1061" 
d="M442 292h536l-36 -292h-866l65 530l-132 -62l32 265l132 63l81 659h330l-60 -492l133 63l-33 -267l-133 -63z" />
    <glyph glyph-name="lslash" unicode="&#x142;" horiz-adv-x="598" 
d="M605 928l-32 -270l-103 -49l-75 -609h-308l56 454l-106 -50l33 270l106 50l96 784h308l-77 -628z" />
    <glyph glyph-name="Nacute" unicode="&#x143;" horiz-adv-x="1403" 
d="M1179 1905l-265 -306h-286l240 304zM1059 1455h327l-179 -1455h-338l-360 860h-3l-106 -860h-327l178 1455h329l366 -883h5z" />
    <glyph glyph-name="nacute" unicode="&#x144;" horiz-adv-x="1111" 
d="M1002 1447l-265 -306h-286l240 304zM798 1020q144 0 201.5 -99.5t29.5 -307.5l-81 -613h-306l72 543q16 103 3 152.5t-62 49.5q-35 0 -74 -24t-75 -69t-64.5 -118.5t-40.5 -162.5l-46 -371h-307l123 1002h307l-18 -146h4q135 164 334 164z" />
    <glyph glyph-name="Ncommaaccent" unicode="&#x145;" horiz-adv-x="1403" 
d="M1059 1455h327l-179 -1455h-338l-360 860h-3l-106 -860h-327l178 1455h329l366 -883h5zM512 -109h246q4 -17 4 -47q0 -138 -87 -215t-241 -82l-32 174q62 14 88 40.5t26 79.5q0 12 -4 50z" />
    <glyph glyph-name="ncommaaccent" unicode="&#x146;" horiz-adv-x="1111" 
d="M798 1020q144 0 201.5 -99.5t29.5 -307.5l-81 -613h-306l72 543q16 103 3 152.5t-62 49.5q-35 0 -74 -24t-75 -69t-64.5 -118.5t-40.5 -162.5l-46 -371h-307l123 1002h307l-18 -146h4q135 164 334 164zM361 -109h246q4 -17 4 -47q0 -138 -87 -215t-241 -82l-32 174
q62 14 88 40.5t26 79.5q0 12 -4 50z" />
    <glyph glyph-name="Ncaron" unicode="&#x147;" horiz-adv-x="1403" 
d="M985 1594h-269l-168 311h266l47 -153h4l87 153h272zM1059 1455h327l-179 -1455h-338l-360 860h-3l-106 -860h-327l178 1455h329l366 -883h5z" />
    <glyph glyph-name="ncaron" unicode="&#x148;" horiz-adv-x="1111" 
d="M805 1134h-269l-168 311h266l47 -153h4l87 153h272zM798 1020q144 0 201.5 -99.5t29.5 -307.5l-81 -613h-306l72 543q16 103 3 152.5t-62 49.5q-35 0 -74 -24t-75 -69t-64.5 -118.5t-40.5 -162.5l-46 -371h-307l123 1002h307l-18 -146h4q135 164 334 164z" />
    <glyph glyph-name="napostrophe" unicode="&#x149;" horiz-adv-x="1367" 
d="M114 1455h290l-191 -459h-214zM1054 1020q144 0 201.5 -99.5t29.5 -307.5l-81 -613h-306l72 543q16 103 3 152.5t-62 49.5q-35 0 -74 -24t-75 -69t-64.5 -118.5t-40.5 -162.5l-46 -371h-307l123 1002h307l-18 -146h4q135 164 334 164z" />
    <glyph glyph-name="Eng" unicode="&#x14a;" horiz-adv-x="1404" 
d="M1059 1455h328l-184 -1490q-26 -207 -115.5 -297.5t-245.5 -90.5q-66 0 -115 11.5t-98 36.5l76 236q36 -26 79 -26q41 0 61 33.5t32 112.5l-367 877h-4l-106 -858h-327l178 1455h329l367 -884h4z" />
    <glyph glyph-name="eng" unicode="&#x14b;" horiz-adv-x="1084" 
d="M771 1020q150 0 203 -102t25 -328l-77 -625q-24 -205 -111 -296.5t-230 -91.5q-66 0 -115 11.5t-98 36.5l76 236q34 -26 79 -26q44 0 64 39t32 135l66 535q17 103 6 152t-65 49q-30 0 -63.5 -23.5t-65 -67.5t-57.5 -115.5t-38 -158.5l-47 -380h-307l123 1002h307
l-16 -134h5q124 152 304 152z" />
    <glyph glyph-name="Omacron" unicode="&#x14c;" horiz-adv-x="1504" 
d="M687 1885h584l-29 -236h-584zM869 1474q132 0 241.5 -41.5t187 -119.5t120.5 -193.5t43 -258.5q0 -144 -33 -275.5t-98.5 -241.5t-157 -191t-216 -126.5t-267.5 -45.5q-133 0 -242.5 41.5t-186.5 119.5t-119.5 195t-42.5 262q0 138 34.5 268t102 239.5t160 192t215 129
t259.5 46.5zM714 287q117 0 210 75t144 201.5t51 277.5q0 163 -76.5 245t-205.5 82q-84 0 -158.5 -46.5t-126.5 -122.5t-82.5 -175.5t-30.5 -204.5q0 -164 75.5 -248t199.5 -84z" />
    <glyph glyph-name="omacron" unicode="&#x14d;" horiz-adv-x="1088" 
d="M383 1425h584l-29 -236h-584zM607 1020q196 0 311.5 -112.5t115.5 -315.5q0 -99 -20.5 -188.5t-65 -167t-109 -134t-157.5 -89t-205 -32.5q-193 0 -308 114t-115 317q0 97 23 187t70 166.5t112 133.5t154.5 89t193.5 32zM582 746q-66 0 -117 -47.5t-76 -119t-25 -150.5
q0 -88 40 -131t96 -43q66 0 118 45.5t79 117t27 154.5q0 43 -9.5 76t-24 51t-35 29t-37.5 14.5t-36 3.5z" />
    <glyph glyph-name="Obreve" unicode="&#x14e;" horiz-adv-x="1504" 
d="M951 1586q-139 0 -222 84.5t-74 231.5h222q-6 -55 13.5 -86.5t63.5 -31.5q48 0 83 33t46 85h222q-27 -141 -121 -228.5t-233 -87.5zM869 1474q132 0 241.5 -41.5t187 -119.5t120.5 -193.5t43 -258.5q0 -144 -33 -275.5t-98.5 -241.5t-157 -191t-216 -126.5t-267.5 -45.5
q-133 0 -242.5 41.5t-186.5 119.5t-119.5 195t-42.5 262q0 138 34.5 268t102 239.5t160 192t215 129t259.5 46.5zM714 287q117 0 210.5 75t144 201.5t50.5 277.5q0 163 -76.5 245t-205.5 82q-83 0 -158 -46.5t-127 -122.5t-82.5 -175.5t-30.5 -204.5q0 -164 75.5 -248
t199.5 -84z" />
    <glyph glyph-name="obreve" unicode="&#x14f;" horiz-adv-x="1088" 
d="M647 1126q-139 0 -222 84.5t-74 231.5h222q-6 -55 13.5 -86.5t63.5 -31.5q48 0 83 33t46 85h222q-27 -141 -121 -228.5t-233 -87.5zM607 1020q196 0 311.5 -112.5t115.5 -315.5q0 -99 -20.5 -188.5t-65 -167t-109 -134t-157.5 -89t-205 -32.5q-193 0 -308 114t-115 317
q0 97 23 187t70 166.5t112 133.5t154.5 89t193.5 32zM582 746q-66 0 -117 -47.5t-76 -119t-25 -150.5q0 -88 40 -131t96 -43q66 0 118 45.5t79 117t27 154.5q0 53 -14 90t-37 54t-45 23.5t-46 6.5z" />
    <glyph glyph-name="Ohungarumlaut" unicode="&#x150;" horiz-adv-x="1504" 
d="M791 1903l303 2l-264 -306h-278zM1215 1903l303 2l-264 -306h-277zM869 1474q132 0 241.5 -41.5t187 -119.5t120.5 -193.5t43 -258.5q0 -144 -33 -275.5t-98.5 -241.5t-157 -191t-216 -126.5t-267.5 -45.5q-133 0 -242.5 41.5t-186.5 119.5t-119.5 195t-42.5 262
q0 138 34.5 268t102 239.5t160 192t215 129t259.5 46.5zM714 287q117 0 210 75t144 201.5t51 277.5q0 163 -76.5 245t-205.5 82q-83 0 -158 -46.5t-127 -122.5t-82.5 -175.5t-30.5 -204.5q0 -164 75.5 -248t199.5 -84z" />
    <glyph glyph-name="ohungarumlaut" unicode="&#x151;" horiz-adv-x="1093" 
d="M502 1445l303 2l-264 -306h-278zM926 1445l303 2l-264 -306h-277zM607 1020q196 0 311.5 -112.5t115.5 -315.5q0 -99 -20.5 -188.5t-65 -167t-109 -134t-157.5 -89t-205 -32.5q-193 0 -308 114t-115 317q0 97 23 187t70 166.5t112 133.5t154.5 89t193.5 32zM582 746
q-66 0 -117 -47.5t-76 -119t-25 -150.5q0 -88 40 -131t96 -43q66 0 118 45.5t79 117t27 154.5q0 43 -9.5 76t-24 51t-35 29t-37.5 14.5t-36 3.5z" />
    <glyph glyph-name="OE" unicode="&#x152;" horiz-adv-x="1773" 
d="M1738 1162h-534l-37 -297h419l-36 -288h-418l-35 -285h572l-35 -292h-946q-177 0 -310.5 71t-206.5 206t-73 318q0 141 35 271t102.5 236.5t160 186t214.5 123t260 43.5h904zM715 306h64l103 843h-41q-113 0 -206 -73t-144.5 -194.5t-51.5 -261.5q0 -152 76 -233t200 -81
z" />
    <glyph glyph-name="oe" unicode="&#x153;" horiz-adv-x="1489" 
d="M1059 235q37 0 81 22.5t83 76.5l226 -136q-148 -216 -416 -216q-202 0 -305 140h-6q-127 -140 -315 -140q-170 0 -272.5 112t-102.5 316q0 173 65 312.5t181.5 218.5t260.5 79q188 0 278 -138h5q136 138 334 138q65 0 123.5 -16t106.5 -47.5t76.5 -84.5t28.5 -121
q0 -66 -29.5 -124t-80.5 -102t-124 -81.5t-153.5 -64t-176.5 -47.5q18 -48 55 -72.5t77 -24.5zM1129 765q-62 0 -120 -65t-82 -170l7 -4q61 18 105 35.5t81.5 40t56.5 50t19 60.5q0 22 -17.5 37.5t-49.5 15.5zM442 255q75 0 133.5 93.5t58.5 234.5q0 85 -30.5 124.5
t-82.5 39.5q-50 0 -93 -47t-67.5 -122.5t-24.5 -159.5q0 -45 10 -78.5t26.5 -51t34 -25.5t35.5 -8z" />
    <glyph glyph-name="Racute" unicode="&#x154;" horiz-adv-x="1230" 
d="M1072 1905l-265 -306h-286l240 304zM888 535l-1 -4l243 -531h-365l-200 476h-112l-58 -476h-322l178 1455h520q106 0 186 -29.5t128.5 -84.5t72 -127t23.5 -162q0 -181 -75.5 -315.5t-217.5 -201.5zM537 1165l-49 -401h129q101 0 162 70.5t61 180.5q0 75 -43 112.5
t-109 37.5h-151z" />
    <glyph glyph-name="racute" unicode="&#x155;" horiz-adv-x="714" 
d="M786 1448l-265 -306h-286l240 304zM466 864q120 156 285 156l-43 -340q-115 41 -200 -44t-108 -270l-45 -366h-307l123 1002h307l-17 -138h5z" />
    <glyph glyph-name="Rcommaaccent" unicode="&#x156;" horiz-adv-x="1230" 
d="M888 535l-1 -4l243 -531h-365l-200 476h-112l-58 -476h-322l178 1455h520q106 0 186 -29.5t128.5 -84.5t72 -127t23.5 -162q0 -181 -75.5 -315.5t-217.5 -201.5zM537 1165l-49 -401h129q101 0 162 70.5t61 180.5q0 75 -43 112.5t-109 37.5h-151zM429 -109h246
q4 -17 4 -47q0 -138 -87 -215t-241 -82l-32 174q62 14 88 40.5t26 79.5q0 12 -4 50z" />
    <glyph glyph-name="rcommaaccent" unicode="&#x157;" horiz-adv-x="714" 
d="M466 864q120 156 285 156l-43 -340q-115 41 -200 -44t-108 -270l-45 -366h-307l123 1002h307l-17 -138h5zM60 -109h246q4 -17 4 -47q0 -138 -87 -215t-241 -82l-32 174q62 14 88 40.5t26 79.5q0 12 -4 50z" />
    <glyph glyph-name="Rcaron" unicode="&#x158;" horiz-adv-x="1230" 
d="M878 1594h-269l-168 311h266l47 -153h4l87 153h272zM888 535l-1 -4l243 -531h-365l-200 476h-112l-58 -476h-322l178 1455h520q106 0 186 -29.5t128.5 -84.5t72 -127t23.5 -162q0 -181 -75.5 -315.5t-217.5 -201.5zM537 1165l-49 -401h129q101 0 162 70.5t61 180.5
q0 75 -43 112.5t-109 37.5h-151z" />
    <glyph glyph-name="rcaron" unicode="&#x159;" horiz-adv-x="714" 
d="M659 1134h-269l-168 311h266l47 -153h4l87 153h272zM466 864q120 156 285 156l-43 -340q-115 41 -200 -44t-108 -270l-45 -366h-307l123 1002h307l-17 -138h5z" />
    <glyph glyph-name="Sacute" unicode="&#x15a;" horiz-adv-x="1108" 
d="M750 1903l311 2l-265 -306h-286zM641 889l77 -44.5l75 -43t65.5 -41.5t61 -45.5t48.5 -48.5t39 -58t22.5 -66.5t9.5 -79.5q0 -151 -68 -261t-186 -165t-272 -55q-97 0 -188.5 26.5t-176 86t-140.5 147.5l234 206q49 -84 123.5 -128.5t149.5 -44.5q83 0 132.5 40t49.5 98
q0 18 -7.5 34.5t-17 28.5t-34.5 29.5t-44 29l-61 36.5l-34 19l-31 18l-54.5 32l-51.5 32t-51 35.5l-45 38t-42 43.5t-33.5 47.5t-27.5 55t-15.5 61t-6.5 70.5q0 102 39 187.5t106.5 143t158 89.5t193.5 32q132 0 252.5 -57.5t193.5 -165.5l-232 -197q-54 74 -110.5 101.5
t-116.5 27.5q-63 0 -103.5 -35.5t-38.5 -88.5q2 -44 36 -81t122 -89z" />
    <glyph glyph-name="sacute" unicode="&#x15b;" horiz-adv-x="853" 
d="M547 1445l311 2l-265 -306h-286zM161 332q44 -53 107 -86t121 -33q41 0 66 14.5t25 40.5q0 24 -25 41.5t-105 57.5q-16 9 -25 13q-123 63 -184 133t-61 173q0 98 50 175t134.5 118.5t186.5 41.5q105 0 200 -41t161 -120l-185 -176q-38 53 -84 76.5t-88 24.5
q-33 1 -56.5 -16t-23.5 -45q0 -24 34 -49t107 -61q52 -26 87.5 -47t71 -49.5t56 -58t33.5 -68t13 -84.5q1 -148 -106.5 -237t-289.5 -89q-112 0 -220.5 46t-171.5 126z" />
    <glyph glyph-name="Scircumflex" unicode="&#x15c;" horiz-adv-x="1108" 
d="M693 1747l-85 -153h-272l235 311h269l172 -311h-266l-48 153h-5zM641 889l77 -44.5l75 -43t65.5 -41.5t61 -45.5t48.5 -48.5t39.5 -58t22.5 -66.5t9 -79.5q0 -151 -68 -261t-186 -165t-272 -55q-97 0 -188.5 26.5t-176 86t-140.5 147.5l234 206q49 -84 123.5 -128.5
t149.5 -44.5q83 0 132.5 40t49.5 98q0 18 -7.5 34.5t-17 28.5t-34.5 29.5t-44 29l-61 36.5l-34 19l-31 18l-54.5 32l-51.5 32t-51 35.5l-45 38t-42 43.5t-33.5 47.5t-27.5 55t-15.5 61t-6.5 70.5q0 102 39 187.5t106.5 143t158 89.5t193.5 32q132 0 252.5 -57.5
t193.5 -165.5l-232 -197q-54 74 -110.5 101.5t-116.5 27.5q-63 0 -103 -35.5t-39 -88.5q2 -44 36 -81t122 -89z" />
    <glyph glyph-name="scircumflex" unicode="&#x15d;" horiz-adv-x="853" 
d="M516 1289l-85 -153h-272l235 311h269l172 -311h-266l-48 153h-5zM455 785q-33 1 -56.5 -16t-23.5 -45q0 -24 34 -49t107 -61q52 -26 87.5 -47t71 -49.5t56 -58t33.5 -68t13 -84.5q1 -148 -106.5 -237t-289.5 -89q-112 0 -220 46t-172 126l172 179q44 -53 107 -86t121 -33
q41 0 66 14.5t25 40.5q0 24 -24.5 41.5t-105.5 57.5q-16 9 -25 13q-123 62 -184 132.5t-61 173.5q0 98 50 175t134.5 118.5t186.5 41.5q105 0 200 -41t161 -120l-185 -176q-38 53 -84 76.5t-88 24.5z" />
    <glyph glyph-name="Scedilla" unicode="&#x15e;" horiz-adv-x="1108" 
d="M641 889l77 -44.5l75 -43t65.5 -41.5t61 -45.5t48.5 -48.5t39.5 -58t22.5 -66.5t9 -79.5q0 -149 -66.5 -258.5t-181.5 -165t-266 -57.5l-32 -43l1 -1q156 -6 156 -136q0 -92 -69.5 -143.5t-187.5 -51.5q-58 0 -119 13l6 125q33 -12 85 -12q47 0 74.5 18.5t27.5 49.5
q0 26 -32 38t-101 12l3 77l41 68q-114 23 -210.5 84.5t-159.5 161.5l234 206q49 -84 123.5 -128.5t149.5 -44.5q83 0 132.5 40t49.5 98q0 18 -7.5 34.5t-17 28.5t-34.5 29.5t-44 29l-62 36.5l-33 19l-31 18l-54.5 32l-51.5 32t-51 35.5l-45 38t-42 43.5t-33.5 47.5t-27.5 55
t-15.5 61t-6.5 70.5q0 102 39 187.5t106.5 143t158 89.5t193.5 32q132 0 252.5 -57.5t193.5 -165.5l-232 -197q-54 74 -110.5 101.5t-116.5 27.5q-63 0 -103.5 -35.5t-38.5 -88.5q1 -44 35.5 -81t122.5 -89z" />
    <glyph glyph-name="scedilla" unicode="&#x15f;" horiz-adv-x="853" 
d="M516 614q52 -26 87.5 -47t71 -49.5t56 -58t33.5 -68t13 -84.5q1 -148 -106.5 -237t-289.5 -89h-3l-32 -43l1 -1q156 -6 156 -136q0 -92 -69.5 -143.5t-187.5 -51.5q-58 0 -119 13l6 125q33 -12 85 -12q47 0 74.5 18.5t27.5 49.5q0 26 -32 38t-101 12l3 77l45 74
q-75 20 -139.5 59t-106.5 93l172 179q44 -53 107 -86t121 -33q41 0 66 14.5t25 40.5q0 24 -25 41.5t-105 57.5q-16 9 -25 13q-123 62 -184 132.5t-61 173.5q0 98 50 175t134.5 118.5t186.5 41.5q105 0 200 -41t161 -120l-185 -176q-38 53 -84 76.5t-88 24.5q-33 1 -56.5 -16
t-23.5 -45q0 -24 34 -49t107 -61z" />
    <glyph glyph-name="Scaron" unicode="&#x160;" horiz-adv-x="1108" 
d="M814 1594h-269l-168 311h266l47 -153h4l87 153h272zM641 889l77 -44.5l74.5 -43t65.5 -41.5t61.5 -45.5t48.5 -48.5t39 -58t22.5 -66.5t9.5 -79.5q0 -151 -68 -261t-186 -165t-272 -55q-97 0 -188.5 26.5t-176 86t-140.5 147.5l234 206q49 -84 123.5 -128.5t149.5 -44.5
q83 0 132.5 40t49.5 98q0 18 -7.5 34.5t-17 28.5t-34.5 29.5t-44 29l-62 36.5l-33 19l-31 18l-54.5 32l-51.5 32t-51 35.5l-45 38t-42 43.5t-33.5 47.5t-27.5 55t-15.5 61t-6.5 70.5q0 102 39 187.5t106.5 143t158 89.5t193.5 32q132 0 252.5 -57.5t193.5 -165.5l-232 -197
q-54 74 -110.5 101.5t-116.5 27.5q-63 0 -103.5 -35.5t-38.5 -88.5q1 -44 35.5 -81t122.5 -89z" />
    <glyph glyph-name="scaron" unicode="&#x161;" horiz-adv-x="853" 
d="M637 1136h-269l-168 311h266l47 -153h4l87 153h272zM455 785q-33 1 -56.5 -16t-23.5 -45q0 -24 34 -49t107 -61q52 -26 87.5 -47t71 -49.5t56 -58t33.5 -68t13 -84.5q1 -148 -106.5 -237t-289.5 -89q-112 0 -220.5 46t-171.5 126l172 179q44 -53 107 -86t121 -33
q41 0 66 14.5t25 40.5q0 24 -25 41.5t-105 57.5q-16 9 -25 13q-123 62 -184 132.5t-61 173.5q0 98 50 175t134.5 118.5t186.5 41.5q105 0 200 -41t161 -120l-185 -176q-38 53 -84 76.5t-88 24.5z" />
    <glyph glyph-name="uni0162" unicode="&#x162;" horiz-adv-x="1094" 
d="M160 1455h1006l-35 -293h-340l-142 -1162h-121l-46 -62l1 -1q156 -6 156 -136q0 -92 -69.5 -143.5t-187.5 -51.5q-58 0 -119 13l6 125q33 -12 85 -12q47 0 74.5 18.5t27.5 49.5q0 26 -32 38t-101 12l3 77l45 73h-50l143 1162h-339z" />
    <glyph glyph-name="uni0163" unicode="&#x163;" horiz-adv-x="724" 
d="M466 753l-49 -411q-5 -41 7 -62t38 -21q39 0 101 31l50 -237q-123 -69 -256 -72l-32 -43l1 -1q156 -6 156 -136q0 -92 -69.5 -143.5t-187.5 -51.5q-58 0 -119 13l6 125q33 -12 85 -12q47 0 74.5 18t27.5 50q0 26 -32 38t-101 12l3 77l49 80q-142 67 -114 294l54 452h-100
l30 249h101l37 292l315 62l-44 -354h207l-30 -249h-208z" />
    <glyph glyph-name="Tcaron" unicode="&#x164;" horiz-adv-x="1094" 
d="M813 1594h-269l-168 311h266l47 -153h4l87 153h272zM160 1455h1006l-35 -293h-340l-142 -1162h-328l143 1162h-339z" />
    <glyph glyph-name="tcaron" unicode="&#x165;" horiz-adv-x="723" 
d="M730 1621h289l-190 -439h-215zM563 290l50 -237q-129 -72 -270 -72q-60 0 -107 18t-81 55t-47.5 100t-3.5 147l54 452h-100l30 249h101l37 292l315 62l-44 -354h207l-30 -249h-208l-49 -411q-5 -41 7 -62t38 -21q39 0 101 31z" />
    <glyph glyph-name="Tbar" unicode="&#x166;" horiz-adv-x="1094" 
d="M1131 1162h-340l-38 -311h212l-31 -244h-211l-74 -607h-328l75 607h-196l31 244h195l38 311h-339l35 293h1006z" />
    <glyph glyph-name="tbar" unicode="&#x167;" horiz-adv-x="724" 
d="M674 753h-208l-15 -129h162l-23 -185h-161l-12 -97q-5 -41 7 -62t38 -21q39 0 101 31l50 -237q-129 -72 -270 -72q-60 0 -107 18t-81 55t-47.5 100t-3.5 147l16 138h-83l23 185h83l15 129h-100l30 249h101l37 292l315 62l-44 -354h207z" />
    <glyph glyph-name="Utilde" unicode="&#x168;" horiz-adv-x="1329" 
d="M436 1666q46 113 114.5 179.5t150.5 66.5q17 0 32.5 -1.5t29 -6l23 -7.5t21.5 -10t17 -10.5l16.5 -11.5t13.5 -9q22 -15 33 -21.5t26 -12t28 -5.5q36 0 68 28t54 74l171 -70q-45 -121 -112.5 -192t-147.5 -71q-11 0 -22.5 1t-20 2.5t-19 5l-17 5.5t-16.5 7.5t-14 7.5
t-13.5 8.5t-12 8t-12 8t-10.5 7.5q-52 37 -88 37t-67 -28.5t-54 -75.5zM1224 601q-20 -168 -69 -287.5t-127.5 -192.5t-181.5 -106.5t-239 -33.5q-245 0 -363.5 134.5t-118.5 382.5q0 64 10 152l100 805h327l-99 -803q-8 -69 -8 -122q0 -242 176 -242q76 0 128.5 29t88 101
t50.5 191l104 846h327z" />
    <glyph glyph-name="utilde" unicode="&#x169;" horiz-adv-x="1086" 
d="M552 1224q-36 0 -67 -28.5t-54 -75.5l-172 86q47 113 115 179.5t150 66.5q17 0 32.5 -1.5t29 -6l23 -7.5t21.5 -10t17 -10.5l16.5 -11.5t13.5 -9q22 -15 33 -21.5t26 -12t28 -5.5q36 0 68 28t54 74l171 -70q-45 -121 -112.5 -192t-147.5 -71q-11 0 -22.5 1t-20 2.5t-19 5
l-17 5.5t-16.5 7.5t-14 7.5t-13.5 8.5t-12 8t-12 8t-10.5 7.5q-52 37 -88 37zM684 546l56 456h307l-123 -1002h-307l18 148h-3q-118 -167 -298 -167q-58 0 -102 13t-79 42t-54 75t-26 113t5 155l75 623h306l-65 -531q-16 -122 -2 -168.5t67 -46.5q43 0 92 42t86.5 110.5
t46.5 137.5z" />
    <glyph glyph-name="Umacron" unicode="&#x16a;" horiz-adv-x="1329" 
d="M549 1885h584l-29 -236h-584zM1224 601q-20 -168 -69 -287.5t-127.5 -192.5t-181.5 -106.5t-239 -33.5q-245 0 -363.5 134.5t-118.5 382.5q0 64 10 152l100 805h327l-99 -803q-8 -69 -8 -122q0 -242 176 -242q76 0 128.5 29t88 101t50.5 191l104 846h327z" />
    <glyph glyph-name="umacron" unicode="&#x16b;" horiz-adv-x="1086" 
d="M956 1425l-29 -236h-584l29 236h584zM740 1002h307l-123 -1002h-307l18 148h-3q-118 -167 -298 -167q-58 0 -102 13t-79 42t-54 75t-26 113t5 155l75 623h306l-65 -531q-16 -122 -2 -168.5t67 -46.5q43 0 92 42t86.5 110.5t46.5 137.5z" />
    <glyph glyph-name="Ubreve" unicode="&#x16c;" horiz-adv-x="1329" 
d="M813 1586q-139 0 -222 84.5t-74 231.5h222q-6 -55 13.5 -86.5t63.5 -31.5q48 0 83 33t46 85h222q-27 -141 -121 -228.5t-233 -87.5zM1224 601q-20 -168 -69 -287.5t-127.5 -192.5t-181.5 -106.5t-239 -33.5q-245 0 -363.5 134.5t-118.5 382.5q0 64 10 152l100 805h327
l-99 -803q-8 -69 -8 -122q0 -242 176 -242q76 0 128.5 29t88 101t50.5 191l104 846h327z" />
    <glyph glyph-name="ubreve" unicode="&#x16d;" horiz-adv-x="1086" 
d="M636 1126q-139 0 -222 84.5t-74 231.5h222q-6 -55 13.5 -86.5t63.5 -31.5q48 0 83 33t46 85h222q-27 -141 -121 -228.5t-233 -87.5zM740 1002h307l-123 -1002h-307l18 148h-3q-118 -167 -298 -167q-58 0 -102 13t-79 42t-54 75t-26 113t5 155l75 623h306l-65 -531
q-16 -122 -2 -168.5t67 -46.5q43 0 92 42t86.5 110.5t46.5 137.5z" />
    <glyph glyph-name="Uring" unicode="&#x16e;" horiz-adv-x="1329" 
d="M833 1986q91 0 152.5 -60t61.5 -150q0 -94 -63.5 -157.5t-157.5 -63.5q-91 0 -152.5 61.5t-61.5 152.5q0 93 63 155t158 62zM831 1846q-33 0 -54.5 -22t-21.5 -54t21 -52.5t53 -20.5t54 22t22 54q0 30 -21.5 51.5t-52.5 21.5zM1224 601q-20 -168 -69 -287.5
t-127.5 -192.5t-181.5 -106.5t-239 -33.5q-245 0 -363.5 134.5t-118.5 382.5q0 64 10 152l100 805h327l-99 -803q-8 -69 -8 -122q0 -242 176 -242q76 0 128.5 29t88 101t50.5 191l104 846h327z" />
    <glyph glyph-name="uring" unicode="&#x16f;" horiz-adv-x="1086" 
d="M649 1095q-91 0 -152.5 61.5t-61.5 152.5q0 93 63 155t158 62q91 0 152.5 -60t61.5 -150q0 -94 -63.5 -157.5t-157.5 -63.5zM654 1386q-33 0 -54.5 -22t-21.5 -54t21 -52.5t53 -20.5t54 22t22 54q0 30 -21.5 51.5t-52.5 21.5zM740 1002h307l-123 -1002h-307l18 148h-3
q-118 -167 -298 -167q-58 0 -102 13t-79 42t-54 75t-26 113t5 155l75 623h306l-65 -531q-16 -122 -2 -168.5t67 -46.5q43 0 92 42t86.5 110.5t46.5 137.5z" />
    <glyph glyph-name="Uhungarumlaut" unicode="&#x170;" horiz-adv-x="1329" 
d="M634 1903l303 2l-264 -306h-278zM1058 1903l303 2l-264 -306h-277zM1224 601q-20 -168 -69 -287.5t-127.5 -192.5t-181.5 -106.5t-239 -33.5q-245 0 -363.5 134.5t-118.5 382.5q0 64 10 152l100 805h327l-99 -803q-8 -69 -8 -122q0 -242 176 -242q76 0 128.5 29t88 101
t50.5 191l104 846h327z" />
    <glyph glyph-name="uhungarumlaut" unicode="&#x171;" horiz-adv-x="1093" 
d="M783 1447l-264 -306h-278l239 304zM943 1141h-277l238 304l303 2zM684 546l56 456h307l-123 -1002h-307l18 148h-3q-118 -167 -298 -167q-58 0 -102 13t-79 42t-54 75t-26 113t5 155l75 623h306l-65 -531q-16 -122 -2 -168.5t67 -46.5q43 0 92 42t86.5 110.5t46.5 137.5z
" />
    <glyph glyph-name="Uogonek" unicode="&#x172;" horiz-adv-x="1329" 
d="M1002 1455h327l-105 -854q-32 -259 -131 -402t-269 -191q-82 -28 -138.5 -78.5t-56.5 -104.5q0 -23 13.5 -36.5t36.5 -13.5q30 0 69 14l4 -158q-58 -22 -152 -22q-98 0 -148.5 41.5t-50.5 119.5q0 55 32 111.5t84 101.5l1 3q-199 24 -296 156t-97 356q0 64 10 152
l100 805h327l-99 -803q-8 -69 -8 -122q0 -242 176 -242q76 0 128.5 29t88 101t50.5 191z" />
    <glyph glyph-name="uogonek" unicode="&#x173;" horiz-adv-x="1086" 
d="M740 1002h307l-123 -1002h-19q-79 -7 -138.5 -61t-59.5 -114q0 -50 50 -50q37 0 69 14l4 -158q-58 -22 -152 -22q-97 0 -148 41.5t-51 119.5q0 65 38.5 129.5t100.5 108.5l17 140h-3q-118 -167 -298 -167q-58 0 -102 13t-79 42t-54 75t-26 113t5 155l75 623h306l-65 -531
q-16 -122 -2 -168.5t67 -46.5q43 0 92 42t86.5 110.5t46.5 137.5z" />
    <glyph glyph-name="Wcircumflex" unicode="&#x174;" horiz-adv-x="1900" 
d="M1091 1747l-85 -153h-272l235 311h269l172 -311h-266l-48 153h-5zM1640 1455h350l-587 -1455h-301l-94 918h-5l-326 -918h-300l-230 1455h341l104 -890h5l297 890h347l78 -888h4z" />
    <glyph glyph-name="wcircumflex" unicode="&#x175;" horiz-adv-x="1466" 
d="M833 1287l-85 -153h-272l235 311h269l172 -311h-266l-48 153h-5zM1426 1002q25 -145 13 -314q-8 -111 -31 -206t-56 -166.5t-76.5 -128.5t-91.5 -95t-103 -63.5t-110 -36.5t-112 -11q-196 0 -243 176h-5q-55 -90 -123 -133t-157 -43q-103 0 -168 54.5t-87 145.5t-7 212
l75 609h305l-64 -523q-14 -106 -4.5 -164.5t47.5 -58.5q48 0 100 81t71 228l53 437h296l-67 -544q-14 -109 -4.5 -155.5t46.5 -46.5q18 0 39.5 13t47.5 48t49 86t43 136.5t30 191.5q10 113 -13 271h307z" />
    <glyph glyph-name="Ycircumflex" unicode="&#x176;" horiz-adv-x="1181" 
d="M740 1747l-85 -153h-272l235 311h269l172 -311h-266l-48 153h-5zM921 1455h382l-530 -820l-80 -635h-332l80 635l-325 820h365l159 -500h6z" />
    <glyph glyph-name="ycircumflex" unicode="&#x177;" horiz-adv-x="1085" 
d="M634 1287l-85 -153h-272l235 311h269l172 -311h-266l-48 153h-5zM739 1002h307l-107 -866q-68 -560 -567 -560q-203 0 -361 97l96 232q113 -77 250 -77q45 0 78.5 7t67 27.5t57.5 55t43.5 92t30.5 137.5h-4q-119 -166 -301 -166q-58 0 -102 13t-79 42t-54 75t-26 113
t5 155l76 623h305l-64 -531q-16 -122 -2 -168.5t67 -46.5q44 -1 93.5 41t87 109t47.5 136z" />
    <glyph glyph-name="Ydieresis" unicode="&#x178;" horiz-adv-x="1181" 
d="M518 1588q-81 0 -132.5 50.5t-51.5 126.5q0 79 53.5 130t137.5 51q81 0 132.5 -49.5t51.5 -125.5q0 -79 -53.5 -131t-137.5 -52zM962 1588q-81 0 -132.5 50.5t-51.5 126.5q0 79 53.5 130t137.5 51q81 0 132.5 -49.5t51.5 -125.5q0 -79 -53.5 -131t-137.5 -52zM921 1455
h382l-530 -820l-80 -635h-332l80 635l-325 820h365l159 -500h6z" />
    <glyph glyph-name="Zacute" unicode="&#x179;" horiz-adv-x="1158" 
d="M1056 1905l-265 -306h-286l240 304zM1161 1205l-701 -905l-1 -8h587l-36 -292h-987l29 256l687 900l1 6h-557l36 293h970z" />
    <glyph glyph-name="zacute" unicode="&#x17a;" horiz-adv-x="908" 
d="M882 1447l-265 -306h-286l240 304zM880 798l-453 -547v-6q222 -10 393 -61l-72 -241q-155 36 -329.5 46.5t-420.5 10.5l23 205l443 545l1 7h-339l30 245h747z" />
    <glyph glyph-name="Zdotaccent" unicode="&#x17b;" horiz-adv-x="1158" 
d="M737 1588q-81 0 -132.5 50.5t-51.5 126.5q0 79 53.5 130t137.5 51q81 0 132.5 -49.5t51.5 -125.5q0 -79 -53.5 -131t-137.5 -52zM1161 1205l-701 -905l-1 -8h587l-36 -292h-987l29 256l687 900l1 6h-557l36 293h970z" />
    <glyph glyph-name="zdotaccent" unicode="&#x17c;" horiz-adv-x="908" 
d="M554 1128q-81 0 -132.5 50.5t-51.5 126.5q0 79 53.5 130t137.5 51q81 0 132.5 -49.5t51.5 -125.5q0 -79 -53.5 -131t-137.5 -52zM880 798l-453 -547v-6q222 -10 393 -61l-72 -241q-155 36 -329.5 46.5t-420.5 10.5l23 205l443 545l1 7h-339l30 245h747z" />
    <glyph glyph-name="Zcaron" unicode="&#x17d;" horiz-adv-x="1158" 
d="M862 1594h-269l-168 311h266l47 -153h4l87 153h272zM1161 1205l-701 -905l-1 -8h587l-36 -292h-987l29 256l687 900l1 6h-557l36 293h970z" />
    <glyph glyph-name="zcaron" unicode="&#x17e;" horiz-adv-x="908" 
d="M679 1134h-269l-168 311h266l47 -153h4l87 153h272zM126 757l30 245h747l-23 -204l-453 -547v-6q222 -10 393 -61l-72 -241q-155 36 -329.5 46.5t-420.5 10.5l23 205l443 545l1 7h-339z" />
    <glyph glyph-name="longs" unicode="&#x17f;" horiz-adv-x="666" 
d="M718 1225q-53 37 -104 37q-43 0 -66 -32.5t-34 -125.5l-136 -1104h-308l92 753h-84l30 249h85l21 167q21 176 108 267t235 91q141 0 238 -78z" />
    <glyph glyph-name="uni018F" unicode="&#x18f;" horiz-adv-x="1277" 
d="M685 1474q165 0 294 -76.5t200.5 -215.5t71.5 -316q0 -148 -34 -282t-100.5 -243.5t-160 -190t-218.5 -125t-269 -44.5q-93 0 -171.5 27t-131 74t-81.5 109.5t-29 132.5q0 87 26 161t71.5 130t109.5 100t137.5 73.5t157.5 49t167.5 27.5t169.5 7q18 0 30 -1
q-5 152 -75 231.5t-195 79.5q-64 0 -122 -22t-125 -76l-196 225q101 75 215 120t258 45zM524 292q121 0 218 85t145 228l-1 2l3 3v1h-16q-96 1 -177 -12t-134.5 -35.5t-91 -52.5t-54.5 -61t-17 -63q0 -41 31.5 -68t93.5 -27z" />
    <glyph glyph-name="florin" unicode="&#x192;" horiz-adv-x="983" 
d="M890 1260q-53 0 -90 -41t-58 -134l-26 -122h221l-65 -252h-223l-164 -694q-43 -179 -141.5 -266.5t-264.5 -87.5q-118 0 -191 30t-97 62l121 198q67 -25 117 -25q63 0 101.5 40.5t60.5 134.5l143 608h-142l67 252h139l50 210q84 353 394 353q62 0 115.5 -10t87.5 -26
t54.5 -30t30.5 -27l-122 -198q-69 25 -118 25z" />
    <glyph glyph-name="uni019D" unicode="&#x19d;" horiz-adv-x="1403" 
d="M1059 1455h327l-179 -1455h-338l-359 860h-4l-110 -895q-26 -207 -116 -297.5t-245 -90.5q-66 0 -115 11.5t-98 36.5l76 236q34 -26 79 -26q44 0 64.5 39t32.5 135l177 1446h329l367 -884h4z" />
    <glyph glyph-name="Ohorn" unicode="&#x1a0;" horiz-adv-x="1637" 
d="M1472 1587h250l-23 -177q-20 -160 -87 -249.5t-170 -109.5l-2 -4q21 -85 21 -186q0 -144 -33 -275.5t-98.5 -241.5t-157 -191t-216 -126.5t-267.5 -45.5q-133 0 -242.5 41.5t-186.5 119.5t-119.5 195t-42.5 262q0 138 34.5 268t102 239.5t160 192t215 129t259.5 46.5
q173 0 305 -70t206 -201l6 -1q18 17 31.5 54.5t19 70.5t14.5 98zM714 287q117 0 210 75t144 201.5t51 277.5q0 163 -76.5 245t-205.5 82q-84 0 -158.5 -46.5t-126.5 -122.5t-82.5 -175.5t-30.5 -204.5q0 -164 75.5 -248t199.5 -84z" />
    <glyph glyph-name="ohorn" unicode="&#x1a1;" horiz-adv-x="1285" 
d="M1099 1159h250l-23 -177q-21 -173 -98.5 -264t-194.5 -100q1 -9 1 -26q0 -99 -20.5 -188.5t-65 -167t-109 -134t-157.5 -89t-205 -32.5q-193 0 -308 114t-115 317q0 97 23 187t70 166.5t112 133.5t154.5 89t193.5 32q147 0 251 -64.5t147 -185.5h2q30 22 44 75t27 152z
M500 255q66 0 118 45.5t79 117t27 154.5q0 43 -9.5 76t-24 51t-35 29t-37.5 14.5t-36 3.5q-66 0 -117 -47.5t-76 -119t-25 -150.5q0 -88 40 -131t96 -43z" />
    <glyph glyph-name="Uhorn" unicode="&#x1af;" horiz-adv-x="1560" 
d="M1455 1587h250l-23 -177q-22 -183 -107 -274t-212 -91q-44 0 -83 10l-56 -454q-20 -168 -69 -287.5t-127.5 -192.5t-181.5 -106.5t-239 -33.5q-245 0 -363.5 134.5t-118.5 382.5q0 64 10 152l100 805h327l-99 -803q-8 -69 -8 -122q0 -242 176 -242q76 0 128.5 29t88 101
t50.5 191l104 846h327l-33 -266q13 -4 27 -4q19 0 33.5 7.5t25.5 26t18.5 36t14 50t10 55.5l9.5 65z" />
    <glyph glyph-name="uhorn" unicode="&#x1b0;" horiz-adv-x="1359" 
d="M1169 1159h250l-23 -177q-22 -183 -107 -274t-212 -91q-44 0 -76 8l-77 -625h-307l18 148h-3q-118 -167 -298 -167q-58 0 -102 13t-79 42t-54 75t-26 113t5 155l75 623h306l-65 -531q-16 -122 -2 -168.5t67 -46.5q43 0 92 42t86.5 110.5t46.5 137.5l56 456h307l-30 -243
q14 -2 20 -2q19 0 33.5 7.5t25.5 26t18.5 36t14 50t10 55.5l9.5 65z" />
    <glyph glyph-name="Gcaron" unicode="&#x1e6;" horiz-adv-x="1383" 
d="M1026 1592h-269l-168 311h266l47 -153h4l87 153h272zM727 536l34 274h554l-76 -653q-99 -79 -245.5 -127.5t-298.5 -48.5q-102 0 -191.5 23.5t-164 72.5t-128 120.5t-83.5 171.5t-30 221q0 145 35.5 278.5t103 243t160 191t213 126.5t255.5 45q155 0 287.5 -68
t209.5 -196l-253 -192q-44 66 -111 106.5t-152 40.5q-89 0 -165 -46.5t-127.5 -124t-80.5 -177.5t-29 -208q0 -158 71.5 -241.5t200.5 -83.5q116 0 226 70l26 182h-241z" />
    <glyph glyph-name="gcaron" unicode="&#x1e7;" horiz-adv-x="1118" 
d="M793 1134h-269l-168 311h266l47 -153h4l87 153h272zM770 1002h308l-107 -873q-16 -130 -56 -228.5t-94 -159.5t-126.5 -99t-145.5 -52t-160 -14q-206 0 -364 97l96 240q124 -77 256 -77q49 0 85.5 7.5t72 28t60 56.5t43.5 94.5t29 140.5l4 29h-5q-55 -83 -128.5 -131.5
t-159.5 -48.5q-79 0 -142 31t-102.5 85t-60.5 124t-21 150q0 127 37.5 242t100.5 197.5t150.5 131t183.5 48.5q150 0 234 -87h4zM476 285q84 0 160.5 104t101.5 273l2 15q-69 70 -162 70q-49 0 -91 -30.5t-69 -78t-42 -102t-15 -104.5q0 -71 31 -109t84 -38z" />
    <glyph glyph-name="uni01EA" unicode="&#x1ea;" horiz-adv-x="1504" 
d="M801 -12q-62 -21 -103 -67.5t-41 -95.5q0 -50 50 -50q37 0 69 14l4 -158q-58 -22 -152 -22q-97 0 -148 41.5t-51 119.5q0 59 31.5 117.5t84.5 102.5l-1 5q-208 41 -327 198t-119 406q0 138 34.5 268t102 239.5t160 192t215 129t259.5 46.5q132 0 241.5 -41.5t187 -119.5
t120.5 -193.5t43 -258.5q0 -133 -28 -255t-83.5 -227t-134 -186.5t-184.5 -134.5t-230 -70zM439 619q0 -164 75.5 -248t199.5 -84q117 0 210 75t144 201.5t51 277.5q0 163 -76.5 245t-205.5 82q-84 0 -158.5 -46.5t-126.5 -122.5t-82.5 -175.5t-30.5 -204.5z" />
    <glyph glyph-name="uni01EB" unicode="&#x1eb;" horiz-adv-x="1088" 
d="M571 -13q-61 -22 -101 -68t-40 -94q0 -50 50 -50q37 0 69 14l4 -158q-58 -22 -152 -22q-97 0 -148 41.5t-51 119.5q0 62 34 122.5t90 104.5l1 5q-128 39 -200.5 145t-72.5 265q0 97 23 187t70 166.5t112 133.5t154.5 89t193.5 32q196 0 311.5 -112.5t115.5 -315.5
q0 -91 -17.5 -173.5t-54.5 -156t-90.5 -130t-130.5 -94.5t-170 -51zM582 746q-66 0 -117 -47.5t-76 -119t-25 -150.5q0 -88 40 -131t96 -43q66 0 118 45t79 117t27 155q0 43 -9.5 75.5t-24 51t-35 29.5t-37.5 14.5t-36 3.5z" />
    <glyph glyph-name="Aringacute" unicode="&#x1fa;" 
d="M810 1555q-91 0 -152.5 61.5t-61.5 152.5q0 93 63 155t158 62q83 0 141 -50l126 97l299 2l-352 -267q-3 -91 -66 -152t-155 -61zM815 1846q-33 0 -54.5 -22t-21.5 -54t21 -52.5t53 -20.5t54 22t22 54q0 30 -21.5 51.5t-52.5 21.5zM604 1455h316l299 -1455h-340l-43 269
h-434l-109 -269h-345zM515 547h277l-77 483h-5z" />
    <glyph glyph-name="aringacute" unicode="&#x1fb;" horiz-adv-x="1128" 
d="M679 1095q-91 0 -152.5 61.5t-61.5 152.5q0 93 63 155t158 62q78 0 137 -46l129 99l312 1l-365 -280q-5 -89 -67.5 -147t-152.5 -58zM684 1386q-33 0 -54.5 -22t-21.5 -54t21 -52.5t53 -20.5t54 22t22 54q0 30 -21.5 51.5t-52.5 21.5zM767 931l8 71h308l-123 -1002h-308
l21 164h-5q-56 -86 -129.5 -134.5t-160.5 -48.5q-105 0 -180 55t-110.5 146t-35.5 209q0 131 37.5 248.5t100.5 201t150.5 132t183.5 48.5q152 0 237 -90h6zM476 253q41 0 83.5 28t79.5 79.5t65 132t40 177.5v3q-69 74 -166 74q-49 0 -91 -31t-69 -80t-42 -107t-15 -114
q0 -74 31.5 -118t83.5 -44z" />
    <glyph glyph-name="AEacute" unicode="&#x1fc;" horiz-adv-x="1765" 
d="M1365 1905l-265 -306h-286l240 304zM1731 1162h-548l-36 -297h439l-36 -285h-438l-36 -288h586l-36 -292h-903l33 269h-331l-141 -269h-350l799 1455h1034zM570 547h221l66 542h-4z" />
    <glyph glyph-name="aeacute" unicode="&#x1fd;" horiz-adv-x="1396" 
d="M1260 1448l-265 -306h-286l240 304zM967 235q37 0 81 22.5t82 76.5l226 -136q-148 -216 -416 -216q-118 0 -202 50t-129 144h-4q-111 -191 -291 -194q-129 -3 -209.5 93.5t-80.5 266.5q0 132 44 250.5t121 206.5t190 140t244 52q102 0 185 -39h8q109 68 248 68
q64 0 122.5 -16t106.5 -47.5t76.5 -84.5t28.5 -121q0 -66 -29.5 -124t-80.5 -102t-124 -81.5t-153.5 -64t-176.5 -47.5q18 -48 55 -72.5t78 -24.5zM1103 712q0 22 -17.5 37.5t-49.5 15.5q-61 0 -118.5 -63.5t-82.5 -166.5l10 -8q60 18 103 35.5t80 40t56 50t19 59.5z
M403 243q30 0 57 25.5t48.5 70.5t38 98.5t29.5 117.5q17 97 54 177h-16q-86 0 -151.5 -53.5t-98 -138.5t-31.5 -184q1 -54 19.5 -83.5t50.5 -29.5z" />
    <glyph glyph-name="Oslashacute" unicode="&#x1fe;" horiz-adv-x="1507" 
d="M1293 1902l-265 -306h-286l240 304zM1522 1390l-154 -163q96 -150 96 -366q0 -144 -33 -275.5t-98.5 -241.5t-157 -191t-216 -126.5t-267.5 -45.5q-232 0 -384 121l-163 -173l-127 128l171 182q-88 147 -88 360q0 138 34.5 268t102 239.5t160 192t215 129t259.5 46.5
q224 0 376 -115l146 155zM442 619q0 -57 9 -103l565 597q-70 55 -176 55q-84 0 -158.5 -46.5t-126.5 -122.5t-82.5 -175.5t-30.5 -204.5zM1122 841q0 62 -12 112l-570 -605q70 -61 177 -61q117 0 210 75t144 201.5t51 277.5z" />
    <glyph glyph-name="oslashacute" unicode="&#x1ff;" horiz-adv-x="1089" 
d="M1012 1446l-265 -306h-286l240 304zM1071 950l-101 -107q64 -103 64 -251q0 -99 -20.5 -188.5t-65 -167t-109 -134t-157.5 -89t-205 -32.5q-152 0 -258 72l-97 -102l-96 93l99 104q-71 107 -71 264q0 97 23 187t70 166.5t112 133.5t154.5 89t193.5 32q166 0 273 -80
l96 101zM364 429q0 -20 1 -29l304 319q-33 27 -87 27q-66 0 -117 -47.5t-76 -119t-25 -150.5zM724 572v13l-294 -310q30 -20 70 -20q66 0 118 45.5t79 117t27 154.5z" />
    <glyph glyph-name="Scommaaccent" unicode="&#x218;" horiz-adv-x="1108" 
d="M641 889l77 -44.5l75 -43t65.5 -41.5t61 -45.5t48.5 -48.5t39 -58t22.5 -66.5t9.5 -79.5q0 -151 -68 -261t-186 -165t-272 -55q-97 0 -188.5 26.5t-176 86t-140.5 147.5l234 206q49 -84 123.5 -128.5t149.5 -44.5q83 0 132.5 40t49.5 98q0 18 -7.5 34.5t-17 28.5
t-34.5 29.5t-44 29l-62 36.5l-33 19l-31 18l-54.5 32l-51.5 32t-51 35.5l-45 38t-42 43.5t-33.5 47.5t-27.5 55t-15.5 61t-6.5 70.5q0 102 39 187.5t106.5 143t158 89.5t193.5 32q132 0 252.5 -57.5t193.5 -165.5l-232 -197q-54 74 -110.5 101.5t-116.5 27.5
q-63 0 -103.5 -35.5t-38.5 -88.5q1 -44 35.5 -81t122.5 -89zM606 -109q4 -17 4 -47q0 -138 -87 -215t-241 -82l-32 174q62 14 88 40.5t26 79.5q0 12 -4 50h246z" />
    <glyph glyph-name="scommaaccent" unicode="&#x219;" horiz-adv-x="853" 
d="M161 332q44 -53 107 -86t121 -33q41 0 66 14.5t25 40.5q0 24 -25 41.5t-105 57.5q-16 9 -25 13q-123 62 -184 132.5t-61 173.5q0 98 50 175t134.5 118.5t186.5 41.5q105 0 200 -41t161 -120l-185 -176q-38 53 -84 76.5t-88 24.5q-33 1 -56.5 -16t-23.5 -45q0 -24 34 -49
t107 -61q52 -26 87.5 -47t71 -49.5t56 -58t33.5 -68t13 -84.5q1 -148 -106.5 -237t-289.5 -89q-112 0 -220 46t-172 126zM459 -109q4 -17 4 -47q0 -138 -87 -215t-241 -82l-32 174q62 14 88 41t26 79q0 12 -4 50h246z" />
    <glyph glyph-name="uni021A" unicode="&#x21a;" horiz-adv-x="1094" 
d="M1131 1162h-340l-142 -1162h-328l143 1162h-339l35 293h1006zM595 -109q4 -17 4 -47q0 -138 -87 -215t-241 -82l-32 174q62 14 88 40.5t26 79.5q0 12 -4 50h246z" />
    <glyph glyph-name="uni021B" unicode="&#x21b;" horiz-adv-x="724" 
d="M563 290l50 -237q-129 -72 -270 -72q-60 0 -107 18t-81 55t-47.5 100t-3.5 147l54 452h-100l30 249h101l37 292l315 62l-44 -354h207l-30 -249h-208l-49 -411q-5 -41 7 -62t38 -21q39 0 101 31zM438 -109q4 -17 4 -47q0 -138 -87 -215t-241 -82l-32 174q62 14 88 40.5
t26 79.5q0 12 -4 50h246z" />
    <glyph glyph-name="uni0232" unicode="&#x232;" horiz-adv-x="1181" 
d="M1051 1885l-29 -236h-584l29 236h584zM921 1455h382l-530 -820l-80 -635h-332l80 635l-325 820h365l159 -500h6z" />
    <glyph glyph-name="uni0233" unicode="&#x233;" horiz-adv-x="1085" 
d="M945 1425l-29 -236h-584l29 236h584zM739 1002h307l-107 -866q-68 -560 -567 -560q-203 0 -361 97l96 232q113 -77 250 -77q45 0 78.5 7t67 27.5t57.5 55t43.5 92t30.5 137.5h-4q-119 -166 -301 -166q-58 0 -102 13t-79 42t-54 75t-26 113t5 155l76 623h305l-64 -531
q-16 -122 -2 -168.5t67 -46.5q44 0 93.5 41.5t87 108.5t47.5 136z" />
    <glyph glyph-name="uni0237" unicode="&#x237;" horiz-adv-x="505" 
d="M-146 -139q34 -26 79 -26q44 0 64.5 39t31.5 135l122 993h309l-128 -1037q-24 -205 -111.5 -296.5t-229.5 -91.5q-66 0 -115 11.5t-98 36.5z" />
    <glyph glyph-name="uni0259" unicode="&#x259;" horiz-adv-x="947" 
d="M492 1020q191 0 303.5 -113.5t112.5 -314.5q0 -98 -23.5 -188t-70.5 -167t-113.5 -134t-158.5 -89t-199 -32q-65 0 -122.5 17.5t-103.5 50t-73 85.5t-27 119q0 72 32.5 133t87 104.5t131 78t160 55.5t177.5 34q-16 55 -55 83t-86 28q-37 0 -87.5 -19t-103.5 -62l-166 188
q73 61 176.5 102t208.5 41zM378 237q75 0 135.5 59t85.5 162l-5 5l1 1q-284 -46 -284 -169q0 -24 17.5 -41t49.5 -17z" />
    <glyph glyph-name="uni0272" unicode="&#x272;" horiz-adv-x="1111" 
d="M798 1020q144 0 201.5 -99.5t29.5 -307.5l-81 -613h-306l72 543q16 103 3 152.5t-62 49.5q-35 0 -73 -23.5t-73.5 -67t-64.5 -114t-42 -156.5l-51 -419q-25 -205 -112 -296.5t-229 -91.5q-66 0 -115 11.5t-98 36.5l76 236q34 -26 79 -26q44 0 64.5 39t32.5 135l122 993
h307l-18 -146h4q135 164 334 164z" />
    <glyph glyph-name="circumflex" unicode="&#x2c6;" horiz-adv-x="832" 
d="M558 1087l-48 153h-5l-85 -153h-272l235 311h269l172 -311h-266z" />
    <glyph glyph-name="caron" unicode="&#x2c7;" horiz-adv-x="832" 
d="M594 1398h272l-239 -311h-269l-168 311h266l47 -153h4z" />
    <glyph glyph-name="breve" unicode="&#x2d8;" horiz-adv-x="837" 
d="M500 1079q-139 0 -222 84.5t-74 231.5h222q-6 -55 13.5 -86.5t63.5 -31.5q48 0 83 33t46 85h222q-27 -141 -121 -228.5t-233 -87.5z" />
    <glyph glyph-name="dotaccent" unicode="&#x2d9;" horiz-adv-x="949" 
d="M564 1439q81 0 132.5 -49.5t51.5 -125.5q0 -79 -53.5 -131t-137.5 -52q-81 0 -132.5 50.5t-51.5 126.5q0 79 53.5 130t137.5 51z" />
    <glyph glyph-name="ring" unicode="&#x2da;" horiz-adv-x="855" 
d="M525 1480q91 0 152.5 -60t61.5 -150q0 -94 -63.5 -157.5t-157.5 -63.5q-91 0 -152.5 61.5t-61.5 152.5q0 93 63 155t158 62zM523 1340q-33 0 -54.5 -22t-21.5 -54t21 -52.5t53 -20.5t54 22t22 54q0 30 -21.5 51.5t-52.5 21.5z" />
    <glyph glyph-name="ogonek" unicode="&#x2db;" horiz-adv-x="891" 
d="M548 -369q-58 -22 -152 -22q-97 0 -148 41.5t-51 119.5q0 75 49.5 147t124.5 113l252 -30q-79 -7 -138.5 -61t-59.5 -114q0 -50 50 -50q37 0 69 14z" />
    <glyph glyph-name="tilde" unicode="&#x2dc;" horiz-adv-x="909" 
d="M147 1159q46 113 114.5 179.5t150.5 66.5q17 0 32.5 -2t29 -6l23 -7t21.5 -10t17 -10.5l16.5 -11.5t13.5 -9q22 -15 33 -21.5t26 -12t28 -5.5q36 0 68 28t54 74l171 -70q-45 -121 -112.5 -192t-147.5 -71q-11 0 -22.5 1t-20 2.5t-19 5l-17 5.5t-16.5 7.5t-14 7.5
t-13.5 8.5t-12 8t-12 8t-10.5 7.5q-52 37 -88 37t-67 -28.5t-54 -75.5z" />
    <glyph glyph-name="hungarumlaut" unicode="&#x2dd;" horiz-adv-x="1006" 
d="M361 1396l303 2l-264 -306h-278zM785 1396l303 2l-264 -306h-277z" />
    <glyph glyph-name="uni037E" unicode="&#x37e;" horiz-adv-x="503" 
d="M291 1023q77 0 128 -50t51 -125q0 -79 -53 -131t-133 -52q-76 0 -127 50.5t-51 126.5q0 78 52.5 129.5t132.5 51.5zM72 274h302l-205 -547h-219z" />
    <glyph glyph-name="tonos" unicode="&#x384;" horiz-adv-x="850" 
d="M448 1452h338l-214 -360h-273z" />
    <glyph glyph-name="dieresistonos" unicode="&#x385;" horiz-adv-x="1144" 
d="M589 1452h256l-135 -360h-202zM313 1439q81 0 132.5 -49.5t51.5 -125.5q0 -79 -53.5 -131t-137.5 -52q-81 0 -132.5 50.5t-51.5 126.5q0 79 53.5 130t137.5 51zM1027 1439q81 0 132.5 -49.5t51.5 -125.5q0 -79 -53.5 -131t-137.5 -52q-81 0 -132.5 50.5t-51.5 126.5
q0 79 53.5 130t137.5 51z" />
    <glyph glyph-name="Alphatonos" unicode="&#x386;" horiz-adv-x="1291" 
d="M878 0l-43 269h-434l-109 -269h-345l656 1455h316l299 -1455h-340zM458 1452l-234 -360h-272l170 360h336zM514 547h277l-77 483h-5z" />
    <glyph glyph-name="anoteleia" unicode="&#x387;" horiz-adv-x="532" 
d="M319 1023q77 0 128 -50t51 -125q0 -79 -53 -131t-133 -52q-76 0 -127 50.5t-51 126.5q0 78 52.5 129.5t132.5 51.5z" />
    <glyph glyph-name="Epsilontonos" unicode="&#x388;" horiz-adv-x="1112" 
d="M1010 292l-36 -292h-901l178 1455h863l-35 -293h-543l-37 -297h427l-35 -288h-427l-35 -285h581zM-194 1454h336l-234 -360h-272z" />
    <glyph glyph-name="Etatonos" unicode="&#x389;" horiz-adv-x="1362" 
d="M1345 1455l-179 -1455h-331l69 553h-432l-68 -553h-331l178 1455h332l-76 -610h432l75 610h331zM-191 1454h336l-234 -360h-272z" />
    <glyph glyph-name="Iotatonos" unicode="&#x38a;" horiz-adv-x="620" 
d="M415 0h-332l178 1455h333zM-190 1454h336l-234 -360h-272z" />
    <glyph glyph-name="Omicrontonos" unicode="&#x38c;" horiz-adv-x="1500" 
d="M865 1474q132 0 241.5 -41.5t187 -119.5t120.5 -193.5t43 -258.5q0 -144 -33 -275.5t-98.5 -241.5t-157 -191t-216 -126.5t-267.5 -45.5q-133 0 -242.5 41.5t-186.5 119.5t-119.5 195t-42.5 262q0 138 34.5 268t102 239.5t160 192t215 129t259.5 46.5zM-45 1454h336
l-234 -360h-272zM710 287q117 0 210 75t144 201.5t51 277.5q0 163 -76.5 245t-205.5 82q-84 0 -158.5 -46.5t-126.5 -122.5t-82.5 -175.5t-30.5 -204.5q0 -164 75.5 -248t199.5 -84z" />
    <glyph glyph-name="Upsilontonos" unicode="&#x38e;" horiz-adv-x="1186" 
d="M926 1455h382l-530 -820l-80 -635h-332l80 635l-325 820h365l159 -500h6zM-455 1094l170 360h336l-234 -360h-272z" />
    <glyph glyph-name="Omegatonos" unicode="&#x38f;" horiz-adv-x="1392" 
d="M1077 296v-4h197l-36 -292h-527l36 292q269 254 269 592q0 137 -60 213.5t-166 75.5q-78 0 -143.5 -39.5t-107.5 -105.5t-65 -149.5t-23 -173.5q0 -121 36.5 -218t108.5 -195l-35 -292h-528l36 292h213v4q-165 181 -165 439q0 152 52 288t142 235t219 157t276 58
q171 0 296.5 -70.5t191.5 -199t66 -299.5q0 -183 -74.5 -336.5t-208.5 -271.5zM-81 1454h336l-234 -360h-272z" />
    <glyph glyph-name="iotadieresistonos" unicode="&#x390;" horiz-adv-x="637" 
d="M323 1499h256l-135 -360h-202zM47 1486q81 0 132.5 -49.5t51.5 -125.5q0 -79 -53.5 -131t-137.5 -52q-81 0 -132.5 50.5t-51.5 126.5q0 79 53.5 130t137.5 51zM761 1486q81 0 132.5 -49.5t51.5 -125.5q0 -79 -53.5 -131t-137.5 -52q-81 0 -132.5 50.5t-51.5 126.5
q0 79 53.5 130t137.5 51zM581 40q-113 -59 -243 -59q-142 0 -203 82t-40 253l84 686h307l-81 -661q-11 -97 66 -97q25 0 60 9z" />
    <glyph glyph-name="Alpha" unicode="&#x391;" 
d="M879 0l-43 269h-434l-109 -269h-345l656 1455h316l299 -1455h-340zM515 547h277l-77 483h-5z" />
    <glyph glyph-name="Beta" unicode="&#x392;" horiz-adv-x="1199" 
d="M925 777q205 -67 205 -288q0 -142 -57 -252.5t-165.5 -173.5t-251.5 -63h-583l178 1455h511q198 0 292 -74.5t94 -223.5q0 -115 -58.5 -219.5t-163.5 -156.5zM631 868q80 0 133 56.5t53 139.5q0 103 -136 103h-144l-37 -299h131zM576 286q97 0 159.5 61t62.5 149
q0 118 -154 118h-174l-41 -328h147z" />
    <glyph glyph-name="Gamma" unicode="&#x393;" horiz-adv-x="1067" 
d="M1105 1163h-559l-143 -1163h-330l178 1455h890z" />
    <glyph glyph-name="uni0394" unicode="&#x394;" horiz-adv-x="1259" 
d="M904 1455l265 -1204l-29 -251h-1144l30 251l561 1204h317zM378 292h452l-129 745h-5z" />
    <glyph glyph-name="Epsilon" unicode="&#x395;" horiz-adv-x="1112" 
d="M1009 292l-36 -292h-901l178 1455h863l-35 -293h-543l-37 -297h427l-35 -288h-427l-35 -285h581z" />
    <glyph glyph-name="Zeta" unicode="&#x396;" horiz-adv-x="1158" 
d="M1161 1205l-701 -905l-1 -8h587l-36 -292h-987l29 256l687 900l1 6h-557l36 293h970z" />
    <glyph glyph-name="Eta" unicode="&#x397;" horiz-adv-x="1363" 
d="M1345 1455l-179 -1455h-331l69 553h-432l-68 -553h-331l178 1455h332l-76 -610h432l75 610h331z" />
    <glyph glyph-name="Theta" unicode="&#x398;" horiz-adv-x="1504" 
d="M874 1474q132 0 241.5 -41.5t187 -119.5t120.5 -193.5t43 -258.5q0 -144 -33 -275.5t-98.5 -241.5t-157 -191t-216 -126.5t-267.5 -45.5q-133 0 -242.5 41.5t-186.5 119.5t-119.5 195t-42.5 262q0 138 34.5 268t102 239.5t160 192t215 129t259.5 46.5zM719 287
q117 0 210 75t144 201.5t51 277.5q0 163 -76.5 245t-205.5 82q-84 0 -158.5 -46.5t-126.5 -122.5t-82.5 -175.5t-30.5 -204.5q0 -164 75.5 -248t199.5 -84zM569 579l34 279h393l-35 -279h-392z" />
    <glyph glyph-name="Iota" unicode="&#x399;" horiz-adv-x="621" 
d="M415 0h-332l178 1455h333z" />
    <glyph glyph-name="Kappa" unicode="&#x39a;" horiz-adv-x="1252" 
d="M1350 1455l-548 -632l384 -823h-391l-233 541h-5l-107 -124l-50 -417h-327l178 1455h328l-66 -536h5l420 536h412z" />
    <glyph glyph-name="Lambda" unicode="&#x39b;" horiz-adv-x="1245" 
d="M831 0l-146 997h-4l-387 -997h-345l631 1455h317l273 -1455h-339z" />
    <glyph glyph-name="Mu" unicode="&#x39c;" horiz-adv-x="1626" 
d="M1273 1455h335l-178 -1455h-326l97 791h-3l-306 -521h-211l-181 531h-4l-98 -801h-325l178 1455h331l251 -765h5z" />
    <glyph glyph-name="Nu" unicode="&#x39d;" horiz-adv-x="1403" 
d="M1059 1455h327l-179 -1455h-338l-360 860h-3l-106 -860h-327l178 1455h329l366 -883h5z" />
    <glyph glyph-name="Xi" unicode="&#x39e;" horiz-adv-x="1178" 
d="M1162 1157h-984l35 298h985zM970 579h-750l36 284h749zM1033 0h-1011l36 298h1011z" />
    <glyph glyph-name="Omicron" unicode="&#x39f;" horiz-adv-x="1504" 
d="M869 1474q132 0 241.5 -41.5t187 -119.5t120.5 -193.5t43 -258.5q0 -144 -33 -275.5t-98.5 -241.5t-157 -191t-216 -126.5t-267.5 -45.5q-133 0 -242.5 41.5t-186.5 119.5t-119.5 195t-42.5 262q0 138 34.5 268t102 239.5t160 192t215 129t259.5 46.5zM714 287
q117 0 210 75t144 201.5t51 277.5q0 163 -76.5 245t-205.5 82q-84 0 -158.5 -46.5t-126.5 -122.5t-82.5 -175.5t-30.5 -204.5q0 -164 75.5 -248t199.5 -84z" />
    <glyph glyph-name="Pi" unicode="&#x3a0;" horiz-adv-x="1303" 
d="M251 1455h1035l-179 -1455h-328l143 1162h-377l-143 -1162h-329z" />
    <glyph glyph-name="Rho" unicode="&#x3a1;" horiz-adv-x="1159" 
d="M759 1455q107 0 187 -29.5t128.5 -84.5t72 -127t23.5 -162q0 -173 -66.5 -302t-198.5 -201.5t-315 -72.5h-137l-58 -476h-322l178 1455h508zM605 764q102 0 163 69.5t61 181.5q0 74 -43 112t-109 38h-140l-49 -401h117z" />
    <glyph glyph-name="Sigma" unicode="&#x3a3;" horiz-adv-x="1099" 
d="M1117 1163h-534l-1 -9l229 -425l-332 -432v-5h531l-36 -292h-959l27 228l388 501l-263 489l26 237h960z" />
    <glyph glyph-name="Tau" unicode="&#x3a4;" horiz-adv-x="1094" 
d="M1131 1162h-340l-142 -1162h-328l143 1162h-339l35 293h1006z" />
    <glyph glyph-name="Upsilon" unicode="&#x3a5;" horiz-adv-x="1181" 
d="M921 1455h382l-530 -820l-80 -635h-332l80 635l-325 820h365l159 -500h6z" />
    <glyph glyph-name="Phi" unicode="&#x3a6;" horiz-adv-x="1553" 
d="M1519 820q0 -106 -24 -202t-74 -180t-123 -149t-175.5 -109.5t-227.5 -60.5l-15 -119h-325l15 123q-225 38 -354 175.5t-129 359.5q0 102 26 197.5t78.5 179.5t127.5 150.5t178 112t225 62.5l14 119h326l-16 -125q219 -41 346 -178.5t127 -355.5zM402 681
q0 -236 215 -291l86 697q-145 -36 -223 -145.5t-78 -260.5zM916 393q141 38 215.5 144t74.5 255q0 229 -206 290z" />
    <glyph glyph-name="Chi" unicode="&#x3a7;" horiz-adv-x="1324" 
d="M1397 1455l-490 -730l324 -725h-376l-193 475h-4l-310 -475h-384l509 738l-309 717h368l183 -463h7l287 463h388z" />
    <glyph glyph-name="Psi" unicode="&#x3a8;" horiz-adv-x="1488" 
d="M1198 1455h315l-67 -541q-38 -307 -181 -453.5t-385 -148.5l-38 -312h-322l38 312q-233 8 -341 167.5t-72 451.5l65 524h316l-62 -496q-22 -185 7.5 -267t122.5 -91l104 854h322l-104 -853q61 7 103 43.5t72 116t46 207.5z" />
    <glyph glyph-name="uni03A9" unicode="&#x3a9;" horiz-adv-x="1390" 
d="M1075 296v-4h197l-36 -292h-527l36 292q269 254 269 592q0 137 -60 213.5t-166 75.5q-78 0 -143.5 -39.5t-107.5 -105.5t-65 -149.5t-23 -173.5q0 -121 36.5 -218t108.5 -195l-35 -292h-528l36 292h213v4q-165 181 -165 439q0 152 52 288t142 235t219 157t276 58
q171 0 296.5 -70.5t191.5 -199t66 -299.5q0 -183 -74.5 -336.5t-208.5 -271.5z" />
    <glyph glyph-name="Iotadieresis" unicode="&#x3aa;" horiz-adv-x="621" 
d="M245 1946q81 0 132.5 -49.5t51.5 -125.5q0 -79 -53.5 -131t-137.5 -52q-81 0 -132.5 50.5t-51.5 126.5q0 79 53.5 130t137.5 51zM710 1946q81 0 132.5 -49.5t51.5 -125.5q0 -79 -53.5 -131t-137.5 -52q-81 0 -132.5 50.5t-51.5 126.5q0 79 53.5 130t137.5 51zM415 0h-332
l178 1455h333z" />
    <glyph glyph-name="Upsilondieresis" unicode="&#x3ab;" horiz-adv-x="1181" 
d="M508 1588q-81 0 -132.5 50.5t-51.5 126.5q0 79 53.5 130t137.5 51q81 0 132.5 -49.5t51.5 -125.5q0 -79 -53.5 -131t-137.5 -52zM973 1588q-81 0 -132.5 50.5t-51.5 126.5q0 79 53.5 130t137.5 51q81 0 132.5 -49.5t51.5 -125.5q0 -79 -53.5 -131t-137.5 -52zM921 1455
h382l-530 -820l-80 -635h-332l80 635l-325 820h365l159 -500h6z" />
    <glyph glyph-name="alphatonos" unicode="&#x3ac;" horiz-adv-x="1156" 
d="M982 1499l-214 -360h-273l149 360h338zM997 236q22 0 57 8l46 -205q-96 -61 -216 -58q-36 0 -68 9.5t-62 30.5t-52 58.5t-31 88.5h-5q-111 -187 -295 -187q-68 0 -127.5 28.5t-104 79.5t-70.5 127t-26 167q0 129 36 246.5t97 203.5t147 137t182 51q214 0 286 -196h7
l83 213l275 -114l-232 -424l-1 -154q0 -62 16.5 -86t57.5 -24zM460 253q57 0 112 67.5t101 193.5q0 108 -34 169.5t-94 61.5q-56 0 -101.5 -51t-67.5 -123t-22 -145q0 -84 27 -128.5t79 -44.5z" />
    <glyph glyph-name="epsilontonos" unicode="&#x3ad;" horiz-adv-x="924" 
d="M902 1500l-214 -360h-273l149 360h338zM473 243q162 0 294 75l98 -223q-121 -70 -225.5 -92t-247.5 -22q-171 0 -267 69.5t-96 194.5q-1 83 42 156t118 117l1 7q-90 61 -90 179q0 140 115.5 228.5t285.5 88.5q265 0 416 -111l-115 -208q-121 59 -254 59q-67 1 -111 -22.5
t-44 -66.5q0 -51 86 -51l154 -1l-24 -215h-145q-51 0 -88.5 -30t-37.5 -67q0 -65 135 -65z" />
    <glyph glyph-name="etatonos" unicode="&#x3ae;" horiz-adv-x="1149" 
d="M994 1500l-214 -360h-273l149 360h338zM805 1021q162 0 226 -102.5t34 -325.5l-133 -998h-306l126 968q12 92 -2.5 137t-61.5 45q-29 0 -62.5 -22.5t-66 -63.5t-59.5 -108.5t-41 -148.5l-49 -402h-305l83 681q7 52 -4 75t-43 23q-18 0 -47 -8l-13 215q76 35 172 35
q102 0 159 -44.5t69 -139.5h6q124 184 318 184z" />
    <glyph glyph-name="iotatonos" unicode="&#x3af;" horiz-adv-x="637" 
d="M363 1499h338l-214 -360h-273zM581 40q-113 -59 -243 -59q-142 0 -203 82t-40 253l84 686h307l-81 -661q-11 -97 66 -97q26 0 60 9z" />
    <glyph glyph-name="upsilondieresistonos" unicode="&#x3b0;" horiz-adv-x="1074" 
d="M580 1500h256l-135 -360h-202zM304 1487q81 0 132.5 -49.5t51.5 -125.5q0 -79 -53.5 -131t-137.5 -52q-81 0 -132.5 50.5t-51.5 126.5q0 79 53.5 130t137.5 51zM1018 1487q81 0 132.5 -49.5t51.5 -125.5q0 -79 -53.5 -131t-137.5 -52q-81 0 -132.5 50.5t-51.5 126.5
q0 79 53.5 130t137.5 51zM462 -19q-178 0 -270.5 96t-88.5 254q2 85 30 223.5t31 166.5q7 63 -53 63q-15 0 -37 -5l-9 207q121 35 178 35q109 0 169.5 -55t54.5 -167q-3 -70 -30 -211t-28 -214q-1 -57 21.5 -88t68.5 -31q93 0 155.5 131.5t69.5 375.5q3 107 -13 225l289 32
q36 -126 34 -275q-4 -188 -49.5 -335t-123 -239.5t-179 -140.5t-220.5 -48z" />
    <glyph glyph-name="alpha" unicode="&#x3b1;" horiz-adv-x="1156" 
d="M997 236q22 0 57 8l46 -205q-96 -61 -216 -58q-36 0 -68 9.5t-62 30.5t-52 58.5t-31 88.5h-5q-111 -187 -295 -187q-68 0 -127.5 28.5t-104 79.5t-70.5 127t-26 167q0 129 36 246.5t97 203.5t147 137t182 51q214 0 286 -196h7l83 213l275 -114l-232 -424l-1 -154
q0 -62 16.5 -86t57.5 -24zM460 253q57 0 112 67.5t101 193.5q0 108 -34 169.5t-94 61.5q-56 0 -101.5 -51t-67.5 -123t-22 -145q0 -84 27 -128.5t79 -44.5z" />
    <glyph glyph-name="beta" unicode="&#x3b2;" horiz-adv-x="1058" 
d="M1096 1180q-3 -114 -61 -223t-161 -199v-4q121 -97 121 -271q0 -145 -62.5 -260t-173.5 -178.5t-250 -63.5q-221 0 -330.5 145.5t-107.5 417.5q4 121 24.5 239t57.5 228t93.5 203.5t126 163.5t160 109.5t192.5 39.5q92 0 164.5 -28t117.5 -76.5t68 -110.5t21 -132z
M709 1271q-50 0 -97 -42t-84.5 -113t-67 -155t-49.5 -177q159 61 270 172t113 217q0 44 -23.5 71t-61.5 27zM518 253q72 0 121 67.5t49 177.5q0 77 -36 120q-134 -58 -273 -78q-1 -10 -1 -29q0 -117 36 -187.5t104 -70.5z" />
    <glyph glyph-name="gamma" unicode="&#x3b3;" horiz-adv-x="1058" 
d="M1056 1002q-101 -563 -461 -1007q3 -131 -28 -400h-308q16 150 23 249.5t6 208t-13 223.5q-31 290 -63.5 400t-101.5 110q-19 0 -41 -8l-12 214q86 29 167 29q54 0 93.5 -11.5t66.5 -31.5t47.5 -56t33 -76.5t25.5 -101.5q29 -141 47 -380h6q40 77 72.5 157t57 167.5
t40 151.5t36.5 162h307z" />
    <glyph glyph-name="delta" unicode="&#x3b4;" horiz-adv-x="1066" 
d="M761 1003q127 -83 190.5 -182.5t63.5 -235.5q0 -129 -38.5 -240.5t-107.5 -192t-171.5 -126t-224.5 -45.5q-197 0 -310.5 116t-113.5 306q0 156 76.5 297t207.5 227l1 4q-96 102 -96 236q0 162 114 260t303 99q40 0 86 -5t105.5 -17.5t122.5 -40t115 -65.5l-150 -220
q-64 43 -134.5 69t-125.5 26q-56 0 -94 -19t-37 -58q0 -26 19.5 -51t78.5 -63q29 -18 120 -79zM493 255q59 0 108.5 41.5t76 104.5t26.5 131q0 79 -34 133t-112 106l-23 15q-79 -59 -128 -158.5t-48 -199.5q1 -84 39 -128.5t95 -44.5z" />
    <glyph glyph-name="epsilon" unicode="&#x3b5;" horiz-adv-x="924" 
d="M473 243q162 0 294 75l98 -223q-121 -70 -225.5 -92t-247.5 -22q-171 0 -267 69.5t-96 194.5q-1 83 42 156t118 117l1 7q-90 61 -90 179q0 140 115.5 228.5t285.5 88.5q265 0 416 -111l-115 -208q-121 59 -254 59q-67 1 -111 -22.5t-44 -66.5q0 -51 86 -51l154 -1
l-24 -215h-145q-51 0 -88.5 -30t-37.5 -67q0 -65 135 -65z" />
    <glyph glyph-name="zeta" unicode="&#x3b6;" horiz-adv-x="855" 
d="M948 1279q-102 -87 -200.5 -190t-188.5 -218.5t-145.5 -232.5t-55.5 -209q0 -29 9.5 -52.5t20.5 -38.5t43 -35t52.5 -31t73.5 -37q138 -69 190.5 -131.5t52.5 -149.5q0 -99 -56 -206.5t-142 -200.5l-242 139q129 159 129 225q0 29 -25.5 53t-102.5 56l-50.5 21.5
t-48.5 23t-48.5 27.5t-43.5 31.5t-41 37.5t-33 44.5t-27 54.5t-15.5 63.5t-6.5 75.5q0 375 517 845l1 6h-358l31 258h734z" />
    <glyph glyph-name="eta" unicode="&#x3b7;" horiz-adv-x="1149" 
d="M805 1021q162 0 226 -102.5t34 -325.5l-133 -998h-306l126 968q12 92 -2.5 137t-61.5 45q-29 0 -62.5 -22.5t-66 -63.5t-59.5 -108.5t-41 -148.5l-49 -402h-305l83 681q7 52 -4 75t-43 23q-18 0 -47 -8l-13 215q76 35 172 35q102 0 159 -44.5t69 -139.5h6
q124 184 318 184z" />
    <glyph glyph-name="theta" unicode="&#x3b8;" horiz-adv-x="1106" 
d="M671 1527q72 0 132.5 -17t113.5 -57t90 -101.5t58 -155.5t21 -215q0 -112 -10 -217t-32.5 -205.5t-55.5 -186.5t-81 -158.5t-108 -124t-138 -80t-169 -28.5q-70 0 -130 17.5t-112.5 58.5t-89 103.5t-57.5 157.5t-21 216q0 129 15 250t45.5 233t79 204.5t112.5 161
t150 106.5t187 38zM646 1259q-38 0 -72 -30.5t-61 -84t-47.5 -119.5t-36.5 -144h344q3 51 3 97q0 281 -130 281zM523 248q41 0 77 31t63 86t47 122t35 147h-348q-4 -48 -4 -103q0 -66 6.5 -116t21 -88.5t40.5 -58.5t62 -20z" />
    <glyph glyph-name="iota" unicode="&#x3b9;" horiz-adv-x="637" 
d="M581 40q-113 -59 -243 -59q-142 0 -203 82t-40 253l84 686h307l-81 -661q-11 -97 66 -97q26 0 60 9z" />
    <glyph glyph-name="kappa" unicode="&#x3ba;" horiz-adv-x="1114" 
d="M931 240q29 0 74 9l50 -205q-111 -63 -238 -63q-118 0 -175.5 65t-69.5 191q-2 24 -5.5 70.5t-5.5 66.5h-3q-106 -106 -197 -208l-20 -166h-297l123 1002h303l-39 -323q-8 -64 -45 -200h2q137 191 254 331.5t234 241.5l225 -202l-311 -260q23 -163 30 -206
q14 -79 38.5 -111.5t72.5 -32.5z" />
    <glyph glyph-name="lambda" unicode="&#x3bb;" horiz-adv-x="1008" 
d="M614 0q-31 309 -70 577h-5l-249 -577h-334l491 991l-26 143q-14 77 -42 106.5t-76 29.5q-43 0 -110 -20l-19 233q95 45 221 45q125 0 202 -80.5t117 -247.5q136 -580 220 -1200h-320z" />
    <glyph glyph-name="uni03BC" unicode="&#x3bc;" horiz-adv-x="1156" 
d="M1066 245l36 -209q-85 -55 -195 -55q-193 0 -221 172h-5q-95 -172 -236 -172q-75 0 -121 48l-7 -5q19 -146 5 -257l-21 -172h-304l173 1407h305l-71 -574q-14 -172 86 -172q60 0 112.5 58.5t72.5 177.5l62 510h308l-81 -664q-7 -57 2.5 -77t43.5 -20q22 0 56 4z" />
    <glyph glyph-name="nu" unicode="&#x3bd;" horiz-adv-x="1060" 
d="M744 1002h317q-46 -319 -168.5 -573t-306.5 -429h-312l-196 1002h319l94 -701h8q103 158 161 327t84 374z" />
    <glyph glyph-name="xi" unicode="&#x3be;" horiz-adv-x="920" 
d="M957 1274q-100 -10 -177 -28t-126.5 -40.5t-81 -51.5t-44 -59.5t-12.5 -65.5q0 -132 242 -132h104l-33 -258h-145q-69 0 -126.5 -11t-103 -33.5t-71 -60.5t-25.5 -89q0 -21 5.5 -39t13.5 -32t25 -28.5t32.5 -25t44 -24.5t51.5 -24l62 -27q133 -56 188.5 -121.5
t55.5 -161.5q0 -107 -55.5 -215t-143.5 -200l-244 138q3 4 18.5 23l21 25.5t19 24t19.5 26.5l16.5 25t15.5 27t10.5 24.5t8 25.5t2.5 24q0 35 -27 58t-99 53l-57 25t-55.5 26t-55 29.5t-48.5 32.5t-45 38t-36 43.5t-29.5 51.5t-17.5 58.5t-7 68.5q0 131 69 227t192 152l1 4
q-99 67 -99 177q0 197 241 306v4l-243 -12l34 256h744z" />
    <glyph glyph-name="omicron" unicode="&#x3bf;" horiz-adv-x="1071" 
d="M609 1020q189 0 300 -112t111 -313q0 -100 -20.5 -189.5t-64.5 -167.5t-108 -135t-156 -89.5t-203 -32.5q-192 0 -305 113t-113 315q0 98 22.5 187.5t68.5 167t111 134.5t157 89.5t200 32.5zM573 747q-63 0 -113 -48t-75.5 -120t-25.5 -151q0 -88 39 -130.5t96 -42.5
q63 0 113.5 45.5t77 117.5t26.5 155q0 43 -9 75.5t-23 51t-33.5 29.5t-36.5 14.5t-36 3.5z" />
    <glyph glyph-name="pi" unicode="&#x3c0;" horiz-adv-x="1191" 
d="M1004 743l-50 -402q-7 -57 4.5 -79t44.5 -22q10 0 46 6l48 -210q-91 -55 -209 -55q-62 0 -109 18t-80.5 56.5t-46 103.5t-1.5 154l53 430h-203l-91 -743h-301l91 743h-152l31 239q104 20 217 20h918l-48 -259h-162z" />
    <glyph glyph-name="rho" unicode="&#x3c1;" horiz-adv-x="1090" 
d="M614 1020q202 0 316 -117.5t114 -311.5q0 -132 -39 -246.5t-105 -193.5t-156 -124.5t-190 -45.5q-128 0 -207 69l-8 -4l-55 -451h-309l113 910q31 251 166.5 383t359.5 132zM501 255q99 0 165 91t66 228q0 78 -38 124.5t-100 46.5q-78 0 -132.5 -66.5t-68.5 -183.5
l-21 -176q42 -64 129 -64z" />
    <glyph glyph-name="uni03C2" unicode="&#x3c2;" horiz-adv-x="916" 
d="M357 434q0 -29 8 -52.5t21 -41t39.5 -35.5t52 -32t70.5 -35q145 -69 199 -130.5t54 -150.5q0 -102 -56.5 -208t-142.5 -202l-241 139q129 153 129 223q0 30 -27 54.5t-107 60.5l-59 27t-59 32t-59.5 40.5t-51 50.5t-43 64t-26.5 78.5t-11 96.5q0 122 39 233t108 193.5
t171 131.5t221 49q123 0 218.5 -45t149.5 -130l-237 -173q-49 75 -134 75q-62 0 -114 -43t-82 -115t-30 -155z" />
    <glyph glyph-name="sigma" unicode="&#x3c3;" horiz-adv-x="1098" 
d="M1103 748h-152l-11 -11q61 -87 61 -202q0 -86 -22 -166.5t-67 -150.5t-108 -122.5t-151 -83t-191 -30.5q-190 0 -302.5 112.5t-112.5 313.5q0 99 21 187t65 162.5t106.5 129t149.5 85t191 30.5h556zM485 255q84 0 145.5 90.5t61.5 231.5q0 116 -62 171h-58
q-63 0 -113.5 -47t-76.5 -121.5t-26 -160.5q0 -81 38.5 -122.5t90.5 -41.5z" />
    <glyph glyph-name="tau" unicode="&#x3c4;" horiz-adv-x="880" 
d="M219 310l53 438h-224l30 254h815l-31 -254h-283l-48 -406q-10 -88 66 -88q48 0 93 20l51 -221q-128 -72 -278 -72q-60 0 -107.5 18t-83 55.5t-50 102.5t-3.5 153z" />
    <glyph glyph-name="upsilon" unicode="&#x3c5;" horiz-adv-x="1074" 
d="M462 -19q-178 0 -270.5 96t-88.5 254q2 85 30.5 223.5t30.5 166.5q7 63 -53 63q-15 0 -37 -5l-9 207q121 35 178 35q109 0 169.5 -55t54.5 -167q-3 -70 -29.5 -211t-28.5 -214q-1 -57 21.5 -88t68.5 -31q93 0 155.5 131t69.5 376q3 107 -13 225l289 32q36 -126 34 -275
q-4 -188 -49.5 -335t-123 -239.5t-179 -140.5t-220.5 -48z" />
    <glyph glyph-name="phi" unicode="&#x3c6;" horiz-adv-x="1352" 
d="M935 1020q82 -1 151 -26.5t121.5 -75.5t81.5 -130.5t26 -183.5q-3 -132 -48 -246t-119 -193t-173 -127t-209 -54l-48 -389h-297l48 389q-135 13 -230.5 78t-142 166.5t-46.5 229.5q0 164 66.5 320.5t183.5 267.5l244 -71q-89 -116 -140 -251.5t-51 -257.5
q0 -95 39 -156.5t107 -76.5l51 415q12 95 47 167.5t87.5 116.5t115.5 66t135 22zM1015 605q1 72 -21 113t-63 41q-38 0 -63 -38t-33 -101l-44 -385q105 28 163.5 127t60.5 243z" />
    <glyph glyph-name="chi" unicode="&#x3c7;" horiz-adv-x="1002" 
d="M854 -186q10 0 34 4l12 -214q-83 -28 -164 -28q-52 0 -90 11t-64.5 31t-46.5 56t-33 76.5t-26 101.5l-40 167h-5l-234 -424h-332l464 741l-108 326q-22 64 -47 92t-65 28q-18 0 -34 -4l-12 214q85 29 164 29q51 0 89 -11.5t64 -31t45.5 -56t32.5 -76.5t27 -102l22 -93h5
l197 351h338l-436 -677l131 -390q22 -64 47 -92.5t65 -28.5z" />
    <glyph glyph-name="psi" unicode="&#x3c8;" horiz-adv-x="1346" 
d="M1312 1020q37 -128 35 -283q-4 -181 -47.5 -324.5t-119.5 -236.5t-177 -142.5t-222 -52.5l-48 -386h-305l48 386q-188 2 -299 98t-111 266q0 80 17.5 167l34.5 171.5t17 157.5q0 123 -9 161h299q9 -37 9 -131q0 -80 -17 -163l-34 -161t-17 -147q0 -40 10.5 -70t26 -46
t36.5 -26t37.5 -13t33.5 -3h2l132 1064l296 15l-131 -1079q57 4 101.5 45.5t72.5 113.5t43 161.5t18 196.5q2 113 -14 229z" />
    <glyph glyph-name="omega" unicode="&#x3c9;" horiz-adv-x="1393" 
d="M1257 1022q28 -73 43.5 -122.5t29 -134.5t13.5 -184q0 -95 -19 -184t-56 -164.5t-88 -132t-120 -88t-147 -31.5q-202 0 -262 149h-6q-97 -149 -278 -149q-69 0 -126.5 24.5t-101 72.5t-68 125.5t-24.5 177.5q0 364 228 656l260 -65q-89 -134 -134 -287.5t-45 -283.5
q0 -69 19.5 -107.5t59.5 -38.5q93 0 129 235l33 260h264l-35 -286q-12 -97 4.5 -153t63.5 -56t80.5 49t48.5 123.5t15 165.5q0 200 -63 375z" />
    <glyph glyph-name="iotadieresis" unicode="&#x3ca;" horiz-adv-x="637" 
d="M139 1486q81 0 132.5 -49.5t51.5 -125.5q0 -79 -53.5 -131t-137.5 -52q-81 0 -132.5 50.5t-51.5 126.5q0 79 53.5 130t137.5 51zM604 1486q81 0 132.5 -49.5t51.5 -125.5q0 -79 -53.5 -131t-137.5 -52q-81 0 -132.5 50.5t-51.5 126.5q0 79 53.5 130t137.5 51zM581 40
q-113 -59 -243 -59q-142 0 -203 82t-40 253l84 686h307l-81 -661q-11 -97 66 -97q26 0 60 9z" />
    <glyph glyph-name="upsilondieresis" unicode="&#x3cb;" horiz-adv-x="1074" 
d="M396 1487q81 0 132.5 -49.5t51.5 -125.5q0 -79 -53.5 -131t-137.5 -52q-81 0 -132.5 50.5t-51.5 126.5q0 79 53.5 130t137.5 51zM861 1487q81 0 132.5 -49.5t51.5 -125.5q0 -79 -53.5 -131t-137.5 -52q-81 0 -132.5 50.5t-51.5 126.5q0 79 53.5 130t137.5 51zM462 -19
q-178 0 -270.5 96t-88.5 254q2 85 30.5 223.5t30.5 166.5q7 63 -53 63q-15 0 -37 -5l-9 207q121 35 178 35q109 0 169.5 -55t54.5 -167q-3 -70 -29.5 -211t-28.5 -214q-1 -57 21.5 -88t68.5 -31q93 0 155.5 131.5t69.5 375.5q3 107 -13 225l289 32q36 -126 34 -275
q-4 -188 -49.5 -335t-123 -239.5t-179 -140.5t-220.5 -48z" />
    <glyph glyph-name="omicrontonos" unicode="&#x3cc;" horiz-adv-x="1071" 
d="M637 1500h338l-214 -360h-273zM609 1020q189 0 300 -112t111 -313q0 -100 -20.5 -189.5t-64.5 -167.5t-108 -135t-156 -89.5t-203 -32.5q-192 0 -305 113t-113 315q0 98 22.5 187.5t68.5 167t111 134.5t157 89.5t200 32.5zM573 747q-63 0 -113 -48t-75.5 -120t-25.5 -151
q0 -88 39 -130.5t96 -42.5q63 0 113.5 45.5t77 117.5t26.5 155q0 43 -9 75.5t-23 51t-33.5 29.5t-36.5 14.5t-36 3.5z" />
    <glyph glyph-name="upsilontonos" unicode="&#x3cd;" horiz-adv-x="1074" 
d="M620 1500h338l-214 -360h-273zM462 -19q-178 0 -270.5 96t-88.5 254q2 85 30.5 223.5t30.5 166.5q7 63 -53 63q-15 0 -37 -5l-9 207q121 35 178 35q109 0 169.5 -55t54.5 -167q-3 -70 -29.5 -211t-28.5 -214q-1 -57 21.5 -88t68.5 -31q93 0 155.5 131t69.5 376
q3 107 -13 225l289 32q36 -126 34 -275q-4 -188 -49.5 -335t-123 -239.5t-179 -140.5t-220.5 -48z" />
    <glyph glyph-name="omegatonos" unicode="&#x3ce;" horiz-adv-x="1393" 
d="M1135 1500l-214 -360h-273l149 360h338zM1257 1022q28 -73 43.5 -122.5t29 -134.5t13.5 -184q0 -95 -19 -184t-56 -164.5t-88 -132t-120 -88t-147 -31.5q-202 0 -262 149h-6q-97 -149 -278 -149q-69 0 -126.5 24.5t-101 72.5t-68 125.5t-24.5 177.5q0 364 228 656
l260 -65q-89 -134 -134 -287.5t-45 -283.5q0 -69 19.5 -107.5t59.5 -38.5q93 0 129 235l33 260h264l-35 -286q-12 -97 4.5 -153t63.5 -56t80.5 49t48.5 123.5t15 165.5q0 200 -63 375z" />
    <glyph glyph-name="Wgrave" unicode="&#x1e80;" horiz-adv-x="1900" 
d="M1243 1599h-282l-190 306l307 -2zM1640 1455h350l-587 -1455h-301l-94 918h-5l-326 -918h-300l-230 1455h341l104 -890h5l297 890h347l78 -888h4z" />
    <glyph glyph-name="wgrave" unicode="&#x1e81;" horiz-adv-x="1466" 
d="M955 1141h-282l-190 306l307 -2zM1426 1002q25 -145 13 -314q-8 -111 -31 -206t-56 -166.5t-76.5 -128.5t-91.5 -95t-103 -63.5t-110 -36.5t-112 -11q-196 0 -243 176h-5q-55 -90 -123 -133t-157 -43q-103 0 -168 54.5t-87 145.5t-7 212l75 609h305l-64 -523
q-14 -106 -4.5 -164.5t47.5 -58.5q48 0 100 81t71 228l53 437h296l-67 -544q-14 -109 -4.5 -155.5t46.5 -46.5q18 0 39.5 13t47.5 48t49 86t43 136.5t30 191.5q10 113 -13 271h307z" />
    <glyph glyph-name="Wacute" unicode="&#x1e82;" horiz-adv-x="1899" 
d="M1491 1905l-265 -306h-286l240 304zM1639 1455h350l-587 -1455h-301l-94 918h-5l-326 -918h-300l-230 1455h341l104 -890h5l297 890h347l78 -888h4z" />
    <glyph glyph-name="wacute" unicode="&#x1e83;" horiz-adv-x="1466" 
d="M1231 1447l-265 -306h-286l240 304zM1426 1002q25 -145 13 -314q-8 -111 -31 -206t-56 -166t-76.5 -128.5t-91.5 -95.5t-103 -63.5t-110 -36.5t-112 -11q-196 0 -243 176h-5q-55 -90 -123 -133t-157 -43q-103 0 -168 54.5t-87 145.5t-7 212l75 609h305l-64 -523
q-14 -106 -4.5 -164.5t47.5 -58.5q48 0 100 81t71 228l53 437h296l-67 -544q-14 -109 -4.5 -155.5t46.5 -46.5q18 0 39.5 13t47.5 48t49 86t43 136.5t30 191.5q10 113 -13 271h307z" />
    <glyph glyph-name="Wdieresis" unicode="&#x1e84;" horiz-adv-x="1900" 
d="M869 1588q-81 0 -132.5 50.5t-51.5 126.5q0 79 53.5 130t137.5 51q81 0 132.5 -49.5t51.5 -125.5q0 -79 -53.5 -131t-137.5 -52zM1313 1588q-81 0 -132.5 50.5t-51.5 126.5q0 79 53.5 130t137.5 51q81 0 132.5 -49.5t51.5 -125.5q0 -79 -53.5 -131t-137.5 -52zM1640 1455
h350l-587 -1455h-301l-94 918h-5l-326 -918h-300l-230 1455h341l104 -890h5l297 890h347l78 -888h4z" />
    <glyph glyph-name="wdieresis" unicode="&#x1e85;" horiz-adv-x="1466" 
d="M611 1128q-81 0 -132.5 50.5t-51.5 126.5q0 79 53.5 130t137.5 51q81 0 132.5 -49.5t51.5 -125.5q0 -79 -53.5 -131t-137.5 -52zM1055 1128q-81 0 -132.5 50.5t-51.5 126.5q0 79 53.5 130t137.5 51q81 0 132.5 -49.5t51.5 -125.5q0 -79 -53.5 -131t-137.5 -52zM1426 1002
q25 -145 13 -314q-8 -111 -31 -206t-56 -166.5t-76.5 -128.5t-91.5 -95t-103 -63.5t-110 -36.5t-112 -11q-196 0 -243 176h-5q-55 -90 -123 -133t-157 -43q-103 0 -168 54.5t-87 145.5t-7 212l75 609h305l-64 -523q-14 -106 -4.5 -164.5t47.5 -58.5q48 0 100 81t71 228
l53 437h296l-67 -544q-14 -109 -4.5 -155.5t46.5 -46.5q18 0 39.5 13t47.5 48t49 86t43 136.5t30 191.5q10 113 -13 271h307z" />
    <glyph glyph-name="uni1E9E" unicode="&#x1e9e;" horiz-adv-x="1538" 
d="M1130 871l59 -34l58.5 -33.5t53 -32.5t50.5 -33.5t44 -34.5t39.5 -39t30.5 -42t24.5 -48t14 -53.5t5.5 -62.5q0 -112 -38 -203t-105.5 -150.5t-160 -91.5t-202.5 -32q-124 0 -239.5 45t-199.5 133l174 276q46 -80 119.5 -121.5t149.5 -41.5q75 0 117 39.5t43 100.5
q0 19 -7.5 35.5t-17 28.5t-34 30t-43.5 29.5t-62 35.5l-33 20l-34.5 20l-41.5 24t-38.5 24t-43.5 29t-38.5 29t-38.5 34l266 426v3q-130 17 -212 17q-257 0 -290 -266l-116 -928h-320l117 941q15 117 52.5 207.5t92 151t129.5 99t160.5 55.5t188.5 17q134 0 307.5 -26.5
t333.5 -71.5l-314 -501v-4z" />
    <glyph glyph-name="uni1EA0" unicode="&#x1ea0;" 
d="M1219 0h-340l-43 269h-434l-109 -269h-345l656 1455h316zM515 547h277l-77 483h-5zM564 -163q81 0 132.5 -50.5t51.5 -126.5q0 -79 -53.5 -130t-137.5 -51q-81 0 -132.5 49.5t-51.5 125.5q0 79 53.5 131t137.5 52z" />
    <glyph glyph-name="uni1EA1" unicode="&#x1ea1;" horiz-adv-x="1124" 
d="M775 1002h308l-123 -1002h-308l21 164h-5q-56 -86 -129.5 -134.5t-160.5 -48.5q-105 0 -180 55t-110.5 146t-35.5 209q0 131 37.5 248.5t100.5 201t150.5 132t183.5 48.5q152 0 237 -90h6zM476 253q41 0 83.5 28t79.5 79.5t65 132t40 177.5v3q-69 74 -166 74
q-49 0 -91 -31t-69 -80t-42 -107t-15 -114q0 -74 31.5 -118t83.5 -44zM467 -163q81 0 132.5 -50.5t51.5 -126.5q0 -79 -53.5 -130t-137.5 -51q-81 0 -132.5 49.5t-51.5 125.5q0 79 53.5 131t137.5 52z" />
    <glyph glyph-name="uni1EA2" unicode="&#x1ea2;" 
d="M816 1811q-29 0 -65.5 -19t-62.5 -41l-81 99q42 39 105 66t128 27q91 0 140 -42.5t48 -112.5q-1 -137 -186 -178l-21 -46l-107 -2q-28 36 -27 65q1 21 27 41.5t57 34.5t57 35.5t26 44.5q0 28 -38 28zM879 0l-43 269h-434l-109 -269h-345l656 1455h316l299 -1455h-340z
M515 547h277l-77 483h-5z" />
    <glyph glyph-name="uni1EA3" unicode="&#x1ea3;" horiz-adv-x="1124" 
d="M681 1350q-29 0 -65.5 -19t-62.5 -41l-81 99q42 39 105 66t128 27q91 0 140 -42.5t48 -112.5q-1 -137 -186 -178l-21 -46l-107 -2q-28 36 -27 65q1 21 27 41.5t57 34.5t57 35.5t26 44.5q0 28 -38 28zM775 1002h308l-123 -1002h-308l21 164h-5q-56 -86 -129.5 -134.5
t-160.5 -48.5q-105 0 -180 55t-110.5 146t-35.5 209q0 131 37.5 248.5t100.5 201t150.5 132t183.5 48.5q152 0 237 -90h6zM476 253q41 0 83.5 28t79.5 79.5t65 132t40 177.5v3q-69 74 -166 74q-49 0 -91 -31t-69 -80t-42 -107t-15 -114q0 -74 31.5 -118t83.5 -44z" />
    <glyph glyph-name="uni1EA4" unicode="&#x1ea4;" 
d="M1321 1975l293 2l-294 -308h-227zM795 1711l-85 -153h-272l235 311h269l172 -311h-266l-48 153h-5zM604 1455h316l299 -1455h-340l-43 269h-434l-109 -269h-345zM515 547h277l-77 483h-5z" />
    <glyph glyph-name="uni1EA5" unicode="&#x1ea5;" horiz-adv-x="1124" 
d="M1121 1640l293 2l-294 -308h-227zM667 1288l-85 -153h-272l235 311h269l172 -311h-266l-48 153h-5zM767 931l8 71h308l-123 -1002h-308l21 164h-5q-56 -86 -129.5 -134.5t-160.5 -48.5q-105 0 -180 55t-110.5 146t-35.5 209q0 131 37.5 248.5t100.5 201t150.5 132
t183.5 48.5q152 0 237 -90h6zM476 253q41 0 83.5 28t79.5 79.5t65 132t40 177.5v3q-69 74 -166 74q-49 0 -91 -31t-69 -79.5t-42 -107t-15 -114.5q0 -74 31.5 -118t83.5 -44z" />
    <glyph glyph-name="uni1EA6" unicode="&#x1ea6;" 
d="M1392 1669h-216l-203 308l283 -2zM793 1711l-85 -153h-272l235 311h269l172 -311h-266l-48 153h-5zM604 1455h316l299 -1455h-340l-43 269h-434l-109 -269h-345zM515 547h277l-77 483h-5z" />
    <glyph glyph-name="uni1EA7" unicode="&#x1ea7;" horiz-adv-x="1124" 
d="M1179 1336h-216l-203 308l283 -2zM665 1288l-85 -153h-272l235 311h269l172 -311h-266l-48 153h-5zM767 931l8 71h308l-123 -1002h-308l21 164h-5q-56 -86 -129.5 -134.5t-160.5 -48.5q-105 0 -180 55t-110.5 146t-35.5 209q0 131 37.5 248.5t100.5 201t150.5 132
t183.5 48.5q152 0 237 -90h6zM476 253q41 0 83.5 28t79.5 79.5t65 132t40 177.5v3q-69 74 -166 74q-49 0 -91 -31t-69 -80t-42 -107t-15 -114q0 -74 31.5 -118t83.5 -44z" />
    <glyph glyph-name="uni1EA8" unicode="&#x1ea8;" 
d="M1261 1993q95 0 148 -44.5t53 -117.5q0 -64 -48 -107.5t-132 -62.5l-15 -46l-116 -6q-34 40 -33 65q1 20 26.5 40t56 34.5t56 37t25.5 45.5q0 30 -49 30q-28 0 -65 -18t-63 -39l-89 94q43 40 108.5 67.5t136.5 27.5zM798 1711l-85 -153h-272l235 311h269l172 -311h-266
l-48 153h-5zM604 1455h316l299 -1455h-340l-43 269h-434l-109 -269h-345zM515 547h277l-77 483h-5z" />
    <glyph glyph-name="uni1EA9" unicode="&#x1ea9;" horiz-adv-x="1124" 
d="M1081 1663q89 0 137 -42.5t48 -112.5q-3 -137 -183 -178l-21 -46l-107 -2q-28 36 -27 65q1 21 27 41.5t57 34.5t57 35.5t26 44.5q0 28 -38 28q-29 0 -65.5 -19t-62.5 -41l-81 99q42 39 105 66t128 27zM670 1288l-85 -153h-272l235 311h269l172 -311h-266l-48 153h-5z
M767 931l8 71h308l-123 -1002h-308l21 164h-5q-56 -86 -129.5 -134.5t-160.5 -48.5q-105 0 -180 55t-110.5 146t-35.5 209q0 131 37.5 248.5t100.5 201t150.5 132t183.5 48.5q152 0 237 -90h6zM476 253q41 0 83.5 28t79.5 79.5t65 132t40 177.5v3q-69 74 -166 74
q-49 0 -91 -31t-69 -80t-42 -107t-15 -114q0 -74 31.5 -118t83.5 -44z" />
    <glyph glyph-name="uni1EAA" unicode="&#x1eaa;" 
d="M706 1849q-24 0 -52.5 -23t-51.5 -59l-122 56q36 75 92 118.5t121 43.5q32 0 63 -10.5t46 -19.5t40 -27q61 -24 86 -24q31 0 63 23t54 60l121 -44q-37 -84 -94 -129.5t-126 -45.5q-72 0 -144 50q-7 3 -22.5 9t-22 9t-17.5 6.5t-19 5t-15 1.5zM787 1614l-122 -105h-249
l272 223h217l229 -223h-245l-93 105h-9zM879 0l-43 269h-434l-109 -269h-345l656 1455h316l299 -1455h-340zM515 547h277l-77 483h-5z" />
    <glyph glyph-name="uni1EAB" unicode="&#x1eab;" horiz-adv-x="1124" 
d="M642 1586q-64 0 -113 -104l-163 86q44 113 108.5 179.5t142.5 66.5q16 0 30 -1.5t27 -6l21.5 -7.5t20.5 -10.5l16 -10t16 -11.5t13 -10q54 -38 82 -38q34 0 64 28t52 74l161 -70q-43 -121 -106.5 -192t-139.5 -71q-31 0 -60.5 10.5t-44 19.5t-36.5 26q-4 3 -6 5
q-49 37 -85 37zM670 1288l-85 -153h-272l235 311h269l172 -311h-266l-48 153h-5zM767 931l8 71h308l-123 -1002h-308l21 164h-5q-56 -86 -129.5 -134.5t-160.5 -48.5q-105 0 -180 55t-110.5 146t-35.5 209q0 131 37.5 248.5t100.5 201t150.5 132t183.5 48.5q152 0 237 -90h6
zM476 253q41 0 83.5 28t79.5 79.5t65 132t40 177.5v3q-69 74 -166 74q-49 0 -91 -31t-69 -80t-42 -107t-15 -114q0 -74 31.5 -118t83.5 -44z" />
    <glyph glyph-name="uni1EAC" unicode="&#x1eac;" 
d="M806 1748l-85 -153h-272l235 311h269l172 -311h-266l-48 153h-5zM1219 0h-340l-43 269h-434l-109 -269h-345l656 1455h316zM515 547h277l-77 483h-5zM564 -163q81 0 132.5 -50.5t51.5 -126.5q0 -79 -53.5 -130t-137.5 -51q-81 0 -132.5 49.5t-51.5 125.5q0 79 53.5 131
t137.5 52z" />
    <glyph glyph-name="uni1EAD" unicode="&#x1ead;" horiz-adv-x="1124" 
d="M671 1287l-85 -153h-272l235 311h269l172 -311h-266l-48 153h-5zM775 1002h308l-123 -1002h-308l21 164h-5q-56 -86 -129.5 -134.5t-160.5 -48.5q-105 0 -180 55t-110.5 146t-35.5 209q0 131 37.5 248.5t100.5 201t150.5 132t183.5 48.5q152 0 237 -90h6zM476 253
q41 0 83.5 28t79.5 79.5t65 132t40 177.5v3q-69 74 -166 74q-49 0 -91 -31t-69 -80t-42 -107t-15 -114q0 -74 31.5 -118t83.5 -44zM467 -163q81 0 132.5 -50.5t51.5 -126.5q0 -79 -53.5 -130t-137.5 -51q-81 0 -132.5 49.5t-51.5 125.5q0 79 53.5 131t137.5 52z" />
    <glyph glyph-name="uni1EAE" unicode="&#x1eae;" 
d="M1199 1942l-314 -219h-190l207 218zM783 1498q-130 0 -216 65.5t-100 181.5h171q11 -51 49 -79t100 -28q122 0 180 107h177q-43 -113 -137 -180t-224 -67zM879 0l-43 269h-434l-109 -269h-345l656 1455h316l299 -1455h-340zM515 547h277l-77 483h-5z" />
    <glyph glyph-name="uni1EAF" unicode="&#x1eaf;" horiz-adv-x="1124" 
d="M1076 1796l-265 -306h-286l240 304zM663 1126q-139 0 -222 84.5t-74 231.5h222q-6 -55 13.5 -86.5t63.5 -31.5q48 0 83 33t46 85h222q-27 -141 -121 -228.5t-233 -87.5zM775 1002h308l-123 -1002h-308l21 164h-5q-56 -86 -129.5 -134.5t-160.5 -48.5q-105 0 -180 55
t-110.5 146t-35.5 209q0 131 37.5 248.5t100.5 201t150.5 132t183.5 48.5q152 0 237 -90h6zM476 253q41 0 83.5 28t79.5 79.5t65 132t40 177.5v3q-69 74 -166 74q-49 0 -91 -31t-69 -79.5t-42 -107t-15 -114.5q0 -74 31.5 -118t83.5 -44z" />
    <glyph glyph-name="uni1EB0" unicode="&#x1eb0;" 
d="M908 1723h-187l-290 219l307 -1zM638 1745q11 -51 49 -79t100 -28q122 0 180 107h177q-43 -113 -137 -180t-224 -67t-216 65.5t-100 181.5h171zM879 0l-43 269h-434l-109 -269h-345l656 1455h316l299 -1455h-340zM515 547h277l-77 483h-5z" />
    <glyph glyph-name="uni1EB1" unicode="&#x1eb1;" horiz-adv-x="1124" 
d="M814 1490h-282l-190 306l307 -2zM377 1442h222q-6 -55 13.5 -86.5t63.5 -31.5q48 0 83 33t46 85h222q-27 -141 -121 -228.5t-233 -87.5t-222 84.5t-74 231.5zM775 1002h308l-123 -1002h-308l21 164h-5q-56 -86 -129.5 -134.5t-160.5 -48.5q-105 0 -180 55t-110.5 146
t-35.5 209q0 131 37.5 248.5t100.5 201t150.5 132t183.5 48.5q152 0 237 -90h6zM476 253q41 0 83.5 28t79.5 79.5t65 132t40 177.5v3q-69 74 -166 74q-49 0 -91 -31t-69 -80t-42 -107t-15 -114q0 -74 31.5 -118t83.5 -44z" />
    <glyph glyph-name="uni1EB2" unicode="&#x1eb2;" 
d="M814 1857q-27 0 -59.5 -17t-56.5 -37l-75 90q37 35 93.5 58.5t114.5 23.5q73 0 115.5 -34.5t42.5 -92.5q0 -60 -41 -99t-109 -57l-18 -20l-55 -2q-23 0 -36 11.5t-13 30.5q0 18 20 36t44 30t44 28t20 30q0 21 -31 21zM783 1498q-130 0 -216 65.5t-100 181.5h171
q12 -51 49.5 -79t99.5 -28q122 0 180 107h177q-43 -113 -137 -180t-224 -67zM879 0l-43 269h-434l-109 -269h-345l656 1455h316l299 -1455h-340zM515 547h277l-77 483h-5z" />
    <glyph glyph-name="uni1EB3" unicode="&#x1eb3;" horiz-adv-x="1124" 
d="M731 1711q-29 0 -65.5 -19t-62.5 -41l-81 99q42 39 105 66t128 27q91 0 140 -42.5t48 -112.5q-1 -137 -186 -178l-21 -46l-107 -2q-28 36 -27 65q1 21 27 41.5t57 34.5t57 35.5t26 44.5q0 28 -38 28zM668 1126q-139 0 -222 84.5t-74 231.5h222q-6 -55 13.5 -86.5
t63.5 -31.5q48 0 83 33t46 85h222q-27 -141 -121 -228.5t-233 -87.5zM775 1002h308l-123 -1002h-308l21 164h-5q-56 -86 -129.5 -134.5t-160.5 -48.5q-105 0 -180 55t-110.5 146t-35.5 209q0 131 37.5 248.5t100.5 201t150.5 132t183.5 48.5q152 0 237 -90h6zM476 253
q41 0 83.5 28t79.5 79.5t65 132t40 177.5v3q-69 74 -166 74q-49 0 -91 -31t-69 -80t-42 -107t-15 -114q0 -74 31.5 -118t83.5 -44z" />
    <glyph glyph-name="uni1EB4" unicode="&#x1eb4;" 
d="M663 1849q-23 0 -51.5 -21.5t-53.5 -56.5l-132 46q41 76 104.5 122t138.5 46q15 0 28.5 -1.5t27.5 -5t23.5 -6.5t23.5 -9t20 -9l21.5 -10.5t18.5 -9.5q60 -30 97 -30q31 0 62 20.5t56 57.5l130 -34q-40 -84 -105 -132t-145 -48q-30 0 -61 7.5t-49.5 15.5t-46.5 22
q-74 36 -107 36zM787 1638q122 0 180 107h177q-43 -113 -137 -180t-224 -67t-216 65.5t-100 181.5h171q12 -51 49.5 -79t99.5 -28zM879 0l-43 269h-434l-109 -269h-345l656 1455h316l299 -1455h-340zM515 547h277l-77 483h-5z" />
    <glyph glyph-name="uni1EB5" unicode="&#x1eb5;" horiz-adv-x="1124" 
d="M645 1585q-64 0 -113 -104l-163 86q44 113 108.5 179.5t142.5 66.5q16 0 30 -1.5t27 -6l21.5 -7.5t20.5 -10.5l16 -10t16 -11.5t13 -10q55 -38 82 -38q34 0 64 28t52 74l161 -70q-43 -121 -106.5 -192t-139.5 -71q-31 0 -60 10.5t-44 19.5t-37 26q-4 3 -6 5
q-49 37 -85 37zM663 1126q-139 0 -222 84.5t-74 231.5h222q-6 -55 13.5 -86.5t63.5 -31.5q48 0 83 33t46 85h222q-27 -141 -121 -228.5t-233 -87.5zM767 931l8 71h308l-123 -1002h-308l21 164h-5q-56 -86 -129.5 -134.5t-160.5 -48.5q-105 0 -180 55t-110.5 146t-35.5 209
q0 131 37.5 248.5t100.5 201t150.5 132t183.5 48.5q152 0 237 -90h6zM476 253q41 0 83.5 28t79.5 79.5t65 132t40 177.5v3q-69 74 -166 74q-49 0 -91 -31t-69 -79.5t-42 -107t-15 -114.5q0 -74 31.5 -118t83.5 -44z" />
    <glyph glyph-name="uni1EB6" unicode="&#x1eb6;" 
d="M797 1587q-139 0 -222 84.5t-74 231.5h222q-6 -55 13.5 -86.5t63.5 -31.5q48 0 83 33t46 85h222q-27 -141 -121 -228.5t-233 -87.5zM1219 0h-340l-43 269h-434l-109 -269h-345l656 1455h316zM515 547h277l-77 483h-5zM564 -163q81 0 132.5 -50.5t51.5 -126.5
q0 -79 -53.5 -130t-137.5 -51q-81 0 -132.5 49.5t-51.5 125.5q0 79 53.5 131t137.5 52z" />
    <glyph glyph-name="uni1EB7" unicode="&#x1eb7;" horiz-adv-x="1124" 
d="M662 1126q-139 0 -222 84.5t-74 231.5h222q-6 -55 13.5 -86.5t63.5 -31.5q48 0 83 33t46 85h222q-27 -141 -121 -228.5t-233 -87.5zM775 1002h308l-123 -1002h-308l21 164h-5q-56 -86 -129.5 -134.5t-160.5 -48.5q-105 0 -180 55t-110.5 146t-35.5 209q0 131 37.5 248.5
t100.5 201t150.5 132t183.5 48.5q152 0 237 -90h6zM476 253q41 0 83.5 28t79.5 79.5t65 132t40 177.5v3q-69 74 -166 74q-49 0 -91 -31t-69 -80t-42 -107t-15 -114q0 -74 31.5 -118t83.5 -44zM467 -163q81 0 132.5 -50.5t51.5 -126.5q0 -79 -53.5 -130t-137.5 -51
q-81 0 -132.5 49.5t-51.5 125.5q0 79 53.5 131t137.5 52z" />
    <glyph glyph-name="uni1EB8" unicode="&#x1eb8;" horiz-adv-x="1112" 
d="M1009 292l-36 -292h-901l178 1455h863l-35 -293h-543l-37 -297h427l-35 -288h-427l-35 -285h581zM507 -521q-81 0 -132.5 49.5t-51.5 125.5q0 79 53.5 131t137.5 52q81 0 132.5 -50.5t51.5 -126.5q0 -79 -53.5 -130t-137.5 -51z" />
    <glyph glyph-name="uni1EB9" unicode="&#x1eb9;" horiz-adv-x="966" 
d="M496 235q105 0 183 101l228 -134q-80 -111 -185 -165.5t-250 -54.5q-197 0 -308.5 112.5t-111.5 314.5q0 97 24 188t71 167.5t112.5 134t154 90t189.5 32.5q64 0 123.5 -17.5t108.5 -51.5t78.5 -90t29.5 -126q0 -67 -31 -124t-84 -99t-127 -76t-154.5 -55.5t-172.5 -35.5
l-13 -18q19 -46 56 -69.5t79 -23.5zM580 764q-70 0 -130.5 -57t-87.5 -157l13 -9q274 50 274 166q0 25 -18.5 41t-50.5 16zM430 -163q81 0 132.5 -50.5t51.5 -126.5q0 -79 -53.5 -130t-137.5 -51q-81 0 -132.5 49.5t-51.5 125.5q0 79 53.5 131t137.5 52z" />
    <glyph glyph-name="uni1EBA" unicode="&#x1eba;" horiz-adv-x="1112" 
d="M608 1748l-81 99q42 39 105 66t128 27q91 0 140 -42.5t48 -112.5q-1 -137 -186 -178l-21 -46l-107 -2q-28 36 -27 65q1 21 27 41.5t57 34.5t57 35.5t26 44.5q0 28 -38 28q-29 0 -65.5 -19t-62.5 -41zM1009 292l-36 -292h-901l178 1455h863l-35 -293h-543l-37 -297h427
l-35 -288h-427l-35 -285h581z" />
    <glyph glyph-name="uni1EBB" unicode="&#x1ebb;" horiz-adv-x="966" 
d="M646 1350q-29 0 -65.5 -19t-62.5 -41l-81 99q42 39 105 66t128 27q91 0 140 -42.5t48 -112.5q-1 -137 -186 -178l-21 -46l-107 -2q-28 36 -27 65q1 21 27 41.5t57 34.5t57 35.5t26 44.5q0 28 -38 28zM496 235q105 0 183 101l228 -134q-80 -111 -185 -165.5t-250 -54.5
q-197 0 -308.5 112.5t-111.5 314.5q0 97 24 188t71 167.5t112.5 134t154 90t189.5 32.5q64 0 123.5 -17.5t108.5 -51.5t78.5 -90t29.5 -126q0 -67 -31 -124t-84 -99t-127 -76t-154.5 -55.5t-172.5 -35.5l-13 -18q19 -46 56 -69.5t79 -23.5zM580 764q-70 0 -130.5 -57
t-87.5 -157l13 -9q274 50 274 166q0 25 -18.5 41t-50.5 16z" />
    <glyph glyph-name="uni1EBC" unicode="&#x1ebc;" horiz-adv-x="1112" 
d="M340 1664q46 113 114.5 179.5t150.5 66.5q17 0 32.5 -1.5t29 -6l23 -7.5t21.5 -10t17 -10.5l16.5 -11.5t13.5 -9q22 -15 33 -21.5t26 -12t28 -5.5q36 0 68 28t54 74l171 -70q-45 -121 -112.5 -192t-147.5 -71q-11 0 -22.5 1t-20 2.5t-19 5l-17 5.5t-16.5 7.5t-14 7.5
t-13.5 8.5t-12 8t-12 8t-10.5 7.5q-52 37 -88 37t-67 -28.5t-54 -75.5zM1009 292l-36 -292h-901l178 1455h863l-35 -293h-543l-37 -297h427l-35 -288h-427l-35 -285h581z" />
    <glyph glyph-name="uni1EBD" unicode="&#x1ebd;" horiz-adv-x="966" 
d="M543 1224q-36 0 -67 -28.5t-54 -75.5l-172 86q46 113 114.5 179.5t150.5 66.5q17 0 32.5 -1.5t29 -6l23 -7.5t21.5 -10t17 -10.5l16.5 -11.5t13.5 -9q22 -15 33 -21.5t26 -12t28 -5.5q36 0 68 28t54 74l171 -70q-45 -121 -112.5 -192t-147.5 -71q-11 0 -22.5 1t-20 2.5
t-19 5l-17 5.5t-16.5 7.5t-14 7.5t-13.5 8.5t-12 8t-12 8t-10.5 7.5q-52 37 -88 37zM943 736q0 -67 -31 -124t-84 -99t-127 -76t-154.5 -55.5t-172.5 -35.5l-13 -18q19 -46 56 -69.5t79 -23.5q105 0 183 101l228 -134q-80 -111 -185 -165.5t-250 -54.5q-197 0 -308.5 112.5
t-111.5 314.5q0 97 24 188t71 167.5t112.5 134t154 90t189.5 32.5q64 0 123.5 -17.5t108.5 -51.5t78.5 -90t29.5 -126zM580 764q-70 0 -130.5 -57t-87.5 -157l13 -9q274 50 274 166q0 25 -18.5 41t-50.5 16z" />
    <glyph glyph-name="uni1EBE" unicode="&#x1ebe;" horiz-adv-x="1112" 
d="M1241 1972l293 2l-294 -308h-227zM715 1708l-85 -153h-272l235 311h269l172 -311h-266l-48 153h-5zM72 0l178 1455h863l-35 -293h-543l-37 -297h427l-35 -288h-427l-35 -285h581l-36 -292h-901z" />
    <glyph glyph-name="uni1EBF" unicode="&#x1ebf;" horiz-adv-x="966" 
d="M1086 1640l293 2l-294 -308h-227zM510 1446h269l172 -311h-266l-48 153h-5l-85 -153h-272zM943 736q0 -67 -31 -124t-84 -99t-127 -76t-154.5 -55.5t-172.5 -35.5l-13 -18q19 -46 56 -69.5t79 -23.5q105 0 183 101l228 -134q-80 -111 -185 -165.5t-250 -54.5
q-197 0 -308.5 112.5t-111.5 314.5q0 97 24 188t71 167.5t112.5 134t154 90t189.5 32.5q64 0 123.5 -17.5t108.5 -51.5t78.5 -90t29.5 -126zM580 764q-70 0 -130.5 -57t-87.5 -157l13 -9q274 50 274 166q0 25 -18.5 41t-50.5 16z" />
    <glyph glyph-name="uni1EC0" unicode="&#x1ec0;" horiz-adv-x="1112" 
d="M1312 1666h-216l-203 308l283 -2zM713 1708l-85 -153h-272l235 311h269l172 -311h-266l-48 153h-5zM72 0l178 1455h863l-35 -293h-543l-37 -297h427l-35 -288h-427l-35 -285h581l-36 -292h-901z" />
    <glyph glyph-name="uni1EC1" unicode="&#x1ec1;" horiz-adv-x="966" 
d="M1144 1336h-216l-203 308l283 -2zM508 1446h269l172 -311h-266l-48 153h-5l-85 -153h-272zM943 736q0 -67 -31 -124t-84 -99t-127 -76t-154.5 -55.5t-172.5 -35.5l-13 -18q19 -46 56 -69.5t79 -23.5q105 0 183 101l228 -134q-80 -111 -185 -165.5t-250 -54.5
q-197 0 -308.5 112.5t-111.5 314.5q0 97 24 188t71 167.5t112.5 134t154 90t189.5 32.5q64 0 123.5 -17.5t108.5 -51.5t78.5 -90t29.5 -126zM580 764q-70 0 -130.5 -57t-87.5 -157l13 -9q274 50 274 166q0 25 -18.5 41t-50.5 16z" />
    <glyph glyph-name="uni1EC2" unicode="&#x1ec2;" horiz-adv-x="1112" 
d="M1181 1990q95 0 148 -44.5t53 -117.5q0 -64 -48 -107.5t-132 -62.5l-15 -46l-116 -6q-34 40 -33 65q1 20 26.5 40t56 34.5t56 37t25.5 45.5q0 30 -49 30q-28 0 -65 -18t-63 -39l-89 94q43 40 108.5 67.5t136.5 27.5zM718 1708l-85 -153h-272l235 311h269l172 -311h-266
l-48 153h-5zM72 0l178 1455h863l-35 -293h-543l-37 -297h427l-35 -288h-427l-35 -285h581l-36 -292h-901z" />
    <glyph glyph-name="uni1EC3" unicode="&#x1ec3;" horiz-adv-x="966" 
d="M1046 1663q89 0 137 -42.5t48 -112.5q-3 -137 -183 -178l-21 -46l-107 -2q-28 36 -27 65q1 21 27 41.5t57 34.5t57 35.5t26 44.5q0 28 -38 28q-29 0 -65.5 -19t-62.5 -41l-81 99q42 39 105 66t128 27zM513 1446h269l172 -311h-266l-48 153h-5l-85 -153h-272zM943 736
q0 -67 -31 -124t-84 -99t-127 -76t-154.5 -55.5t-172.5 -35.5l-13 -18q19 -46 56 -69.5t79 -23.5q105 0 183 101l228 -134q-80 -111 -185 -165.5t-250 -54.5q-197 0 -308.5 112.5t-111.5 314.5q0 97 24 188t71 167.5t112.5 134t154 90t189.5 32.5q64 0 123.5 -17.5
t108.5 -51.5t78.5 -90t29.5 -126zM580 764q-70 0 -130.5 -57t-87.5 -157l13 -9q274 50 274 166q0 25 -18.5 41t-50.5 16z" />
    <glyph glyph-name="uni1EC4" unicode="&#x1ec4;" horiz-adv-x="1112" 
d="M626 1846q-24 0 -52.5 -23t-51.5 -59l-122 56q36 75 92 118.5t121 43.5q32 0 63 -10.5t46 -19.5t40 -27q61 -24 86 -24q31 0 63 23t54 60l121 -44q-37 -84 -94 -129.5t-126 -45.5q-72 0 -144 50q-7 3 -22.5 9t-22 9t-17.5 6.5t-19 5t-15 1.5zM707 1611l-122 -105h-249
l272 223h217l229 -223h-245l-93 105h-9zM1078 1162h-543l-37 -297h427l-35 -288h-427l-35 -285h581l-36 -292h-901l178 1455h863z" />
    <glyph glyph-name="uni1EC5" unicode="&#x1ec5;" horiz-adv-x="966" 
d="M924 1821l161 -70q-43 -121 -106.5 -192t-139.5 -71q-31 0 -60.5 10.5t-44 19.5t-36.5 26q-4 3 -6 5q-49 37 -85 37q-64 0 -113 -104l-163 86q44 113 108.5 179.5t142.5 66.5q16 0 30 -1.5t27 -6l21.5 -7.5t20.5 -10.5l16 -10t16 -11.5t13 -10q54 -38 82 -38q34 0 64 28
t52 74zM513 1446h269l172 -311h-266l-48 153h-5l-85 -153h-272zM943 736q0 -67 -31 -124t-84 -99t-127 -76t-154.5 -55.5t-172.5 -35.5l-13 -18q19 -46 56 -69.5t79 -23.5q105 0 183 101l228 -134q-80 -111 -185 -165.5t-250 -54.5q-197 0 -308.5 112.5t-111.5 314.5
q0 97 24 188t71 167.5t112.5 134t154 90t189.5 32.5q64 0 123.5 -17.5t108.5 -51.5t78.5 -90t29.5 -126zM580 764q-70 0 -130.5 -57t-87.5 -157l13 -9q274 50 274 166q0 25 -18.5 41t-50.5 16z" />
    <glyph glyph-name="uni1EC6" unicode="&#x1ec6;" horiz-adv-x="1112" 
d="M726 1745l-85 -153h-272l235 311h269l172 -311h-266l-48 153h-5zM1078 1162h-543l-37 -297h427l-35 -288h-427l-35 -285h581l-36 -292h-901l178 1455h863zM514 -163q81 0 132.5 -50.5t51.5 -126.5q0 -79 -53.5 -130t-137.5 -51q-81 0 -132.5 49.5t-51.5 125.5
q0 79 53.5 131t137.5 52z" />
    <glyph glyph-name="uni1EC7" unicode="&#x1ec7;" horiz-adv-x="966" 
d="M636 1287l-85 -153h-272l235 311h269l172 -311h-266l-48 153h-5zM943 736q0 -67 -31 -124t-84 -99t-127 -76t-154.5 -55.5t-172.5 -35.5l-13 -18q19 -46 56 -69.5t79 -23.5q105 0 183 101l228 -134q-80 -111 -185 -165.5t-250 -54.5q-197 0 -308.5 112.5t-111.5 314.5
q0 97 24 188t71 167.5t112.5 134t154 90t189.5 32.5q64 0 123.5 -17.5t108.5 -51.5t78.5 -90t29.5 -126zM580 764q-70 0 -130.5 -57t-87.5 -157l13 -9q274 50 274 166q0 25 -18.5 41t-50.5 16zM430 -163q81 0 132.5 -50.5t51.5 -126.5q0 -79 -53.5 -130t-137.5 -51
q-81 0 -132.5 49.5t-51.5 125.5q0 79 53.5 131t137.5 52z" />
    <glyph glyph-name="uni1EC8" unicode="&#x1ec8;" horiz-adv-x="621" 
d="M340 1748l-81 99q42 39 105 66t128 27q91 0 140 -42.5t48 -112.5q-1 -137 -186 -178l-21 -46l-107 -2q-28 36 -27 65q1 21 27 41.5t57 34.5t57 35.5t26 44.5q0 28 -38 28q-29 0 -65.5 -19t-62.5 -41zM415 0h-332l178 1455h333z" />
    <glyph glyph-name="uni1EC9" unicode="&#x1ec9;" horiz-adv-x="541" 
d="M254 1290l-81 99q42 39 105 66t128 27q91 0 140 -42.5t48 -112.5q-1 -137 -186 -178l-21 -46l-107 -2q-28 36 -27 65q1 21 27 41.5t57 34.5t57 35.5t26 44.5q0 28 -38 28q-29 0 -65.5 -19t-62.5 -41zM178 1002h307l-123 -1002h-307z" />
    <glyph glyph-name="uni1ECA" unicode="&#x1eca;" horiz-adv-x="621" 
d="M415 0h-332l178 1455h333zM211 -521q-81 0 -132.5 49.5t-51.5 125.5q0 79 53.5 131t137.5 52q81 0 132.5 -50.5t51.5 -126.5q0 -79 -53.5 -130t-137.5 -51z" />
    <glyph glyph-name="uni1ECB" unicode="&#x1ecb;" horiz-adv-x="541" 
d="M375 1486q81 0 132.5 -49.5t51.5 -125.5q0 -79 -53.5 -131t-137.5 -52q-81 0 -132.5 50.5t-51.5 126.5q0 79 53.5 130t137.5 51zM178 1002h307l-123 -1002h-307zM169 -521q-81 0 -132.5 49.5t-51.5 125.5q0 79 53.5 131t137.5 52q81 0 132.5 -50.5t51.5 -126.5
q0 -79 -53.5 -130t-137.5 -51z" />
    <glyph glyph-name="uni1ECC" unicode="&#x1ecc;" horiz-adv-x="1504" 
d="M869 1474q132 0 241.5 -41.5t187 -119.5t120.5 -193.5t43 -258.5q0 -144 -33 -275.5t-98.5 -241.5t-157 -191t-216 -126.5t-267.5 -45.5q-133 0 -242.5 41.5t-186.5 119.5t-119.5 195t-42.5 262q0 138 34.5 268t102 239.5t160 192t215 129t259.5 46.5zM714 287
q117 0 210 75t144 201.5t51 277.5q0 163 -76.5 245t-205.5 82q-84 0 -158.5 -46.5t-126.5 -122.5t-82.5 -175.5t-30.5 -204.5q0 -164 75.5 -248t199.5 -84zM655 -521q-81 0 -132.5 49.5t-51.5 125.5q0 79 53.5 131t137.5 52q81 0 132.5 -50.5t51.5 -126.5q0 -79 -53.5 -130
t-137.5 -51z" />
    <glyph glyph-name="uni1ECD" unicode="&#x1ecd;" horiz-adv-x="1088" 
d="M607 1020q196 0 311.5 -112.5t115.5 -315.5q0 -99 -20.5 -188.5t-65 -167t-109 -134t-157.5 -89t-205 -32.5q-193 0 -308 114t-115 317q0 97 23 187t70 166.5t112 133.5t154.5 89t193.5 32zM582 746q-66 0 -117 -47.5t-76 -119t-25 -150.5q0 -88 40 -131t96 -43
q66 0 118 45.5t79 117t27 154.5q0 43 -9.5 76t-24 51t-35 29t-37.5 14.5t-36 3.5zM439 -521q-81 0 -132.5 49.5t-51.5 125.5q0 79 53.5 131t137.5 52q81 0 132.5 -50.5t51.5 -126.5q0 -79 -53.5 -130t-137.5 -51z" />
    <glyph glyph-name="uni1ECE" unicode="&#x1ece;" horiz-adv-x="1504" 
d="M842 1750l-81 99q42 39 105 66t128 27q91 0 140 -42.5t48 -112.5q-1 -137 -186 -178l-21 -46l-107 -2q-28 36 -27 65q1 21 27 41.5t57 34.5t57 35.5t26 44.5q0 28 -38 28q-29 0 -65.5 -19t-62.5 -41zM869 1474q132 0 241.5 -41.5t187 -119.5t120.5 -193.5t43 -258.5
q0 -144 -33 -275.5t-98.5 -241.5t-157 -191t-216 -126.5t-267.5 -45.5q-133 0 -242.5 41.5t-186.5 119.5t-119.5 195t-42.5 262q0 138 34.5 268t102 239.5t160 192t215 129t259.5 46.5zM714 287q117 0 210 75t144 201.5t51 277.5q0 163 -76.5 245t-205.5 82
q-84 0 -158.5 -46.5t-126.5 -122.5t-82.5 -175.5t-30.5 -204.5q0 -164 75.5 -248t199.5 -84z" />
    <glyph glyph-name="uni1ECF" unicode="&#x1ecf;" horiz-adv-x="1088" 
d="M538 1290l-81 99q42 39 105 66t128 27q91 0 140 -42.5t48 -112.5q-1 -137 -186 -178l-21 -46l-107 -2q-28 36 -27 65q1 21 27 41.5t57 34.5t57 35.5t26 44.5q0 28 -38 28q-29 0 -65.5 -19t-62.5 -41zM607 1020q196 0 311.5 -112.5t115.5 -315.5q0 -99 -20.5 -188.5
t-65 -167t-109 -134t-157.5 -89t-205 -32.5q-193 0 -308 114t-115 317q0 97 23 187t70 166.5t112 133.5t154.5 89t193.5 32zM582 746q-66 0 -117 -47.5t-76 -119t-25 -150.5q0 -88 40 -131t96 -43q66 0 118 45.5t79 117t27 154.5q0 53 -14 90t-37 54t-45 23.5t-46 6.5z" />
    <glyph glyph-name="uni1ED0" unicode="&#x1ed0;" horiz-adv-x="1504" 
d="M1475 1974l293 2l-294 -308h-227zM949 1710l-85 -153h-272l235 311h269l172 -311h-266l-48 153h-5zM869 1474q132 0 241.5 -41.5t187 -119.5t120.5 -193.5t43 -258.5q0 -144 -33 -275.5t-98.5 -241.5t-157 -191t-215.5 -126.5t-268 -45.5q-133 0 -242.5 41.5
t-186.5 119.5t-119.5 195t-42.5 262q0 138 34.5 268t102 239.5t160 192t215 129t259.5 46.5zM714 287q117 0 210.5 75t144 201.5t50.5 277.5q0 163 -76.5 245t-205.5 82q-83 0 -158 -46.5t-127 -122.5t-82.5 -175.5t-30.5 -204.5q0 -164 75.5 -248t199.5 -84z" />
    <glyph glyph-name="uni1ED1" unicode="&#x1ed1;" horiz-adv-x="1088" 
d="M1106 1640l293 2l-294 -308h-227zM652 1288l-85 -153h-272l235 311h269l172 -311h-266l-48 153h-5zM607 1020q196 0 311.5 -112.5t115.5 -315.5q0 -99 -20.5 -188.5t-65 -167t-109 -134t-157.5 -89t-205 -32.5q-193 0 -308 114t-115 317q0 97 23 187t70 166.5t112 133.5
t154.5 89t193.5 32zM500 255q66 0 118 45.5t79 117t27 154.5q0 43 -9.5 76t-24 51t-35 29t-37.5 14.5t-36 3.5q-65 0 -116.5 -47.5t-76.5 -119t-25 -150.5q0 -88 40 -131t96 -43z" />
    <glyph glyph-name="uni1ED2" unicode="&#x1ed2;" horiz-adv-x="1504" 
d="M1546 1668h-216l-203 308l283 -2zM947 1710l-85 -153h-272l235 311h269l172 -311h-266l-48 153h-5zM869 1474q132 0 241.5 -41.5t187 -119.5t120.5 -193.5t43 -258.5q0 -144 -33 -275.5t-98.5 -241.5t-157 -191t-216 -126.5t-267.5 -45.5q-133 0 -242.5 41.5
t-186.5 119.5t-119.5 195t-42.5 262q0 138 34.5 268t102 239.5t160 192t215 129t259.5 46.5zM714 287q117 0 210.5 75t144 201.5t50.5 277.5q0 163 -76.5 245t-205.5 82q-83 0 -158 -46.5t-127 -122.5t-82.5 -175.5t-30.5 -204.5q0 -164 75.5 -248t199.5 -84z" />
    <glyph glyph-name="uni1ED3" unicode="&#x1ed3;" horiz-adv-x="1088" 
d="M1164 1336h-216l-203 308l283 -2zM650 1288l-85 -153h-272l235 311h269l172 -311h-266l-48 153h-5zM607 1020q196 0 311.5 -112.5t115.5 -315.5q0 -125 -34 -233.5t-100 -194t-175 -134.5t-248 -49q-193 0 -308 114t-115 317q0 97 23 187t70 166.5t112 133.5t154.5 89
t193.5 32zM500 255q66 0 118 45.5t79 117t27 154.5q0 43 -9.5 76t-24 51t-35 29t-37.5 14.5t-36 3.5q-66 0 -117 -47.5t-76 -119t-25 -150.5q0 -88 40 -131t96 -43z" />
    <glyph glyph-name="uni1ED4" unicode="&#x1ed4;" horiz-adv-x="1504" 
d="M1415 1992q95 0 148 -44.5t53 -117.5q0 -64 -48 -107.5t-132 -62.5l-15 -46l-116 -6q-34 40 -33 65q1 20 26.5 40t56 34.5t56 37t25.5 45.5q0 30 -49 30q-28 0 -65 -18t-63 -39l-89 94q43 40 108.5 67.5t136.5 27.5zM952 1710l-85 -153h-272l235 311h269l172 -311h-266
l-48 153h-5zM869 1474q132 0 241.5 -41.5t187 -119.5t120.5 -193.5t43 -258.5q0 -144 -33 -275.5t-98.5 -241.5t-157 -191t-216 -126.5t-267.5 -45.5q-133 0 -242.5 41.5t-186.5 119.5t-119.5 195t-42.5 262q0 138 34.5 268t102 239.5t160 192t215 129t259.5 46.5zM714 287
q117 0 210.5 75t144 201.5t50.5 277.5q0 163 -76.5 245t-205.5 82q-83 0 -158 -46.5t-127 -122.5t-82.5 -175.5t-30.5 -204.5q0 -164 75.5 -248t199.5 -84z" />
    <glyph glyph-name="uni1ED5" unicode="&#x1ed5;" horiz-adv-x="1088" 
d="M1066 1663q89 0 137 -42.5t48 -112.5q-3 -137 -183 -178l-21 -46l-107 -2q-28 36 -27 65q1 21 27 41.5t57 34.5t57 35.5t26 44.5q0 28 -38 28q-29 0 -65.5 -19t-62.5 -41l-81 99q42 39 105 66t128 27zM655 1288l-85 -153h-272l235 311h269l172 -311h-266l-48 153h-5z
M607 1020q196 0 311.5 -112.5t115.5 -315.5q0 -99 -20.5 -188.5t-65 -167t-109 -134t-157.5 -89t-205 -32.5q-193 0 -308 114t-115 317q0 97 23 187t70 166.5t112 133t154.5 89t193.5 32.5zM500 255q66 0 118 45.5t79 117t27 154.5q0 43 -9.5 75.5t-24 51t-35 29.5
t-37.5 14.5t-36 3.5q-65 0 -116.5 -47.5t-76.5 -119t-25 -150.5q0 -88 40 -131t96 -43z" />
    <glyph glyph-name="uni1ED6" unicode="&#x1ed6;" horiz-adv-x="1504" 
d="M860 1848q-24 0 -52.5 -23t-51.5 -59l-122 56q36 75 92 118.5t121 43.5q32 0 63 -10.5t46 -19.5t40 -27q61 -24 86 -24q31 0 63 23t54 60l121 -44q-37 -84 -94 -129.5t-126 -45.5q-72 0 -144 50q-7 3 -22.5 9t-22 9t-17.5 6.5t-19 5t-15 1.5zM941 1613l-122 -105h-249
l272 223h217l229 -223h-245l-93 105h-9zM869 1474q132 0 241.5 -41.5t187 -119.5t120.5 -193.5t43 -258.5q0 -144 -33 -275.5t-98.5 -241.5t-157 -191t-216 -126.5t-267.5 -45.5q-133 0 -242.5 41.5t-186.5 119.5t-119.5 195t-42.5 262q0 138 34.5 268t102 239.5t160 192
t215 129t259.5 46.5zM714 287q117 0 210 75t144 201.5t51 277.5q0 163 -76.5 245t-205.5 82q-84 0 -158.5 -46.5t-126.5 -122.5t-82.5 -175.5t-30.5 -204.5q0 -164 75.5 -248t199.5 -84z" />
    <glyph glyph-name="uni1ED7" unicode="&#x1ed7;" horiz-adv-x="1088" 
d="M627 1586q-64 0 -113 -104l-163 86q44 113 108.5 179.5t142.5 66.5q16 0 30 -1.5t27 -6l21.5 -7.5t20.5 -10.5l16 -10t16 -11.5t13 -10q54 -38 82 -38q34 0 64 28t52 74l161 -70q-43 -121 -106.5 -192t-139.5 -71q-31 0 -60.5 10.5t-44 19.5t-36.5 26q-4 3 -6 5
q-49 37 -85 37zM655 1288l-85 -153h-272l235 311h269l172 -311h-266l-48 153h-5zM607 1020q196 0 311.5 -112.5t115.5 -315.5q0 -99 -20.5 -188.5t-65 -167t-109 -134t-157.5 -89t-205 -32.5q-193 0 -308 114t-115 317q0 97 23 187t70 166.5t112 133.5t154.5 89t193.5 32z
M500 255q66 0 118 45.5t79 117t27 154.5q0 43 -9.5 76t-24 51t-35 29t-37.5 14.5t-36 3.5q-65 0 -116.5 -47.5t-76.5 -119t-25 -150.5q0 -88 40 -131t96 -43z" />
    <glyph glyph-name="uni1ED8" unicode="&#x1ed8;" horiz-adv-x="1504" 
d="M960 1747l-85 -153h-272l235 311h269l172 -311h-266l-48 153h-5zM869 1474q132 0 241.5 -41.5t187 -119.5t120.5 -193.5t43 -258.5q0 -144 -33 -275.5t-98.5 -241.5t-157 -191t-216 -126.5t-267.5 -45.5q-133 0 -242.5 41.5t-186.5 119.5t-119.5 195t-42.5 262
q0 138 34.5 268t102 239.5t160 192t215 129t259.5 46.5zM714 287q117 0 210 75t144 201.5t51 277.5q0 163 -76.5 245t-205.5 82q-83 0 -158 -46.5t-127 -122.5t-82.5 -175.5t-30.5 -204.5q0 -164 75.5 -248t199.5 -84zM662 -163q81 0 132.5 -50.5t51.5 -126.5
q0 -79 -53.5 -130t-137.5 -51q-81 0 -132.5 49.5t-51.5 125.5q0 79 53.5 131t137.5 52z" />
    <glyph glyph-name="uni1ED9" unicode="&#x1ed9;" horiz-adv-x="1088" 
d="M656 1287l-85 -153h-272l235 311h269l172 -311h-266l-48 153h-5zM607 1020q196 0 311.5 -112.5t115.5 -315.5q0 -99 -20.5 -188.5t-65 -167t-109 -134t-157.5 -89t-205 -32.5q-193 0 -308 114t-115 317q0 97 23 187t70 166.5t112 133.5t154.5 89t193.5 32zM500 255
q66 0 118 45.5t79 117t27 154.5q0 43 -9.5 76t-24 51t-35 29t-37.5 14.5t-36 3.5q-66 0 -117 -47.5t-76 -119t-25 -150.5q0 -88 40 -131t96 -43zM446 -163q81 0 132.5 -50.5t51.5 -126.5q0 -79 -53.5 -130t-137.5 -51q-81 0 -132.5 49.5t-51.5 125.5q0 79 53.5 131t137.5 52
z" />
    <glyph glyph-name="uni1EDA" unicode="&#x1eda;" horiz-adv-x="1637" 
d="M1300 1905l-265 -306h-286l240 304zM1472 1587h250l-23 -177q-20 -160 -87 -249.5t-170 -109.5l-2 -4q21 -85 21 -186q0 -144 -33 -275.5t-98.5 -241.5t-157 -191t-216 -126.5t-267.5 -45.5q-133 0 -242.5 41.5t-186.5 119.5t-119.5 195t-42.5 262q0 138 34.5 268
t102 239.5t160 192t215 129t259.5 46.5q173 0 305 -70t206 -201l6 -1q18 17 31.5 54.5t19 70.5t14.5 98zM714 287q117 0 210 75t144 201.5t51 277.5q0 163 -76.5 245t-205.5 82q-84 0 -158.5 -46.5t-126.5 -122.5t-82.5 -175.5t-30.5 -204.5q0 -164 75.5 -248t199.5 -84z
" />
    <glyph glyph-name="uni1EDB" unicode="&#x1edb;" horiz-adv-x="1285" 
d="M1044 1447l-265 -306h-286l240 304zM1099 1159h250l-23 -177q-21 -173 -98.5 -264t-194.5 -100q1 -9 1 -26q0 -99 -20.5 -188.5t-65 -167t-109 -134t-157.5 -89t-205 -32.5q-193 0 -308 114t-115 317q0 97 23 187t70 166.5t112 133.5t154.5 89t193.5 32q147 0 251 -64.5
t147 -185.5h2q30 22 44 75t27 152zM500 255q66 0 118 45.5t79 117t27 154.5q0 43 -9.5 76t-24 51t-35 29t-37.5 14.5t-36 3.5q-66 0 -117 -47.5t-76 -119t-25 -150.5q0 -88 40 -131t96 -43z" />
    <glyph glyph-name="uni1EDC" unicode="&#x1edc;" horiz-adv-x="1637" 
d="M1064 1599h-282l-190 306l307 -2zM1472 1587h250l-23 -177q-20 -160 -87 -249.5t-170 -109.5l-2 -4q21 -85 21 -186q0 -144 -33 -275.5t-98.5 -241.5t-157 -191t-216 -126.5t-267.5 -45.5q-133 0 -242.5 41.5t-186.5 119.5t-119.5 195t-42.5 262q0 138 34.5 268
t102 239.5t160 192t215 129t259.5 46.5q173 0 305 -70t206 -201l6 -1q18 17 31.5 54.5t19 70.5t14.5 98zM714 287q117 0 210.5 75t144 201.5t50.5 277.5q0 163 -76.5 245t-205.5 82q-83 0 -158 -46.5t-127 -122.5t-82.5 -175.5t-30.5 -204.5q0 -164 75.5 -248t199.5 -84z
" />
    <glyph glyph-name="uni1EDD" unicode="&#x1edd;" horiz-adv-x="1285" 
d="M784 1141h-282l-190 306l307 -2zM1099 1159h250l-23 -177q-21 -173 -98.5 -264t-194.5 -100q1 -9 1 -26q0 -99 -20.5 -188.5t-65 -167t-109 -134t-157.5 -89t-205 -32.5q-193 0 -308 114t-115 317q0 97 23 187t70 166.5t112 133.5t154.5 89t193.5 32q147 0 251 -64.5
t147 -185.5h2q30 22 44 75t27 152zM500 255q66 0 118 45.5t79 117t27 154.5q0 43 -9.5 75.5t-24 51t-35 29.5t-37.5 14.5t-36 3.5q-66 0 -117 -47.5t-76 -119t-25 -150.5q0 -88 40 -131t96 -43z" />
    <glyph glyph-name="uni1EDE" unicode="&#x1ede;" horiz-adv-x="1637" 
d="M970 1810q-29 0 -65.5 -19t-62.5 -41l-81 99q42 39 105 66t128 27q91 0 140 -42.5t48 -112.5q-1 -137 -186 -178l-21 -46l-107 -2q-28 36 -27 65q1 21 27 41.5t57 34.5t57 35.5t26 44.5q0 28 -38 28zM1472 1587h250l-23 -177q-20 -160 -87 -249.5t-170 -109.5l-2 -4
q21 -85 21 -186q0 -144 -33 -275.5t-98.5 -241.5t-157 -191t-216 -126.5t-267.5 -45.5q-133 0 -242.5 41.5t-186.5 119.5t-119.5 195t-42.5 262q0 138 34.5 268t102 239.5t160 192t215 129t259.5 46.5q173 0 305 -70t206 -201l6 -1q18 17 31.5 54.5t19 70.5t14.5 98z
M714 287q117 0 210 75t144 201.5t51 277.5q0 163 -76.5 245t-205.5 82q-84 0 -158.5 -46.5t-126.5 -122.5t-82.5 -175.5t-30.5 -204.5q0 -164 75.5 -248t199.5 -84z" />
    <glyph glyph-name="uni1EDF" unicode="&#x1edf;" horiz-adv-x="1285" 
d="M666 1350q-29 0 -65.5 -19t-62.5 -41l-81 99q42 39 105 66t128 27q91 0 140 -42.5t48 -112.5q-1 -137 -186 -178l-21 -46l-107 -2q-28 36 -27 65q1 21 27 41.5t57 34.5t57 35.5t26 44.5q0 28 -38 28zM1099 1159h250l-23 -177q-21 -173 -98.5 -264t-194.5 -100q1 -9 1 -26
q0 -99 -20.5 -188.5t-65 -167t-109 -134t-157.5 -89t-205 -32.5q-193 0 -308 114t-115 317q0 97 23 187t70 166.5t112 133.5t154.5 89t193.5 32q147 0 251 -64.5t147 -185.5h2q30 22 44 75t27 152zM500 255q66 0 118 45.5t79 117t27 154.5q0 43 -9.5 76t-24 51t-35 29
t-37.5 14.5t-36 3.5q-65 0 -116.5 -47.5t-76.5 -119t-25 -150.5q0 -88 40 -131t96 -43z" />
    <glyph glyph-name="uni1EE0" unicode="&#x1ee0;" horiz-adv-x="1637" 
d="M867 1684q-36 0 -67 -28.5t-54 -75.5l-172 86q47 113 115 179.5t150 66.5q17 0 32.5 -1.5t29 -6l23 -7.5t21.5 -10t17 -10.5l16.5 -11.5t13.5 -9q22 -15 33 -21.5t26 -12t28 -5.5q36 0 68 28t54 74l171 -70q-45 -121 -112.5 -192t-147.5 -71q-11 0 -22.5 1t-20 2.5t-19 5
l-17 5.5t-16.5 7.5t-14 7.5t-13.5 8.5t-12 8t-12 8t-10.5 7.5q-52 37 -88 37zM1472 1587h250l-23 -177q-20 -160 -87 -249.5t-170 -109.5l-2 -4q21 -85 21 -186q0 -144 -33 -275.5t-98.5 -241.5t-157 -191t-215.5 -126.5t-268 -45.5q-133 0 -242.5 41.5t-186.5 119.5
t-119.5 195t-42.5 262q0 138 34.5 268t102 239.5t160 192t215 129t259.5 46.5q173 0 305 -70t206 -201l6 -1q18 17 31.5 54.5t19 70.5t14.5 98zM714 287q117 0 210.5 75t144 201.5t50.5 277.5q0 163 -76.5 245t-205.5 82q-83 0 -158 -46.5t-127 -122.5t-82.5 -175.5
t-30.5 -204.5q0 -164 75.5 -248t199.5 -84z" />
    <glyph glyph-name="uni1EE1" unicode="&#x1ee1;" horiz-adv-x="1285" 
d="M563 1224q-36 0 -67 -28.5t-54 -75.5l-172 86q46 113 114.5 179.5t150.5 66.5q17 0 32.5 -1.5t29 -6l23 -7.5t21.5 -10t17 -10.5l16.5 -11.5t13.5 -9q22 -15 33 -21.5t26 -12t28 -5.5q36 0 68 28t54 74l171 -70q-45 -121 -112.5 -192t-147.5 -71q-11 0 -22.5 1t-20 2.5
t-19 5l-17 5.5t-16.5 7.5t-14 7.5t-13.5 8.5t-12 8t-12 8t-10.5 7.5q-52 37 -88 37zM1099 1159h250l-23 -177q-21 -173 -98.5 -264t-194.5 -100q1 -9 1 -26q0 -99 -20.5 -188.5t-65 -167t-109 -134t-157.5 -89t-205 -32.5q-193 0 -308 114t-115 317q0 97 23 187t70 166.5
t112 133.5t154.5 89t193.5 32q147 0 251 -64.5t147 -185.5h2q30 22 44 75t27 152zM500 255q66 0 118 45.5t79 117t27 154.5q0 43 -9.5 76t-24 51t-35 29t-37.5 14.5t-36 3.5q-66 0 -117 -47.5t-76 -119t-25 -150.5q0 -88 40 -131t96 -43z" />
    <glyph glyph-name="uni1EE2" unicode="&#x1ee2;" horiz-adv-x="1637" 
d="M1472 1587h250l-23 -177q-20 -160 -87 -249.5t-170 -109.5l-2 -4q21 -85 21 -186q0 -144 -33 -275.5t-98.5 -241.5t-157 -191t-216 -126.5t-267.5 -45.5q-133 0 -242.5 41.5t-186.5 119.5t-119.5 195t-42.5 262q0 138 34.5 268t102 239.5t160 192t215 129t259.5 46.5
q173 0 305 -70t206 -201l6 -1q18 17 31.5 54.5t19 70.5t14.5 98zM714 287q117 0 210 75t144 201.5t51 277.5q0 163 -76.5 245t-205.5 82q-84 0 -158.5 -46.5t-126.5 -122.5t-82.5 -175.5t-30.5 -204.5q0 -164 75.5 -248t199.5 -84zM662 -163q81 0 132.5 -50.5t51.5 -126.5
q0 -79 -53.5 -130t-137.5 -51q-81 0 -132.5 49.5t-51.5 125.5q0 79 53.5 131t137.5 52z" />
    <glyph glyph-name="uni1EE3" unicode="&#x1ee3;" horiz-adv-x="1285" 
d="M1099 1159h250l-23 -177q-21 -173 -98.5 -264t-194.5 -100q1 -9 1 -26q0 -99 -20.5 -188.5t-65 -167t-109 -134t-157.5 -89t-205 -32.5q-193 0 -308 114t-115 317q0 97 23 187t70 166.5t112 133.5t154.5 89t193.5 32q147 0 251 -64.5t147 -185.5h2q30 22 44 75t27 152z
M500 255q66 0 118 45.5t79 117t27 154.5q0 43 -9.5 76t-24 51t-35 29t-37.5 14.5t-36 3.5q-66 0 -117 -47.5t-76 -119t-25 -150.5q0 -88 40 -131t96 -43zM446 -163q81 0 132.5 -50.5t51.5 -126.5q0 -79 -53.5 -130t-137.5 -51q-81 0 -132.5 49.5t-51.5 125.5q0 79 53.5 131
t137.5 52z" />
    <glyph glyph-name="uni1EE4" unicode="&#x1ee4;" horiz-adv-x="1329" 
d="M1224 601q-20 -168 -69 -287.5t-127.5 -192.5t-181.5 -106.5t-239 -33.5q-245 0 -363.5 134.5t-118.5 382.5q0 64 10 152l100 805h327l-99 -803q-8 -69 -8 -122q0 -242 176 -242q76 0 128.5 29t88 101t50.5 191l104 846h327zM574 -521q-81 0 -132.5 49.5t-51.5 125.5
q0 79 53.5 131t137.5 52q81 0 132.5 -50.5t51.5 -126.5q0 -79 -53.5 -130t-137.5 -51z" />
    <glyph glyph-name="uni1EE5" unicode="&#x1ee5;" horiz-adv-x="1086" 
d="M740 1002h307l-123 -1002h-307l18 148h-3q-118 -167 -298 -167q-58 0 -102 13t-79 42t-54 75t-26 113t5 155l75 623h306l-65 -531q-16 -122 -2 -168.5t67 -46.5q43 0 92 42t86.5 110.5t46.5 137.5zM449 -163q81 0 132.5 -50.5t51.5 -126.5q0 -79 -53.5 -130t-137.5 -51
q-81 0 -132.5 49.5t-51.5 125.5q0 79 53.5 131t137.5 52z" />
    <glyph glyph-name="uni1EE6" unicode="&#x1ee6;" horiz-adv-x="1329" 
d="M704 1750l-81 99q42 39 105 66t128 27q91 0 140 -42.5t48 -112.5q-1 -137 -186 -178l-21 -46l-107 -2q-28 36 -27 65q1 21 27 41.5t57 34.5t57 35.5t26 44.5q0 28 -38 28q-29 0 -65.5 -19t-62.5 -41zM1224 601q-20 -168 -69 -287.5t-127.5 -192.5t-181.5 -106.5
t-239 -33.5q-245 0 -363.5 134.5t-118.5 382.5q0 64 10 152l100 805h327l-99 -803q-8 -69 -8 -122q0 -242 176 -242q76 0 128.5 29t88 101t50.5 191l104 846h327z" />
    <glyph glyph-name="uni1EE7" unicode="&#x1ee7;" horiz-adv-x="1086" 
d="M655 1350q-29 0 -65.5 -19t-62.5 -41l-81 99q42 39 105 66t128 27q91 0 140 -42.5t48 -112.5q-1 -137 -186 -178l-21 -46l-107 -2q-28 36 -27 65q1 21 27 41.5t57 34.5t57 35.5t26 44.5q0 28 -38 28zM740 1002h307l-123 -1002h-307l18 148h-3q-118 -167 -298 -167
q-58 0 -102 13t-79 42t-54 75t-26 113t5 155l75 623h306l-65 -531q-16 -122 -2 -168.5t67 -46.5q43 0 92 42t86.5 110.5t46.5 137.5z" />
    <glyph glyph-name="uni1EE8" unicode="&#x1ee8;" horiz-adv-x="1560" 
d="M1191 1905l-265 -306h-286l240 304zM1455 1587h250l-23 -177q-22 -183 -107 -274t-212 -91q-44 0 -83 10l-56 -454q-20 -168 -69 -287.5t-127.5 -192.5t-181.5 -106.5t-239 -33.5q-245 0 -363.5 134.5t-118.5 382.5q0 64 10 152l100 805h327l-99 -803q-8 -69 -8 -122
q0 -242 176 -242q76 0 128.5 29t88 101t50.5 191l104 846h327l-33 -266q13 -4 27 -4q19 0 33.5 7.5t25.5 26t18.5 36t14 50t10 55.5l9.5 65z" />
    <glyph glyph-name="uni1EE9" unicode="&#x1ee9;" horiz-adv-x="1359" 
d="M1036 1446l-265 -306h-286l240 304zM1169 1159h250l-23 -177q-22 -183 -107 -274t-212 -91q-44 0 -76 8l-77 -625h-307l18 148h-3q-118 -167 -298 -167q-58 0 -102 13t-79 42t-54 75t-26 113t5 155l75 623h306l-65 -531q-16 -122 -2 -168.5t67 -46.5q43 0 92 42
t86.5 110.5t46.5 137.5l56 456h307l-30 -243q14 -2 20 -2q19 0 33.5 7.5t25.5 26t18.5 36t14 50t10 55.5l9.5 65z" />
    <glyph glyph-name="uni1EEA" unicode="&#x1eea;" horiz-adv-x="1560" 
d="M916 1599h-282l-190 306l307 -2zM1455 1587h250l-23 -177q-22 -183 -107 -274t-212 -91q-44 0 -83 10l-56 -454q-20 -168 -69 -287.5t-127.5 -192.5t-181.5 -106.5t-239 -33.5q-245 0 -363.5 134.5t-118.5 382.5q0 64 10 152l100 805h327l-99 -803q-8 -69 -8 -122
q0 -242 176 -242q76 0 128.5 29t88 101t50.5 191l104 846h327l-33 -266q13 -4 27 -4q19 0 33.5 7.5t25.5 26t18.5 36t14 50t10 55.5l9.5 65z" />
    <glyph glyph-name="uni1EEB" unicode="&#x1eeb;" horiz-adv-x="1359" 
d="M765 1142h-282l-190 306l307 -2zM1169 1159h250l-23 -177q-22 -183 -107 -274t-212 -91q-44 0 -76 8l-77 -625h-307l18 148h-3q-118 -167 -298 -167q-58 0 -102 13t-79 42t-54 75t-26 113t5 155l75 623h306l-65 -531q-16 -122 -2 -168.5t67 -46.5q43 0 92 42t86.5 110.5
t46.5 137.5l56 456h307l-30 -243q14 -2 20 -2q19 0 33.5 7.5t25.5 26t18.5 36t14 50t10 55.5l9.5 65z" />
    <glyph glyph-name="uni1EEC" unicode="&#x1eec;" horiz-adv-x="1560" 
d="M832 1810q-29 0 -65.5 -19t-62.5 -41l-81 99q42 39 105 66t128 27q91 0 140 -42.5t48 -112.5q-1 -137 -186 -178l-21 -46l-107 -2q-28 36 -27 65q1 21 27 41.5t57 34.5t57 35.5t26 44.5q0 28 -38 28zM1455 1587h250l-23 -177q-22 -183 -107 -274t-212 -91q-44 0 -83 10
l-56 -454q-20 -168 -69 -287.5t-127.5 -192.5t-181.5 -106.5t-239 -33.5q-245 0 -363.5 134.5t-118.5 382.5q0 64 10 152l100 805h327l-99 -803q-8 -69 -8 -122q0 -242 176 -242q76 0 128.5 29t88 101t50.5 191l104 846h327l-33 -266q13 -4 27 -4q19 0 33.5 7.5t25.5 26
t18.5 36t14 50t10 55.5l9.5 65z" />
    <glyph glyph-name="uni1EED" unicode="&#x1eed;" horiz-adv-x="1359" 
d="M655 1350q-29 0 -65.5 -19t-62.5 -41l-81 99q42 39 105 66t128 27q91 0 140 -42.5t48 -112.5q-1 -137 -186 -178l-21 -46l-107 -2q-28 36 -27 65q1 21 27 41.5t57 34.5t57 35.5t26 44.5q0 28 -38 28zM1169 1159h250l-23 -177q-22 -183 -107 -274t-212 -91q-44 0 -76 8
l-77 -625h-307l18 148h-3q-118 -167 -298 -167q-58 0 -102 13t-79 42t-54 75t-26 113t5 155l75 623h306l-65 -531q-16 -122 -2 -168.5t67 -46.5q43 0 92 42t86.5 110.5t46.5 137.5l56 456h307l-30 -243q14 -2 20 -2q19 0 33.5 7.5t25.5 26t18.5 36t14 50t10 55.5l9.5 65z
" />
    <glyph glyph-name="uni1EEE" unicode="&#x1eee;" horiz-adv-x="1560" 
d="M729 1684q-36 0 -67 -28.5t-54 -75.5l-172 86q46 113 114.5 179.5t150.5 66.5q17 0 32.5 -1.5t29 -6l23 -7.5t21.5 -10t17 -10.5l16.5 -11.5t13.5 -9q22 -15 33 -21.5t26 -12t28 -5.5q36 0 68 28t54 74l171 -70q-45 -121 -112.5 -192t-147.5 -71q-11 0 -22.5 1t-20 2.5
t-19 5l-17 5.5t-16.5 7.5t-14 7.5t-13.5 8.5t-12 8t-12 8t-10.5 7.5q-52 37 -88 37zM1455 1587h250l-23 -177q-22 -183 -107 -274t-212 -91q-44 0 -83 10l-56 -454q-20 -168 -69 -287.5t-127.5 -192.5t-181.5 -106.5t-239 -33.5q-245 0 -363.5 134.5t-118.5 382.5
q0 64 10 152l100 805h327l-99 -803q-8 -69 -8 -122q0 -242 176 -242q76 0 128.5 29t88 101t50.5 191l104 846h327l-33 -266q13 -4 27 -4q19 0 33.5 7.5t25.5 26t18.5 36t14 50t10 55.5l9.5 65z" />
    <glyph glyph-name="uni1EEF" unicode="&#x1eef;" horiz-adv-x="1359" 
d="M552 1224q-36 0 -67 -28.5t-54 -75.5l-172 86q47 113 115 179.5t150 66.5q17 0 32.5 -1.5t29 -6l23 -7.5t21.5 -10t17 -10.5l16.5 -11.5t13.5 -9q22 -15 33 -21.5t26 -12t28 -5.5q36 0 68 28t54 74l171 -70q-45 -121 -112.5 -192t-147.5 -71q-11 0 -22.5 1t-20 2.5t-19 5
l-17 5.5t-16.5 7.5t-14 7.5t-13.5 8.5t-12 8t-12 8t-10.5 7.5q-52 37 -88 37zM1169 1159h250l-23 -177q-22 -183 -107 -274t-212 -91q-44 0 -76 8l-77 -625h-307l18 148h-3q-118 -167 -298 -167q-58 0 -102 13t-79 42t-54 75t-26 113t5 155l75 623h306l-65 -531
q-16 -122 -2 -168.5t67 -46.5q43 0 92 42t86.5 110.5t46.5 137.5l56 456h307l-30 -243q14 -2 20 -2q19 0 33.5 7.5t25.5 26t18.5 36t14 50t10 55.5l9.5 65z" />
    <glyph glyph-name="uni1EF0" unicode="&#x1ef0;" horiz-adv-x="1560" 
d="M1455 1587h250l-23 -177q-22 -183 -107 -274t-212 -91q-44 0 -83 10l-56 -454q-20 -168 -69 -287.5t-127.5 -192.5t-181.5 -106.5t-239 -33.5q-245 0 -363.5 134.5t-118.5 382.5q0 64 10 152l100 805h327l-99 -803q-8 -69 -8 -122q0 -242 176 -242q76 0 128.5 29t88 101
t50.5 191l104 846h327l-33 -266q13 -4 27 -4q19 0 33.5 7.5t25.5 26t18.5 36t14 50t10 55.5l9.5 65zM581 -163q81 0 132.5 -50.5t51.5 -126.5q0 -79 -53.5 -130t-137.5 -51q-81 0 -132.5 49.5t-51.5 125.5q0 79 53.5 131t137.5 52z" />
    <glyph glyph-name="uni1EF1" unicode="&#x1ef1;" horiz-adv-x="1359" 
d="M1169 1159h250l-23 -177q-22 -183 -107 -274t-212 -91q-44 0 -76 8l-77 -625h-307l18 148h-3q-118 -167 -298 -167q-58 0 -102 13t-79 42t-54 75t-26 113t5 155l75 623h306l-65 -531q-16 -122 -2 -168.5t67 -46.5q43 0 92 42t86.5 110.5t46.5 137.5l56 456h307l-30 -243
q14 -2 20 -2q19 0 33.5 7.5t25.5 26t18.5 36t14 50t10 55.5l9.5 65zM449 -163q81 0 132.5 -50.5t51.5 -126.5q0 -79 -53.5 -130t-137.5 -51q-81 0 -132.5 49.5t-51.5 125.5q0 79 53.5 131t137.5 52z" />
    <glyph glyph-name="Ygrave" unicode="&#x1ef2;" horiz-adv-x="1181" 
d="M848 1599h-282l-190 306l307 -2zM921 1455h382l-530 -820l-80 -635h-332l80 635l-325 820h365l159 -500h6z" />
    <glyph glyph-name="ygrave" unicode="&#x1ef3;" horiz-adv-x="1085" 
d="M785 1140h-282l-190 306l307 -2zM739 1002h307l-107 -866q-68 -560 -567 -560q-203 0 -361 97l96 232q113 -77 250 -77q45 0 78.5 7t67 27.5t57.5 55t43.5 92t30.5 137.5h-4q-119 -166 -301 -166q-58 0 -102 13t-79 42t-54 75t-26 113t5 155l76 623h305l-64 -531
q-16 -122 -2 -168.5t67 -46.5q44 -1 93.5 41t87 109t47.5 136z" />
    <glyph glyph-name="uni1EF4" unicode="&#x1ef4;" horiz-adv-x="1181" 
d="M921 1455h382l-530 -820l-80 -635h-332l80 635l-325 820h365l159 -500h6zM496 -163q81 0 132.5 -50.5t51.5 -126.5q0 -79 -53.5 -130t-137.5 -51q-81 0 -132.5 49.5t-51.5 125.5q0 79 53.5 131t137.5 52z" />
    <glyph glyph-name="uni1EF5" unicode="&#x1ef5;" horiz-adv-x="1085" 
d="M739 1002h307l-107 -866q-68 -560 -567 -560q-203 0 -361 97l96 232q113 -77 250 -77q45 0 78.5 7t67 27.5t57.5 55t43.5 92t30.5 137.5h-4q-119 -166 -301 -166q-58 0 -102 13t-79 42t-54 75t-26 113t5 155l76 623h305l-64 -531q-16 -122 -2 -168.5t67 -46.5
q44 0 93.5 41.5t87 108.5t47.5 136zM424 -480q81 0 132.5 -50.5t51.5 -126.5q0 -79 -53.5 -130t-137.5 -51q-81 0 -132.5 49.5t-51.5 125.5q0 79 53.5 131t137.5 52z" />
    <glyph glyph-name="uni1EF6" unicode="&#x1ef6;" horiz-adv-x="1181" 
d="M750 1810q-29 0 -65.5 -19t-62.5 -41l-81 99q42 39 105 66t128 27q91 0 140 -42.5t48 -112.5q-1 -137 -186 -178l-21 -46l-107 -2q-28 36 -27 65q1 21 27 41.5t57 34.5t57 35.5t26 44.5q0 28 -38 28zM921 1455h382l-530 -820l-80 -635h-332l80 635l-325 820h365l159 -500
h6z" />
    <glyph glyph-name="uni1EF7" unicode="&#x1ef7;" horiz-adv-x="1085" 
d="M644 1350q-29 0 -65.5 -19t-62.5 -41l-81 99q42 39 105 66t128 27q91 0 140 -42.5t48 -112.5q-1 -137 -186 -178l-21 -46l-107 -2q-28 36 -27 65q1 21 27 41.5t57 34.5t57 35.5t26 44.5q0 28 -38 28zM739 1002h307l-107 -866q-68 -560 -567 -560q-203 0 -361 97l96 232
q113 -77 250 -77q45 0 78.5 7t67 27.5t57.5 55t43.5 92t30.5 137.5h-4q-119 -166 -301 -166q-58 0 -102 13t-79 42t-54 75t-26 113t5 155l76 623h305l-64 -531q-16 -122 -2 -168.5t67 -46.5q44 0 93.5 41.5t87 108.5t47.5 136z" />
    <glyph glyph-name="uni1EF8" unicode="&#x1ef8;" horiz-adv-x="1181" 
d="M647 1684q-36 0 -67 -28.5t-54 -75.5l-172 86q47 113 115 179.5t150 66.5q17 0 32.5 -1.5t29 -6l23 -7.5t21.5 -10t17 -10.5l16.5 -11.5t13.5 -9q22 -15 33 -21.5t26 -12t28 -5.5q36 0 68 28t54 74l171 -70q-45 -121 -112.5 -192t-147.5 -71q-11 0 -22.5 1t-20 2.5t-19 5
l-17 5.5t-16.5 7.5t-14 7.5t-13.5 8.5t-12 8t-12 8t-10.5 7.5q-52 37 -88 37zM921 1455h382l-530 -820l-80 -635h-332l80 635l-325 820h365l159 -500h6z" />
    <glyph glyph-name="uni1EF9" unicode="&#x1ef9;" horiz-adv-x="1085" 
d="M541 1224q-36 0 -67 -28.5t-54 -75.5l-172 86q47 113 115 179.5t150 66.5q17 0 32.5 -1.5t29 -6l23 -7.5t21.5 -10t17 -10.5l16.5 -11.5t13.5 -9q22 -15 33 -21.5t26 -12t28 -5.5q36 0 68 28t54 74l171 -70q-45 -121 -112.5 -192t-147.5 -71q-11 0 -22.5 1t-20 2.5t-19 5
t-17 6t-16.5 7.5l-14 7t-13.5 8.5t-12 8t-12 8t-10.5 7.5q-52 37 -88 37zM683 542l56 460h307l-107 -866q-68 -560 -567 -560q-203 0 -361 97l96 232q113 -77 250 -77q45 0 78.5 7t67 27.5t57.5 55t43.5 92t30.5 137.5h-4q-119 -166 -301 -166q-58 0 -102 13t-79 42t-54 75
t-26 113t5 155l76 623h305l-64 -531q-16 -122 -2 -168.5t67 -46.5q44 0 93.5 41.5t87 108.5t47.5 136z" />
    <glyph glyph-name="endash" unicode="&#x2013;" horiz-adv-x="1117" 
d="M1034 483h-956l31 257h957z" />
    <glyph glyph-name="emdash" unicode="&#x2014;" horiz-adv-x="2071" 
d="M1988 483h-1910l31 257h1911z" />
    <glyph glyph-name="quoteleft" unicode="&#x2018;" horiz-adv-x="456" 
d="M419 904h-305l197 548h230z" />
    <glyph glyph-name="quoteright" unicode="&#x2019;" horiz-adv-x="457" 
d="M229 1455h305l-197 -548h-230z" />
    <glyph glyph-name="quotesinglbase" unicode="&#x201a;" horiz-adv-x="479" 
d="M63 274h302l-205 -547h-219z" />
    <glyph glyph-name="quotedblleft" unicode="&#x201c;" horiz-adv-x="862" 
d="M419 905h-306l198 548h230zM822 905h-305l197 548h230z" />
    <glyph glyph-name="quotedblright" unicode="&#x201d;" horiz-adv-x="861" 
d="M231 1455h305l-197 -548h-230zM634 1455h306l-198 -548h-230z" />
    <glyph glyph-name="quotedblbase" unicode="&#x201e;" horiz-adv-x="885" 
d="M78 387h305l-197 -548h-230zM481 387h306l-198 -548h-230z" />
    <glyph glyph-name="bullet" unicode="&#x2022;" horiz-adv-x="854" 
d="M450 896q106 0 176.5 -70t70.5 -174q0 -109 -73.5 -182.5t-183.5 -73.5q-106 0 -176 71t-70 178t73 179t183 72z" />
    <glyph glyph-name="ellipsis" unicode="&#x2026;" horiz-adv-x="2048" 
d="M288 339q77 0 128 -50t51 -125q0 -79 -53 -131t-133 -52q-76 0 -127 50.5t-51 126.5q0 78 52.5 129.5t132.5 51.5zM971 339q77 0 128 -50t51 -125q0 -79 -53 -131t-133 -52q-76 0 -127 50.5t-51 126.5q0 78 52.5 129.5t132.5 51.5zM1654 339q77 0 128 -50t51 -125
q0 -79 -53 -131t-133 -52q-76 0 -127 50.5t-51 126.5q0 78 52.5 129.5t132.5 51.5z" />
    <glyph glyph-name="guilsinglleft" unicode="&#x2039;" horiz-adv-x="584" 
d="M503 94h-282l-158 412l264 420h281l-262 -420z" />
    <glyph glyph-name="guilsinglright" unicode="&#x203a;" horiz-adv-x="579" 
d="M-24 94l262 412l-162 420h283l162 -420l-260 -412h-285z" />
    <glyph glyph-name="fraction" unicode="&#x2044;" horiz-adv-x="392" 
d="M743 1392l-760 -1444l-218 100l761 1444z" />
    <glyph glyph-name="dong" unicode="&#x20ab;" horiz-adv-x="1095" 
d="M1208 1304l-22 -184h-87l-137 -1120h-308l21 164h-5q-56 -86 -130.5 -134.5t-162.5 -48.5q-105 0 -180 55t-110.5 146t-35.5 209q0 131 37.5 248.5t100.5 201t150.5 132t183.5 48.5q153 0 241 -93h5l23 192h-164l22 184h164l25 204h308l-25 -204h86zM475 253
q89 0 168 113t103 304l1 5q-66 72 -170 72q-49 0 -91 -31t-69 -80t-42 -107t-15 -114q0 -74 31.5 -118t83.5 -44zM30 -354l32 260h883l-33 -260h-882z" />
    <glyph glyph-name="Euro" unicode="&#x20ac;" horiz-adv-x="1113" 
d="M694 274q111 0 185 71l157 -243q-170 -119 -362 -119q-105 0 -196 31.5t-162.5 93t-117.5 159t-58 221.5h-122l17 136h102q3 58 12 114h-101l17 135h115q34 112 93.5 204t139.5 158.5t182 103t217 36.5q201 0 352 -124l-210 -225q-58 57 -140 57q-94 0 -168 -56.5
t-119 -153.5h354l-16 -135h-382q-12 -62 -13 -114h381l-17 -136h-356q20 -101 77.5 -157.5t138.5 -56.5z" />
    <glyph glyph-name="uni20BA" unicode="&#x20ba;" horiz-adv-x="1212" 
d="M904 588l246 -89q-53 -137 -119 -234t-145 -155t-167 -84t-194 -26h-391l47 387l-130 -58l-51 151l204 91l14 119l-130 -59l-51 151l204 92l65 532h330l-46 -376l244 110l51 -151l-317 -143l-15 -118l244 109l51 -151l-317 -142l-35 -284h48q121 0 203.5 75.5
t156.5 252.5z" />
    <glyph glyph-name="uni2113" unicode="&#x2113;" horiz-adv-x="954" 
d="M817 265l94 -62q-66 -111 -159 -167t-205 -56q-326 0 -371 288l-114 -90l-57 80q14 12 75 59t89 72l4 527q1 126 27 219t74 148.5t110.5 81.5t141.5 26q80 0 136.5 -41.5t81.5 -107.5t25 -151q0 -162 -92 -316.5t-267 -321.5v-41q0 -71 12.5 -125t31 -85t44.5 -50t50 -25
t51 -6q60 0 116.5 41t101.5 103zM558 1240q-25 0 -50 -16.5t-48 -51t-37 -98.5t-14 -148l1 -336q256 274 256 481q0 88 -29.5 128.5t-78.5 40.5z" />
    <glyph glyph-name="trademark" unicode="&#x2122;" horiz-adv-x="1263" 
d="M145 1455h468l-20 -161h-144l-61 -502h-179l61 502h-144zM1131 1455h184l-81 -663h-176l43 336l-109 -213h-113l-58 211l-42 -334h-175l81 663h180l92 -330z" />
    <glyph glyph-name="uni2126" unicode="&#x2126;" horiz-adv-x="1390" 
d="M1075 296v-4h197l-36 -292h-527l36 292q269 254 269 592q0 137 -60 213.5t-166 75.5q-78 0 -143.5 -39.5t-107.5 -105.5t-65 -149.5t-23 -173.5q0 -121 36.5 -218t108.5 -195l-35 -292h-528l36 292h213v4q-165 181 -165 439q0 152 52 288t142 235t219 157t276 58
q171 0 296.5 -70.5t191.5 -199t66 -299.5q0 -183 -74.5 -336.5t-208.5 -271.5z" />
    <glyph glyph-name="estimated" unicode="&#x212e;" horiz-adv-x="1610" 
d="M511 619v-477q125 -84 295 -84q272 0 432 172h131q-97 -116 -247 -183.5t-318 -67.5q-148 0 -282 52t-230 140.5t-152.5 209.5t-56.5 255q0 135 57 257.5t154 210t230 139t280 51.5q148 0 282 -52t230 -140t152.5 -210t56.5 -256v-17h-1014zM1098 1133q-131 81 -293 81
q-163 0 -295 -84v-419h588v422z" />
    <glyph glyph-name="partialdiff" unicode="&#x2202;" horiz-adv-x="1100" 
d="M649 1423q68 0 124 -17.5t96.5 -47.5t71.5 -73.5t50.5 -91.5t31.5 -106t17 -113.5t5 -116.5q0 -144 -20.5 -272t-65.5 -239.5t-111 -192t-162.5 -126.5t-214.5 -46q-114 0 -203 46.5t-140.5 136.5t-51.5 211q0 108 34.5 206t95 170t147 114.5t185.5 42.5q123 0 205 -77
v11q4 321 -186 321q-42 0 -113.5 -18t-134.5 -42l-45 235q98 43 200 64t185 21zM504 266q75 0 128 79.5t81 210.5q-27 47 -65.5 74.5t-77.5 27.5q-85 0 -134 -66t-49 -165q0 -69 30 -115t87 -46z" />
    <glyph glyph-name="emptyset" unicode="&#x2205;" horiz-adv-x="1493" 
d="M1275 1040q126 -172 126 -389q0 -132 -51 -253t-138 -210.5t-209.5 -142.5t-258.5 -53q-217 0 -389 129l-108 -108l-127 127l107 107q-65 85 -100.5 188.5t-35.5 215.5q0 132 51 253.5t138 210.5t209 142t258 53q227 0 404 -139l98 98l127 -128zM342 648q0 -122 64 -222
l564 564q-101 67 -224 67q-113 0 -206 -55t-145.5 -149t-52.5 -205zM743 244q112 0 205.5 55t146 148.5t52.5 203.5t-54 207l-558 -557q95 -57 208 -57z" />
    <glyph glyph-name="uni2206" unicode="&#x2206;" horiz-adv-x="1259" 
d="M904 1455l265 -1204l-29 -251h-1144l30 251l561 1204h317zM378 292h452l-129 745h-5z" />
    <glyph glyph-name="product" unicode="&#x220f;" horiz-adv-x="1300" 
d="M250 1455h1035l-206 -1672h-329l169 1379h-375l-169 -1379h-330z" />
    <glyph glyph-name="summation" unicode="&#x2211;" horiz-adv-x="1149" 
d="M1150 1162h-558l-1 -8l270 -500l-390 -505l-1 -6h555l-36 -292h-980l26 228l470 575l-326 564l27 237h980z" />
    <glyph glyph-name="minus" unicode="&#x2212;" horiz-adv-x="1051" 
d="M959 437h-882l32 260h883z" />
    <glyph glyph-name="radical" unicode="&#x221a;" horiz-adv-x="1384" 
d="M1438 1684h215l-943 -1684h-194l-182 1024h-216l31 247h453l134 -860h4z" />
    <glyph glyph-name="infinity" unicode="&#x221e;" horiz-adv-x="1406" 
d="M1044 932q127 0 206.5 -89t79.5 -227q0 -107 -45.5 -199t-127 -147t-179.5 -55q-87 0 -156.5 45.5t-127.5 140.5q-80 -93 -157.5 -139.5t-159.5 -46.5q-126 0 -205 88t-79 226q0 106 45.5 198.5t126.5 148.5t179 56q169 0 281 -188q83 93 161 140.5t158 47.5zM416 442
q44 0 82 33.5t91 106.5q-17 32 -27 49t-26 36.5t-33.5 28t-38.5 8.5q-58 0 -92.5 -52t-34.5 -118q0 -46 21 -69t58 -23zM964 442q52 0 86.5 50.5t34.5 120.5q0 45 -20.5 68t-57.5 23q-41 0 -82 -35.5t-92 -105.5q34 -61 62 -91t69 -30z" />
    <glyph glyph-name="integral" unicode="&#x222b;" horiz-adv-x="672" 
d="M740 1195q-64 2 -80 2q-86 0 -115 -32q-27 -29 -43 -129q-4 -20 -10 -63l-154 -1019q-22 -147 -113.5 -227t-217.5 -84q-94 -2 -174 15l37 233h17q20 0 36.5 1t30 5.5l24 8t19.5 13t15 16.5t12 23.5t9.5 28t8 35.5l7.5 41t8 49l154 1017q15 102 65 174t117.5 105
t148.5 35q68 1 124 -7.5t82 -17t27 -8.5z" />
    </font>
</defs>
</svg>
