<svg width="25" height="39" viewBox="0 0 25 39" fill="none" xmlns="http://www.w3.org/2000/svg">
<ellipse opacity="0.5" cx="11.1247" cy="34.6143" rx="11.1247" ry="3.60676" fill="url(#paint0_linear)"/>
<path opacity="0.5" fill-rule="evenodd" clip-rule="evenodd" d="M19.2231 22.5322C19.2267 22.711 19.2312 22.9325 19.233 23.1892C19.2349 23.6221 19.2241 24.0476 19.2014 24.4648C20.468 24.3845 21.7126 25.0936 22.2634 26.3306C22.9693 27.916 22.2681 29.7682 20.6973 30.4676L17.0317 32.0996C16.7773 32.5027 16.5074 32.8665 16.2255 33.1873C15.0929 34.4758 13.2805 35.2024 10.8681 35.2024C2.25236 35.2024 2.46338 24.9509 2.51317 22.5318C2.51609 22.39 2.51845 22.2751 2.51845 22.1908C2.51845 20.6679 5.47737 19.4333 10.8681 19.4333C16.2589 19.4333 19.2178 20.6679 19.2178 22.1908C19.2178 22.2751 19.2202 22.3902 19.2231 22.5322ZM18.2898 29.3966L19.9011 28.6792C20.4933 28.4155 20.7577 27.7172 20.4916 27.1194C20.2334 26.5395 19.5707 26.2673 18.9906 26.4923C18.8281 27.5363 18.5892 28.51 18.2898 29.3966Z" fill="white"/>
<path opacity="0.487044" d="M7.64253 33.3376C6.67808 32.6826 4.06305 30.6147 3.82139 24.5247C3.81772 24.4323 3.91663 24.3709 3.99631 24.4165C4.31307 24.5977 5.04954 24.9486 6.26562 25.1407C6.32564 25.1502 6.37023 25.2025 6.36511 25.2636C6.30705 25.9569 6.06819 29.6586 7.80932 33.1856C7.86305 33.2944 7.74247 33.4055 7.64253 33.3376Z" fill="white"/>
<path opacity="0.5" fill-rule="evenodd" clip-rule="evenodd" d="M10.8681 24.1421C6.40077 24.1421 4.02356 23.2684 4.02356 22.1908C4.02356 21.1131 6.44908 20.2395 10.8681 20.2395C15.2871 20.2395 17.7126 21.1131 17.7126 22.1908C17.7126 23.2684 15.3354 24.1421 10.8681 24.1421Z" fill="url(#paint1_linear)"/>
<mask id="mask0" mask-type="alpha" maskUnits="userSpaceOnUse" x="4" y="20" width="14" height="5">
<path fill-rule="evenodd" clip-rule="evenodd" d="M10.8681 24.1421C6.40077 24.1421 4.02356 23.2684 4.02356 22.1908C4.02356 21.1131 6.44908 20.2395 10.8681 20.2395C15.2871 20.2395 17.7126 21.1131 17.7126 22.1908C17.7126 23.2684 15.3354 24.1421 10.8681 24.1421Z" fill="white"/>
</mask>
<g mask="url(#mask0)">
<path opacity="0.5" fill-rule="evenodd" clip-rule="evenodd" d="M6.55566 24.2053C2.08833 24.2053 -0.288879 23.3317 -0.288879 22.254C-0.288879 21.1764 2.13664 20.3027 6.55566 20.3027C10.9747 20.3027 13.4002 21.1764 13.4002 22.254C13.4002 23.3317 11.023 24.2053 6.55566 24.2053Z" fill="white"/>
<path fill-rule="evenodd" clip-rule="evenodd" d="M20.5612 23.175C16.0938 23.175 13.7166 22.3014 13.7166 21.2237C13.7166 20.1461 16.1421 19.2725 20.5612 19.2725C24.9802 19.2725 27.4057 20.1461 27.4057 21.2237C27.4057 22.3014 25.0285 23.175 20.5612 23.175Z" fill="white" fill-opacity="0.6"/>
</g>
<path fill-rule="evenodd" clip-rule="evenodd" d="M9.98786 20.2515C10.2718 20.2436 10.5653 20.2395 10.8682 20.2395C12.4352 20.2395 13.7515 20.3493 14.7979 20.5392C14.9087 20.6531 14.965 20.775 14.965 20.9017C14.965 21.5348 13.5849 22.048 10.9914 22.048C8.39789 22.048 7.01779 21.5348 7.01779 20.9017C7.01779 20.7558 7.0925 20.6164 7.23884 20.4881C7.37637 20.4662 7.51812 20.4456 7.66405 20.4263C7.5313 19.7519 6.95153 19.2345 6.24158 19.2135C6.22694 19.213 6.21229 19.2128 6.19765 19.2128H6.01209C5.19074 19.2128 4.5249 18.5408 4.5249 17.7118C4.5249 16.8828 5.19074 16.2108 6.01209 16.2108H8.51057C8.93768 16.2108 9.28391 15.8614 9.28391 15.4303C9.28391 14.9992 8.93768 14.6498 8.51057 14.6498H7.85621C7.19913 14.6498 6.66646 14.1122 6.66646 13.449C6.66646 12.7858 7.19913 12.2482 7.85621 12.2482H14.1016C14.5948 12.2482 14.9947 11.8446 14.9947 11.3467V11.2875C14.9947 10.757 14.5686 10.3269 14.0429 10.3269H3.69207C3.03499 10.3269 2.50232 9.78928 2.50232 9.12609C2.50232 8.46291 3.03499 7.92529 3.69207 7.92529H5.77414C6.26695 7.92529 6.66646 7.52208 6.66646 7.02469C6.66646 6.5273 6.26695 6.12409 5.77414 6.12409H5.4767C4.95104 6.12409 4.5249 5.694 4.5249 5.16345C4.5249 4.6329 4.95104 4.20281 5.4767 4.20281H9.46238C9.95519 4.20281 10.3547 3.79959 10.3547 3.30221C10.3547 2.80482 9.95519 2.4016 9.46238 2.4016H9.28391C8.69254 2.4016 8.21313 1.91775 8.21313 1.32088V1.2008C8.21313 0.537617 8.74581 0 9.40289 0H16.5414C17.1985 0 17.7312 0.537617 17.7312 1.2008C17.7312 1.86399 17.1985 2.4016 16.5414 2.4016H14.9352C14.4424 2.4016 14.0429 2.80482 14.0429 3.30221C14.0429 3.79959 14.4424 4.20281 14.9352 4.20281H19.3968C19.9225 4.20281 20.3486 4.6329 20.3486 5.16345C20.3486 5.694 19.9225 6.12409 19.3968 6.12409H10.8901C10.3973 6.12409 9.99776 6.5273 9.99776 7.02469C9.99776 7.52208 10.3973 7.92529 10.8901 7.92529H21.5384C22.1955 7.92529 22.7281 8.46291 22.7281 9.12609C22.7281 9.78928 22.1955 10.3269 21.5384 10.3269H19.8727C19.347 10.3269 18.9209 10.757 18.9209 11.2875C18.9209 11.8181 19.347 12.2482 19.8727 12.2482H23.323C23.9801 12.2482 24.5128 12.7858 24.5128 13.449C24.5128 14.1122 23.9801 14.6498 23.323 14.6498H14.8163C14.3892 14.6498 14.0429 14.9992 14.0429 15.4303V15.4903C14.0429 15.8883 14.3625 16.2108 14.7568 16.2108C15.151 16.2108 15.4706 16.5334 15.4706 16.9313V17.1715C15.4706 17.702 15.0445 18.1321 14.5188 18.1321H12.6085C11.3298 18.1321 10.2554 19.0357 9.98786 20.2515Z" fill="url(#paint2_linear)"/>
<defs>
<linearGradient id="paint0_linear" x1="3.53544" y1="31.9746" x2="3.47856" y2="38.1379" gradientUnits="userSpaceOnUse">
<stop stop-color="white" stop-opacity="0.01"/>
<stop offset="1" stop-color="white"/>
</linearGradient>
<linearGradient id="paint1_linear" x1="6.19875" y1="20.7626" x2="6.1717" y2="24.0971" gradientUnits="userSpaceOnUse">
<stop stop-color="white" stop-opacity="0.01"/>
<stop offset="1" stop-color="white"/>
</linearGradient>
<linearGradient id="paint2_linear" x1="-3.34727" y1="2.05666" x2="-0.711536" y2="22.9412" gradientUnits="userSpaceOnUse">
<stop stop-color="white" stop-opacity="0.168761"/>
<stop offset="1" stop-color="white" stop-opacity="0.630217"/>
</linearGradient>
</defs>
</svg>
