<svg xmlns="http://www.w3.org/2000/svg" width="21.062" height="24.947" viewBox="0 0 21.062 24.947">
  <g id="Newshield" transform="translate(-34.1 -14.475)">
    <path id="Path_7" data-name="Path 7" d="M55.081,19.01c-.016-.71-.505-.916-1.137-.916a12.251,12.251,0,0,1-8.6-3.3.9.9,0,0,0-1.373,0,12.179,12.179,0,0,1-8.62,3.284c-.837.016-1.152.442-1.152,1.231.016,1.137,0,2.273,0,3.41H34.1c.063,1.231.111,2.463.205,3.694.489,6.3,3.631,10.609,9.6,12.8a1.532,1.532,0,0,0,1.121.142c4.436-1.626,7.815-4.326,9.2-9.03C55.365,26.619,55.192,22.815,55.081,19.01Zm-1.673,1.61c-.047.805-.016,1.626-.016,2.431-.047,3.126-.158,6.236-1.737,9.062a12.389,12.389,0,0,1-6.662,5.4,1.145,1.145,0,0,1-.916-.111c-4.941-1.926-7.546-5.589-8-10.83-.174-2-.158-4.026-.158-6.031,0-.6.221-.774.789-.805a12.655,12.655,0,0,0,7.5-2.842.582.582,0,0,1,.9-.016,12.571,12.571,0,0,0,7.5,2.857C53.266,19.752,53.439,20.02,53.408,20.62Z" transform="translate(0)" fill="#453787"/>
    <path id="Icon_material-lock-outline" data-name="Icon material-lock-outline" d="M10.72,10.939a1.18,1.18,0,1,0-1.18-1.18A1.183,1.183,0,0,0,10.72,10.939Zm3.54-5.31h-.59V4.45a2.95,2.95,0,0,0-5.9,0V5.63H7.18A1.183,1.183,0,0,0,6,6.81v5.9a1.183,1.183,0,0,0,1.18,1.18h7.079a1.183,1.183,0,0,0,1.18-1.18V6.81A1.183,1.183,0,0,0,14.259,5.63ZM8.891,4.45a1.829,1.829,0,1,1,3.658,0V5.63H8.891Zm5.369,8.259H7.18V6.81h7.079Z" transform="translate(33.911 18.254)" fill="#453787"/>
  </g>
</svg>
